<svg width="128" height="128" viewBox="0 0 128 128" fill="none" xmlns="http://www.w3.org/2000/svg">
<path d="M128 64.0005C128 69.366 127.34 74.5773 126.096 79.5578C124.561 85.7063 112.545 106.082 108.51 109.988C101.051 117.21 91.8395 122.632 81.5755 125.557C75.991 127.149 52.009 127.149 46.4245 125.557C36.1605 122.632 26.9492 117.21 19.4895 109.988C15.268 105.901 3.37425 85.4455 1.904 79.5578C0.66025 74.5773 0 69.366 0 64.0005C0 58.635 0.66025 53.4238 1.904 48.4433C3.31525 42.792 15.0982 22.2643 19.4895 18.013C26.949 10.7915 36.1605 5.36878 46.4245 2.44378C52.009 0.852279 75.6178 0.799279 81.0443 2.29503C91.5215 5.18278 100.922 10.6673 108.51 18.013C111.335 20.7475 124.139 40.608 126.096 48.4433C127.34 53.4238 128 58.635 128 64.0005Z" fill="#49BB0D"/>
<path d="M126.096 48.4432L64.4188 64.0005L126.096 79.5577C123.156 91.3302 116.956 101.812 108.511 109.988L64.2095 64.363L81.5758 125.557C75.9913 127.148 70.0953 128 64.0003 128C57.9053 128 52.0093 127.148 46.4248 125.557L63.791 64.363L19.49 109.988C11.0445 101.812 4.8443 91.3302 1.90455 79.5577L63.5818 64.0005L1.9043 48.4432C4.8443 36.6707 11.0443 26.1892 19.4898 18.0132L63.791 63.638L46.4248 2.44399C52.0093 0.852488 57.9053 0.000488281 64.0003 0.000488281C70.0953 0.000488281 75.9913 0.852488 81.5758 2.44399L64.2095 63.638L108.511 18.0132C116.956 26.1892 123.156 36.6707 126.096 48.4432Z" fill="#6AD035"/>
<path d="M118.093 69.8154L116.589 67.2774C116.556 67.2211 116.509 67.1744 116.452 67.1419L113.89 65.6798C113.638 65.5363 113.636 65.1749 113.885 65.0274L116.423 63.5241C116.479 63.4909 116.526 63.4434 116.558 63.3864L118.02 60.8246C118.164 60.5731 118.525 60.5704 118.673 60.8194L120.176 63.3574C120.209 63.4136 120.257 63.4604 120.314 63.4929L122.875 64.9549C123.127 65.0984 123.13 65.4599 122.881 65.6074L120.343 67.1106C120.286 67.1439 120.24 67.1914 120.207 67.2484L118.745 69.8101C118.602 70.0614 118.24 70.0644 118.093 69.8154ZM10.0456 82.3101L11.5076 79.7484C11.5401 79.6916 11.5868 79.6441 11.6431 79.6106L14.1811 78.1074C14.4301 77.9599 14.4273 77.5984 14.1758 77.4549L11.6141 75.9929C11.5573 75.9604 11.5098 75.9139 11.4763 75.8574L9.97307 73.3194C9.82557 73.0704 9.46407 73.0731 9.32057 73.3246L7.85857 75.8864C7.82607 75.9431 7.77932 75.9906 7.72307 76.0241L5.18507 77.5274C4.93607 77.6749 4.93882 78.0364 5.19032 78.1798L7.75207 79.6419C7.80883 79.6744 7.85632 79.7211 7.88982 79.7774L9.39307 82.3154C9.54058 82.5644 9.90207 82.5614 10.0456 82.3101Z" fill="#C0E6B1"/>
<path d="M66.2495 77.0895L57.3552 74.3472C55.376 73.737 54.2662 71.638 54.8765 69.6587L75.537 2.64623C76.1472 0.666977 78.2462 -0.442773 80.2255 0.167477L89.1197 2.90973C91.099 3.51998 92.2087 5.61898 91.5985 7.59823L70.938 74.6107C70.3277 76.59 68.2287 77.6997 66.2495 77.0895Z" fill="#FFD399"/>
<path d="M98.0447 86.8925L65.49 76.8555C63.5107 76.2453 62.401 74.1463 63.0112 72.167L83.6717 5.15453C84.282 3.17528 86.381 2.06553 88.3602 2.67578L120.915 12.7128C122.894 13.323 124.004 15.422 123.394 17.4013L102.733 84.4138C102.123 86.3928 100.024 87.5028 98.0447 86.8925Z" fill="#FFE7C0"/>
<path d="M99.7575 43.4632L91.195 38.2167C91.005 38.1002 90.788 38.0352 90.5652 38.0279L80.5285 37.7042C79.5435 37.6724 78.9595 36.5892 79.4742 35.7487L84.7207 27.1862C84.8372 26.9962 84.9022 26.7792 84.9095 26.5564L85.2335 16.5197C85.2652 15.5347 86.3485 14.9507 87.189 15.4654L95.751 20.7117C95.941 20.8282 96.158 20.8932 96.3807 20.9004L106.417 21.2242C107.402 21.2559 107.986 22.3392 107.472 23.1797L102.225 31.7422C102.109 31.9322 102.044 32.1492 102.036 32.3719L101.712 42.4087C101.681 43.3939 100.598 43.9779 99.7575 43.4632Z" fill="#FFC14F"/>
<path d="M88.0179 43.8066L85.6729 34.0421C85.6209 33.8254 85.5134 33.6259 85.3609 33.4634L78.4929 26.1374C77.8189 25.4184 78.1719 24.2394 79.1302 24.0091L88.8947 21.6641C89.1114 21.6121 89.3109 21.5046 89.4734 21.3521L96.7994 14.4841C97.5184 13.8101 98.6974 14.1631 98.9277 15.1214L101.273 24.8859C101.325 25.1026 101.432 25.3021 101.585 25.4646L108.453 32.7906C109.127 33.5096 108.774 34.6886 107.815 34.9189L98.0509 37.2639C97.8342 37.3159 97.6347 37.4234 97.4722 37.5759L90.1462 44.4439C89.4269 45.1181 88.2482 44.7649 88.0179 43.8066Z" fill="#F76937"/>
<path d="M91.4121 34.8773L90.5271 31.192C90.5074 31.1103 90.4669 31.035 90.4094 30.9735L87.8171 28.2085C87.5626 27.937 87.6959 27.4923 88.0576 27.4053L91.7429 26.5203C91.8246 26.5005 91.8999 26.46 91.9614 26.4025L94.7264 23.8103C94.9979 23.5558 95.4426 23.689 95.5296 24.0508L96.4146 27.736C96.4344 27.8178 96.4749 27.893 96.5324 27.9545L99.1246 30.7195C99.3791 30.991 99.2459 31.4358 98.8841 31.5228L95.1989 32.4078C95.1171 32.4275 95.0419 32.468 94.9804 32.5255L92.2154 35.1178C91.9441 35.3723 91.4991 35.239 91.4121 34.8773Z" fill="#D1462A"/>
<path d="M74.1149 51.9404C74.4199 50.9509 75.4696 50.3959 76.4591 50.7009L95.5739 56.5941C96.5634 56.8991 97.1184 57.9486 96.8131 58.9384C96.5081 59.9279 95.4586 60.4829 94.4689 60.1776L75.3541 54.2844C74.3646 53.9796 73.8096 52.9301 74.1149 51.9404ZM91.1541 70.9283L72.0394 65.0351C71.0499 64.7301 70.0003 65.2849 69.6951 66.2744C69.3901 67.2639 69.9448 68.3133 70.9343 68.6186L90.0491 74.5118C91.0386 74.8168 92.0881 74.2621 92.3934 73.2723C92.6986 72.2831 92.1439 71.2336 91.1541 70.9283ZM98.9311 65.4779L68.6819 56.1519C67.6924 55.8469 66.6428 56.4016 66.3376 57.3911C66.0326 58.3806 66.5873 59.4301 67.5768 59.7354L97.8261 69.0613C98.8156 69.3663 99.8651 68.8116 100.17 67.8221C100.476 66.8323 99.9209 65.7829 98.9311 65.4779Z" fill="#FFC477"/>
<path d="M69.729 98.7464L28.6268 109.869C26.6275 110.41 24.5685 109.228 24.0275 107.229L5.70927 39.5389C5.16827 37.5397 6.35027 35.4807 8.34952 34.9397L49.4518 23.8167C51.451 23.2757 53.51 24.4577 54.051 26.4569L72.369 94.1472C72.91 96.1462 71.728 98.2054 69.729 98.7464Z" fill="#F5E8B4"/>
<path d="M69.7278 98.7464L36.8436 107.645C34.8443 108.186 32.7853 107.004 32.2443 105.005L13.9261 37.3149C13.3851 35.3157 14.5671 33.2567 16.5663 32.7157L49.4503 23.8167C51.4496 23.2757 53.5086 24.4577 54.0496 26.4569L72.3676 94.1472C72.9088 96.1462 71.7268 98.2054 69.7278 98.7464Z" fill="#FFFAC1"/>
<path d="M30.8297 81.9751C30.5592 80.9756 31.1502 79.9458 32.1497 79.6753L51.4577 74.4503C52.4572 74.1798 53.4869 74.7708 53.7574 75.7703C54.0279 76.7698 53.4369 77.7996 52.4374 78.0701L33.1294 83.2951C32.1297 83.5656 31.1002 82.9746 30.8297 81.9751ZM61.3402 81.4883C61.0697 80.4888 60.0402 79.8976 59.0404 80.1681L28.4852 88.4368C27.4857 88.7073 26.8947 89.7368 27.1652 90.7366C27.4357 91.7363 28.4652 92.3271 29.4649 92.0568L60.0202 83.7881C61.0197 83.5173 61.6107 82.4878 61.3402 81.4883ZM55.3759 88.9296L36.0679 94.1546C35.0684 94.4251 34.4774 95.4546 34.7479 96.4543C35.0184 97.4538 36.0479 98.0448 37.0477 97.7743L56.3557 92.5493C57.3552 92.2788 57.9462 91.2493 57.6757 90.2496C57.4052 89.2501 56.3757 88.6591 55.3759 88.9296Z" fill="#FFCD71"/>
<path d="M42.0917 45.0779L36.4774 49.0804L34.5952 50.4224L32.2929 50.2129L25.4264 49.5879C21.3429 49.2162 19.0162 44.7412 21.0577 41.1849C23.0989 37.6289 28.1367 37.3812 30.5169 40.7199L32.8579 44.0037L33.2234 39.9874C33.5952 35.9039 38.0702 33.5772 41.6264 35.6187C45.1829 37.6599 45.4304 42.6977 42.0917 45.0779Z" fill="#F76937"/>
<path d="M36.8382 43.227C37.4249 45.2262 36.1429 47.2852 33.9752 47.8262C31.8074 48.3672 29.5744 47.1852 28.9879 45.186C28.4012 43.1867 29.6832 41.1277 31.8509 40.5867C34.0187 40.0457 36.2514 41.2277 36.8382 43.227Z" fill="#D1462A"/>
<path d="M49.9752 64.1929L28.2564 70.0704C26.9237 70.4312 25.5509 69.6429 25.1902 68.3102L20.6187 51.4179C20.2579 50.0852 21.0462 48.7124 22.3789 48.3517L29.6184 46.3924L30.0414 46.5184C32.5262 47.2584 35.2124 46.4367 36.8579 44.4334L44.0974 42.4742C45.4302 42.1134 46.8029 42.9017 47.1637 44.2344L51.7349 61.1269C52.0959 62.4594 51.3079 63.8322 49.9752 64.1929Z" fill="#FFC14F"/>
<path d="M42.7361 66.1519L35.4966 68.1111L29.6191 46.3924L36.8586 44.4331L42.7361 66.1519Z" fill="#F76937"/>
<path d="M92.4148 97.1025L93.1828 109.671L94.327 110.076C95.6285 110.537 96.3103 111.965 95.8495 113.267L95.845 113.279C95.3843 114.581 93.9555 115.263 92.654 114.802L72.3208 107.604C71.0193 107.143 70.3375 105.715 70.7983 104.413L70.8028 104.401C71.2635 103.099 72.692 102.417 73.9938 102.878L75.138 103.283L83.647 93.992C82.472 92.1187 82.1328 89.7462 82.928 87.4997C84.3103 83.595 88.5963 81.5502 92.5008 82.9325C96.4053 84.3147 98.4503 88.6007 97.068 92.5052C96.2713 94.7552 94.5108 96.3875 92.4148 97.1025Z" fill="#D1462A"/>
<path d="M92.6244 114.8L81.0766 110.712C79.7751 110.251 79.0934 108.823 79.5541 107.521C80.0149 106.22 81.4434 105.538 82.7451 105.999L94.2929 110.086C95.5944 110.547 96.2761 111.976 95.8154 113.277C95.3546 114.579 93.9259 115.261 92.6244 114.8ZM92.3896 97.1114C90.8546 97.6289 89.1416 97.6549 87.4961 97.0724C86.8144 96.8311 86.1894 96.5011 85.6294 96.1001L84.2061 97.6541C81.8651 100.21 82.8924 104.327 86.1599 105.484C89.4274 106.64 92.8159 104.087 92.6044 100.627L92.3896 97.1114ZM92.5016 82.9324C91.5916 82.6104 90.6611 82.4744 89.7514 82.5046C89.1554 83.1926 88.6756 84.0016 88.3534 84.9116C86.9711 88.8164 89.0161 93.1021 92.9206 94.4844C93.8306 94.8064 94.7611 94.9424 95.6709 94.9121C96.2669 94.2241 96.7466 93.4151 97.0689 92.5051C98.4511 88.6004 96.4064 84.3146 92.5016 82.9324Z" fill="#F76937"/>
<path d="M60.9457 102.815C63.256 103.805 65.4752 104.845 67.58 105.916C68.7507 106.511 69.3007 107.886 68.8635 109.125C68.0777 111.352 67.188 113.635 66.1977 115.946C65.2075 118.256 64.1677 120.475 63.097 122.58C62.5015 123.751 61.1267 124.301 59.888 123.863C57.661 123.078 55.3775 122.188 53.0672 121.198C50.757 120.207 48.5377 119.168 46.433 118.097C45.2622 117.501 44.7122 116.127 45.1495 114.888C45.9352 112.661 46.825 110.377 47.8152 108.067C48.8055 105.757 49.8452 103.538 50.916 101.433C51.5115 100.262 52.8862 99.7122 54.125 100.149C56.3517 100.935 58.6352 101.825 60.9457 102.815Z" fill="#CECECE"/>
<path d="M68.8637 109.125C68.078 111.352 67.1882 113.636 66.198 115.946C66.1902 115.965 66.1825 115.983 66.1747 116.001C64.9252 118.912 61.543 120.25 58.631 119.002L54.5037 117.233C51.554 115.969 50.1877 112.553 51.4517 109.604L53.0932 105.773C54.354 102.832 57.7577 101.458 60.7022 102.712C60.7832 102.746 60.8645 102.781 60.9457 102.816C63.2562 103.806 65.4752 104.846 67.5802 105.917C68.751 106.512 69.301 107.887 68.8637 109.125Z" fill="#E7E7E7"/>
<path d="M64.9288 110.392C64.4993 111.394 63.339 111.858 62.3373 111.428C61.3353 110.999 60.8713 109.838 61.3006 108.837C61.7301 107.835 62.8903 107.371 63.892 107.8C64.894 108.23 65.3583 109.39 64.9288 110.392ZM56.3421 106.712C56.7716 105.71 56.3073 104.549 55.3056 104.12C54.3036 103.691 53.1433 104.155 52.7141 105.157C52.2846 106.159 52.7488 107.319 53.7508 107.748C54.7526 108.178 55.9128 107.714 56.3421 106.712ZM51.6773 112.586C50.6753 112.156 49.5151 112.621 49.0858 113.622C48.6566 114.624 49.1206 115.785 50.1226 116.214C51.1246 116.643 52.2848 116.179 52.7141 115.177C53.1433 114.176 52.6793 113.015 51.6773 112.586ZM60.264 116.266C59.262 115.836 58.1018 116.301 57.6726 117.302C57.2431 118.304 57.7073 119.465 58.7093 119.894C59.7113 120.323 60.8715 119.859 61.3008 118.857C61.73 117.856 61.2658 116.695 60.264 116.266ZM58.8213 112.785C59.2508 111.783 58.7865 110.622 57.7845 110.193C56.7826 109.764 55.6223 110.228 55.1931 111.23C54.7638 112.231 55.2278 113.392 56.2296 113.821C57.2318 114.251 58.3921 113.786 58.8213 112.785Z" fill="#464646"/>
<path d="M47.5278 14.1816L46.0246 11.6436C45.9913 11.5873 45.9438 11.5406 45.8868 11.5081L43.3251 10.0461C43.0736 9.90256 43.0708 9.54106 43.3198 9.39356L45.8578 7.89031C45.9141 7.85706 45.9608 7.80956 45.9933 7.75256L47.4553 5.19081C47.5988 4.93931 47.9603 4.93656 48.1078 5.18556L49.6111 7.72356C49.6443 7.77981 49.6918 7.82656 49.7488 7.85906L52.3106 9.32106C52.5621 9.46456 52.5648 9.82606 52.3158 9.97356L49.7778 11.4768C49.7216 11.5101 49.6748 11.5576 49.6423 11.6146L48.1803 14.1763C48.0368 14.4278 47.6753 14.4308 47.5278 14.1816ZM120.68 94.1763L122.142 91.6146C122.175 91.5578 122.222 91.5103 122.278 91.4768L124.816 89.9736C125.065 89.8261 125.062 89.4646 124.811 89.3211L122.249 87.8591C122.192 87.8266 122.145 87.7798 122.111 87.7236L120.608 85.1856C120.46 84.9366 120.099 84.9393 119.955 85.1908L118.493 87.7526C118.461 87.8093 118.414 87.8568 118.358 87.8903L115.82 89.3936C115.571 89.5411 115.574 89.9026 115.825 90.0461L118.387 91.5081C118.444 91.5406 118.491 91.5871 118.525 91.6436L120.028 94.1816C120.175 94.4308 120.537 94.4278 120.68 94.1763Z" fill="#FFC14F"/>
<path d="M59.5771 22.2058L57.1821 18.1626C57.1289 18.0728 57.0534 17.9986 56.9629 17.9468L52.8814 15.6176C52.4809 15.3891 52.4761 14.8131 52.8729 14.5781L56.9161 12.1831C57.0059 12.1298 57.0801 12.0543 57.1319 11.9638L59.4611 7.88234C59.6896 7.48184 60.2656 7.47709 60.5006 7.87384L62.8956 11.9171C62.9489 12.0068 63.0244 12.0811 63.1149 12.1328L67.1964 14.4621C67.5969 14.6906 67.6016 15.2666 67.2049 15.5016L63.1616 17.8966C63.0719 17.9498 62.9976 18.0253 62.9459 18.1158L60.6166 22.1973C60.3881 22.5978 59.8121 22.6026 59.5771 22.2058Z" fill="#FFF5F5"/>
</svg>
