<svg width="62" height="60" viewBox="0 0 62 60" fill="none" xmlns="http://www.w3.org/2000/svg">
<path d="M60.7047 2.77664L38.0343 19.1661L34.3143 21.8617C32.3437 23.3176 29.6537 23.3176 27.683 21.8617L23.963 19.1661L1.26562 2.80355C2.52807 1.03807 4.56738 -0.00679015 6.73784 3.3214e-05H55.2595C57.4141 0.00192859 59.4378 1.0339 60.7047 2.77664Z" fill="#E8EAFC"/>
<path d="M1.26706 2.80444L23.9645 19.167L1.96797 41.1635C0.704887 39.8973 -0.00310011 38.1808 5.88561e-05 36.3922V6.74013C-0.00588 5.32694 0.437765 3.94862 1.26706 2.80444Z" fill="#D7DBF7"/>
<path d="M61.9994 6.73995V36.3921C62.0026 38.1808 61.2947 39.8972 60.0316 41.1634L38.0352 19.1669L60.7055 2.77734C61.5472 3.92695 62.0003 5.315 61.9994 6.73995Z" fill="#D7DBF7"/>
<path d="M40.4366 48.5222C38.6468 48.5222 37.741 47.1744 37.741 44.4788C37.7851 40.7124 34.7677 37.6235 31.0013 37.5794C27.2349 37.5354 24.1461 40.5528 24.102 44.3192C24.0579 48.0855 27.0753 51.1744 30.8417 51.2185C32.8603 51.2421 34.7856 50.3702 36.0994 48.8376C36.9944 50.3714 38.6622 51.2866 40.4366 51.2178C45.828 51.2178 45.828 46.1447 45.828 44.4788C45.8281 36.2906 39.1904 29.6526 31.0022 29.6523C22.814 29.6521 16.176 36.29 16.1758 44.4783C16.1757 52.6664 22.8134 59.3044 31.0016 59.3047C34.8485 59.3048 38.545 57.8095 41.31 55.1348C41.8453 54.6137 41.8566 53.7575 41.3357 53.2223C40.8146 52.687 39.9584 52.6756 39.4231 53.1966C34.6011 57.8475 26.9218 57.7088 22.2709 52.8868C17.6201 48.0648 17.7588 40.3855 22.5808 35.7346C27.4027 31.0837 35.0821 31.2225 39.7329 36.0444C41.9169 38.3088 43.1358 41.3331 43.1324 44.4789C43.1324 47.5006 42.4531 48.5222 40.4366 48.5222ZM31.0019 48.5222C28.7688 48.5222 26.9585 46.7119 26.9585 44.4788C26.9585 42.2456 28.7688 40.4353 31.0019 40.4353C33.2351 40.4353 35.0454 42.2456 35.0454 44.4788C35.0454 46.7119 33.2351 48.5222 31.0019 48.5222Z" fill="#6AD035"/>
<path d="M38.0366 19.166L34.3166 21.8616C32.3459 23.3175 29.6559 23.3175 27.6853 21.8616L23.9653 19.166L1.96875 41.1625C3.23499 42.4256 4.95144 43.1336 6.74005 43.1303H13.5465C14.2757 33.4913 22.6807 26.2684 32.3198 26.9976C40.945 27.6501 47.8 34.5052 48.4525 43.1303H55.2618C57.0504 43.1335 58.7668 42.4256 60.0331 41.1625L38.0366 19.166Z" fill="#BEC2DF"/>
</svg>
