<svg width="64" height="64" viewBox="0 0 64 64" fill="none" xmlns="http://www.w3.org/2000/svg">
<path d="M24.0239 0.876953H39.977V6.65945C39.977 7.22348 39.7529 7.76441 39.3542 8.16329C38.9554 8.56216 38.4145 8.78631 37.8505 8.78645H26.1504C25.5863 8.78645 25.0453 8.56235 24.6464 8.16346C24.2475 7.76457 24.0234 7.22356 24.0234 6.65945V0.876953H24.0239Z" fill="#696E87"/>
<path d="M13.8605 47.0571H11.0155C7.23646 47.057 3.6035 45.5973 0.875 42.9826V29.5901C3.6035 26.9755 7.23646 25.5157 11.0155 25.5156H13.8605V47.0571Z" fill="#696E87"/>
<path d="M16.1319 50.4321C15.5292 50.4321 14.9512 50.1927 14.525 49.7665C14.0988 49.3404 13.8594 48.7623 13.8594 48.1596V24.4131C13.8594 23.8104 14.0988 23.2323 14.5249 22.8061C14.9511 22.3798 15.5291 22.1403 16.1319 22.1401C16.7346 22.1403 17.3126 22.3798 17.7388 22.8061C18.165 23.2323 18.4044 23.8104 18.4044 24.4131V48.1596C18.4044 48.7623 18.165 49.3404 17.7388 49.7665C17.3126 50.1927 16.7346 50.4321 16.1319 50.4321Z" fill="#6DD338"/>
<path d="M9.40269 29.8945H13.8597V42.6801H9.40269C8.86284 42.6801 8.3451 42.4656 7.96337 42.0839C7.58164 41.7021 7.36719 41.1844 7.36719 40.6446V31.93C7.36719 31.3902 7.58164 30.8724 7.96337 30.4907C8.3451 30.109 8.86284 29.8945 9.40269 29.8945Z" fill="#313549"/>
<path d="M24.022 0.876953H18.533C14.8678 0.881055 11.3537 2.33876 8.76181 4.93032C6.16988 7.52187 4.71166 11.0357 4.70703 14.701V26.9465C6.37595 26.1508 8.18036 25.6782 10.025 25.5535V14.701C10.0281 12.4456 10.9255 10.2834 12.5204 8.68878C14.1154 7.09412 16.2776 6.1971 18.533 6.19445H24.022V0.876953Z" fill="#D7DBF7"/>
<path d="M50.1406 47.0571H52.9856C56.7647 47.057 60.3976 45.5973 63.1261 42.9826V29.5901C60.3976 26.9755 56.7647 25.5157 52.9856 25.5156H50.1406V47.0571Z" fill="#696E87"/>
<path d="M47.8662 50.4321C48.469 50.4321 49.047 50.1927 49.4731 49.7665C49.8993 49.3404 50.1387 48.7623 50.1387 48.1596V24.4131C50.1387 23.8104 49.8993 23.2323 49.4732 22.8061C49.047 22.3798 48.469 22.1403 47.8662 22.1401C47.2635 22.1403 46.6855 22.3798 46.2593 22.8061C45.8332 23.2323 45.5937 23.8104 45.5938 24.4131V48.1596C45.5938 48.7623 45.8332 49.3404 46.2593 49.7665C46.6855 50.1927 47.2635 50.4321 47.8662 50.4321Z" fill="#6DD338"/>
<path d="M54.5973 42.6797H50.1403V29.8942H54.5973C55.1372 29.8942 55.6549 30.1086 56.0366 30.4904C56.4184 30.8721 56.6328 31.3898 56.6328 31.9297V40.6442C56.6328 41.184 56.4184 41.7018 56.0366 42.0835C55.6549 42.4652 55.1372 42.6797 54.5973 42.6797Z" fill="#313549"/>
<path d="M45.4656 0.876953H39.9766V6.19445H45.4656C47.721 6.1971 49.8832 7.09412 51.4782 8.68878C53.0731 10.2834 53.9705 12.4456 53.9736 14.701V25.551C55.8182 25.6757 57.6226 26.1483 59.2916 26.944V14.701C59.2869 11.0357 57.8287 7.52187 55.2368 4.93032C52.6448 2.33876 49.1308 0.881055 45.4656 0.876953Z" fill="#D7DBF7"/>
<path d="M36.6602 56.1267H44.4102C44.9406 56.1267 45.4493 56.3374 45.8244 56.7125C46.1994 57.0876 46.4102 57.5963 46.4102 58.1267V61.1267C46.4102 61.6571 46.1994 62.1659 45.8244 62.5409C45.4493 62.916 44.9406 63.1267 44.4102 63.1267H36.6602C35.9971 63.1267 35.3612 62.8633 34.8924 62.3945C34.4236 61.9256 34.1602 61.2898 34.1602 60.6267V58.6267C34.1602 57.9637 34.4236 57.3278 34.8924 56.8589C35.3612 56.3901 35.9971 56.1267 36.6602 56.1267Z" fill="white"/>
<path d="M55.9348 46.7543V54.1263C55.9338 55.0542 55.5647 55.9438 54.9085 56.6C54.2524 57.2561 53.3628 57.6252 52.4348 57.6263H46.3403C46.3851 57.7893 46.409 57.9573 46.4113 58.1263V61.1263C46.409 61.2953 46.385 61.4634 46.3398 61.6263H52.4348C54.4233 61.6242 56.3297 60.8333 57.7358 59.4272C59.1419 58.0212 59.9327 56.1147 59.9348 54.1263V45.3013C58.6794 45.9778 57.3318 46.4673 55.9348 46.7543Z" fill="#D7DBF7"/>
<path d="M35.5625 5.70727H28.4375C28.2054 5.70727 27.9829 5.61508 27.8188 5.45099C27.6547 5.2869 27.5625 5.06434 27.5625 4.83227C27.5625 4.60021 27.6547 4.37765 27.8188 4.21356C27.9829 4.04946 28.2054 3.95728 28.4375 3.95728H35.5625C35.7946 3.95728 36.0171 4.04946 36.1812 4.21356C36.3453 4.37765 36.4375 4.60021 36.4375 4.83227C36.4375 5.06434 36.3453 5.2869 36.1812 5.45099C36.0171 5.61508 35.7946 5.70727 35.5625 5.70727Z" fill="#313549"/>
<path d="M39.4673 45.1281C40.7479 43.3636 41.3664 41.2044 41.2142 39.0295C41.062 36.8545 40.1489 34.8025 38.635 33.2335C37.1212 31.6644 35.1032 30.6784 32.9351 30.4485C30.7669 30.2186 28.587 30.7593 26.7777 31.9759C24.9684 33.1925 23.6452 35.0073 23.0402 37.102C22.4352 39.1967 22.587 41.4375 23.469 43.4314C24.351 45.4254 25.9069 47.0451 27.8637 48.0066C29.8206 48.9681 32.0535 49.2099 34.1708 48.6896L39.4673 52.0956V45.1281Z" fill="#6DD338"/>
<path d="M33.8362 37.2847H28.7187C28.4867 37.2847 28.2641 37.1925 28.1 37.0284C27.9359 36.8643 27.8438 36.6417 27.8438 36.4097C27.8438 36.1776 27.9359 35.955 28.1 35.7909C28.2641 35.6269 28.4867 35.5347 28.7187 35.5347H33.8362C34.0683 35.5347 34.2908 35.6269 34.4549 35.7909C34.619 35.955 34.7112 36.1776 34.7112 36.4097C34.7112 36.6417 34.619 36.8643 34.4549 37.0284C34.2908 37.1925 34.0683 37.2847 33.8362 37.2847Z" fill="white"/>
<path d="M37.2205 40.615H26.793C26.5609 40.615 26.3383 40.5228 26.1742 40.3587C26.0102 40.1946 25.918 39.9721 25.918 39.74C25.918 39.5079 26.0102 39.2854 26.1742 39.1213C26.3383 38.9572 26.5609 38.865 26.793 38.865H37.2205C37.4525 38.865 37.6751 38.9572 37.8392 39.1213C38.0033 39.2854 38.0955 39.5079 38.0955 39.74C38.0955 39.9721 38.0033 40.1946 37.8392 40.3587C37.6751 40.5228 37.4525 40.615 37.2205 40.615Z" fill="white"/>
<path d="M37.2188 44.283H28.5938C28.3617 44.283 28.1391 44.1908 27.975 44.0267C27.8109 43.8626 27.7188 43.64 27.7188 43.408C27.7188 43.1759 27.8109 42.9533 27.975 42.7892C28.1391 42.6251 28.3617 42.533 28.5938 42.533H37.2188C37.4508 42.533 37.6734 42.6251 37.8375 42.7892C38.0016 42.9533 38.0938 43.1759 38.0938 43.408C38.0938 43.64 38.0016 43.8626 37.8375 44.0267C37.6734 44.1908 37.4508 44.283 37.2188 44.283Z" fill="white"/>
</svg>
