<svg width="997" height="412" viewBox="0 0 997 412" fill="none" xmlns="http://www.w3.org/2000/svg">
<path d="M297.595 111.001C365.108 130.867 439.5 237.977 499.5 122.988C559.5 7.99921 688.5 70.501 750 111.001C811.5 151.502 721 193.003 783.5 215.501C846 237.999 861.241 323.48 814.208 371.19C747.337 439.024 650.5 290.56 522.691 290.56C394.881 290.56 359.991 391.489 297.595 371.19C225.375 347.696 175.972 292.457 155.966 237.999C125.089 153.949 164.236 71.7592 297.595 111.001Z" fill="#1B1E2E"/>
<path d="M418.625 293.126H414.718L412.843 337.751C412.796 339.335 412.168 340.847 411.079 341.999C409.99 343.152 408.516 343.864 406.937 344.001L367.406 347.501C366.473 347.589 365.531 347.473 364.647 347.162C363.763 346.85 362.957 346.35 362.285 345.696C361.614 345.042 361.092 344.25 360.757 343.375C360.421 342.499 360.28 341.561 360.343 340.626L362.75 294.376L308.406 295.626C307.451 295.649 306.503 295.46 305.629 295.073C304.756 294.686 303.979 294.11 303.354 293.387C302.73 292.664 302.273 291.812 302.017 290.891C301.762 289.971 301.713 289.005 301.875 288.063L316.906 198.938C317.154 197.45 317.914 196.095 319.055 195.107C320.197 194.12 321.647 193.563 323.156 193.532H353.937C354.875 193.549 355.798 193.769 356.642 194.178C357.486 194.587 358.231 195.174 358.826 195.899C359.42 196.625 359.85 197.471 360.085 198.378C360.32 199.286 360.355 200.235 360.187 201.157L349.031 264.813L364.406 264.345L368.531 182.22C368.588 180.542 369.294 178.953 370.501 177.786C371.708 176.62 373.321 175.969 375 175.97H412.5C413.373 175.969 414.238 176.145 415.042 176.488C415.846 176.83 416.572 177.332 417.176 177.963C417.781 178.593 418.251 179.34 418.559 180.158C418.867 180.975 419.006 181.847 418.968 182.72L415.843 262.501H418.125C418.985 262.455 419.845 262.581 420.656 262.871C421.466 263.162 422.21 263.612 422.845 264.194C423.479 264.776 423.991 265.479 424.351 266.261C424.71 267.044 424.909 267.89 424.937 268.751V286.595C424.954 288.294 424.301 289.932 423.12 291.155C421.939 292.377 420.324 293.085 418.625 293.126Z" fill="#696E87"/>
<path d="M668.625 158.751H664.718L662.843 203.376C662.796 204.96 662.168 206.472 661.079 207.624C659.99 208.777 658.516 209.489 656.937 209.626L617.406 213.126C616.473 213.214 615.531 213.098 614.647 212.787C613.763 212.475 612.957 211.975 612.285 211.321C611.614 210.667 611.092 209.875 610.757 209C610.421 208.124 610.28 207.186 610.343 206.251L612.75 159.907L558.406 161.126C557.451 161.149 556.503 160.96 555.629 160.573C554.756 160.186 553.979 159.61 553.354 158.887C552.73 158.164 552.273 157.312 552.017 156.391C551.762 155.471 551.713 154.505 551.875 153.563L566.906 64.4697C567.154 62.981 567.914 61.6258 569.055 60.6385C570.197 59.6512 571.647 59.0941 573.156 59.0635H603.937C604.875 59.0801 605.798 59.3003 606.642 59.7091C607.486 60.1178 608.231 60.7052 608.826 61.4305C609.42 62.1558 609.85 63.0018 610.085 63.9097C610.32 64.8176 610.355 65.7658 610.187 66.6885L599.031 130.438L614.406 129.97L618.531 47.8447C618.588 46.1673 619.294 44.5776 620.501 43.4114C621.708 42.2452 623.321 41.5938 625 41.5947H662.5C663.373 41.5939 664.238 41.7701 665.042 42.1126C665.846 42.4551 666.572 42.9569 667.176 43.5877C667.781 44.2185 668.251 44.9652 668.559 45.7828C668.867 46.6004 669.006 47.4719 668.968 48.3447L665.843 128.001H668.125C668.995 127.955 669.865 128.084 670.684 128.383C671.503 128.681 672.253 129.142 672.889 129.737C673.525 130.333 674.035 131.05 674.387 131.848C674.738 132.645 674.926 133.505 674.937 134.376V152.22C674.954 153.919 674.301 155.557 673.12 156.78C671.939 158.002 670.324 158.71 668.625 158.751Z" fill="#696E87"/>
<path d="M525.969 170.751L528.126 172.251C537.129 178.881 543.435 188.54 545.881 199.45C548.328 210.361 546.75 221.787 541.438 231.626C536.788 240.295 528.885 246.762 519.467 249.605C510.05 252.447 499.889 251.432 491.219 246.783C484.283 243.06 479.11 236.736 476.836 229.199C474.562 221.663 475.374 213.533 479.094 206.595C480.567 203.845 482.567 201.413 484.981 199.436C487.394 197.459 490.173 195.977 493.159 195.075C496.145 194.172 499.28 193.867 502.384 194.176C505.488 194.485 508.501 195.403 511.251 196.876C515.687 199.261 518.996 203.309 520.45 208.132C521.903 212.954 521.382 218.157 519.001 222.595C518.062 224.357 516.785 225.916 515.243 227.183C513.701 228.451 511.925 229.402 510.015 229.983C508.105 230.563 506.1 230.761 504.113 230.566C502.127 230.371 500.198 229.786 498.438 228.845C497.03 228.091 495.784 227.066 494.772 225.83C493.76 224.594 493.001 223.17 492.54 221.641C492.078 220.111 491.923 218.506 492.082 216.916C492.242 215.326 492.713 213.784 493.469 212.376C494.688 210.106 496.759 208.412 499.226 207.668C501.693 206.924 504.354 207.19 506.626 208.408C508.434 209.392 509.778 211.054 510.364 213.028C510.949 215.002 510.729 217.127 509.751 218.939C508.963 220.389 507.634 221.47 506.053 221.944C504.473 222.418 502.769 222.248 501.313 221.47C500.735 221.162 500.224 220.742 499.808 220.236C499.393 219.729 499.082 219.145 498.893 218.518C498.704 217.89 498.642 217.232 498.708 216.58C498.775 215.928 498.97 215.296 499.282 214.72C499.514 214.251 499.837 213.833 500.232 213.489C500.627 213.145 501.086 212.883 501.583 212.717C502.08 212.552 502.604 212.486 503.126 212.524C503.649 212.562 504.158 212.703 504.626 212.939C505.001 213.13 505.334 213.394 505.605 213.716C505.875 214.039 506.078 214.413 506.201 214.816C506.323 215.218 506.363 215.642 506.318 216.06C506.273 216.479 506.144 216.884 505.938 217.251" stroke="#6AD035" stroke-width="4" stroke-miterlimit="10" stroke-linecap="round"/>
<path d="M464 284.375C450.246 273.942 440.668 258.943 436.99 242.077C433.312 225.211 435.776 207.586 443.937 192.375C450.251 180.62 460.426 171.403 472.745 166.279C485.065 161.156 498.775 160.439 511.562 164.25" stroke="#6AD035" stroke-width="3" stroke-miterlimit="10" stroke-linecap="round"/>
<path d="M535.5 299.186C521.964 302.114 507.936 301.889 494.5 298.53" stroke="#6AD035" stroke-width="3" stroke-miterlimit="10" stroke-linecap="round" stroke-dasharray="0.09 8.71"/>
<path d="M596.25 253.467C590.866 263.528 583.623 272.478 574.906 279.842" stroke="#6AD035" stroke-width="3" stroke-miterlimit="10" stroke-linecap="round"/>
<path d="M484.375 265.874C473.548 260.059 465.472 250.184 461.921 238.418C458.37 226.652 459.635 213.958 465.438 203.124C470.087 194.455 477.99 187.988 487.408 185.146C496.826 182.304 506.987 183.319 515.656 187.968C522.584 191.69 527.752 198.009 530.025 205.538C532.298 213.067 531.491 221.19 527.781 228.124C524.801 233.672 519.739 237.81 513.709 239.627C507.679 241.443 501.174 240.79 495.625 237.812C491.188 235.428 487.879 231.379 486.426 226.557C484.973 221.734 485.494 216.531 487.875 212.093C488.814 210.332 490.091 208.772 491.633 207.505C493.174 206.237 494.951 205.286 496.861 204.706C498.77 204.125 500.776 203.927 502.762 204.122C504.749 204.317 506.677 204.902 508.438 205.843C509.846 206.597 511.092 207.622 512.104 208.858C513.116 210.094 513.874 211.518 514.336 213.047C514.797 214.577 514.953 216.182 514.793 217.772C514.634 219.362 514.162 220.904 513.406 222.312C512.188 224.582 510.117 226.276 507.65 227.02C505.183 227.764 502.521 227.498 500.25 226.28C498.442 225.296 497.098 223.634 496.512 221.66C495.926 219.686 496.147 217.561 497.125 215.749C497.912 214.299 499.241 213.219 500.822 212.744C502.403 212.27 504.107 212.44 505.563 213.218C506.141 213.526 506.652 213.946 507.067 214.452C507.483 214.959 507.794 215.543 507.982 216.17C508.171 216.798 508.234 217.456 508.167 218.108C508.101 218.76 507.906 219.392 507.594 219.968C507.348 220.432 507.012 220.842 506.606 221.175C506.201 221.509 505.733 221.758 505.23 221.909C504.727 222.06 504.199 222.11 503.677 222.056C503.155 222.002 502.649 221.844 502.188 221.593C501.812 221.402 501.479 221.138 501.208 220.815C500.938 220.493 500.735 220.119 500.612 219.716C500.49 219.314 500.45 218.89 500.495 218.472C500.54 218.053 500.669 217.648 500.875 217.28" stroke="#6AD035" stroke-width="4" stroke-miterlimit="10" stroke-linecap="round"/>
<path d="M479.625 133.968C498.086 131.742 516.784 135.278 533.156 144.093C541.55 148.581 548.976 154.68 555.011 162.04C561.046 169.4 565.572 177.877 568.329 186.987C571.086 196.097 572.02 205.661 571.079 215.133C570.138 224.604 567.34 233.797 562.844 242.187C557.162 252.784 548.326 261.352 537.56 266.704C526.793 272.057 514.628 273.929 502.75 272.062" stroke="#6AD035" stroke-width="3" stroke-miterlimit="10" stroke-linecap="round"/>
<path d="M439 149.405C442.901 146.712 447.007 144.33 451.281 142.28" stroke="#6AD035" stroke-width="4" stroke-miterlimit="10" stroke-linecap="round" stroke-dasharray="0.09 8.92"/>
<path d="M502.813 240.407C515.895 240.407 526.5 230.011 526.5 217.188C526.5 204.365 515.895 193.969 502.813 193.969C489.73 193.969 479.125 204.365 479.125 217.188C479.125 230.011 489.73 240.407 502.813 240.407Z" fill="url(#paint0_radial)" stroke="#B3FF8B" stroke-width="6" stroke-linecap="round" stroke-linejoin="round"/>
<path d="M461.562 185.938C468.466 185.938 474.062 180.341 474.062 173.438C474.062 166.534 468.466 160.938 461.562 160.938C454.659 160.938 449.062 166.534 449.062 173.438C449.062 180.341 454.659 185.938 461.562 185.938Z" fill="white"/>
<path d="M412.876 254.156L414.344 250.406C414.433 250.167 414.593 249.961 414.802 249.815C415.012 249.669 415.261 249.591 415.516 249.591C415.771 249.591 416.02 249.669 416.23 249.815C416.439 249.961 416.599 250.167 416.688 250.406L418.157 254.156C418.727 255.563 419.574 256.842 420.648 257.915C421.722 258.989 423 259.836 424.407 260.406L428.157 261.875C428.396 261.964 428.602 262.124 428.748 262.333C428.894 262.543 428.972 262.792 428.972 263.047C428.972 263.302 428.894 263.551 428.748 263.761C428.602 263.97 428.396 264.13 428.157 264.219L424.407 265.688C423 266.258 421.722 267.105 420.648 268.179C419.574 269.252 418.727 270.531 418.157 271.938L416.688 275.688C416.599 275.927 416.439 276.133 416.23 276.279C416.02 276.425 415.771 276.503 415.516 276.503C415.261 276.503 415.012 276.425 414.802 276.279C414.593 276.133 414.433 275.927 414.344 275.688L412.876 271.938C412.305 270.531 411.458 269.252 410.384 268.179C409.311 267.105 408.033 266.258 406.626 265.688L402.876 264.219C402.636 264.13 402.43 263.97 402.284 263.761C402.139 263.551 402.061 263.302 402.061 263.047C402.061 262.792 402.139 262.543 402.284 262.333C402.43 262.124 402.636 261.964 402.876 261.875L406.626 260.406C408.033 259.836 409.311 258.989 410.384 257.915C411.458 256.842 412.305 255.563 412.876 254.156Z" fill="white"/>
<path d="M582.751 150.842L584.219 147.092C584.308 146.853 584.468 146.647 584.677 146.501C584.887 146.355 585.136 146.277 585.391 146.277C585.646 146.277 585.895 146.355 586.105 146.501C586.314 146.647 586.474 146.853 586.563 147.092L588.032 150.842C588.602 152.249 589.449 153.528 590.523 154.601C591.597 155.675 592.875 156.522 594.282 157.092L598.032 158.561C598.271 158.65 598.477 158.81 598.623 159.019C598.769 159.229 598.847 159.478 598.847 159.733C598.847 159.988 598.769 160.237 598.623 160.447C598.477 160.656 598.271 160.816 598.032 160.905L594.282 162.374C592.875 162.944 591.597 163.791 590.523 164.865C589.449 165.938 588.602 167.217 588.032 168.624L586.563 172.374C586.474 172.613 586.314 172.819 586.105 172.965C585.895 173.111 585.646 173.189 585.391 173.189C585.136 173.189 584.887 173.111 584.677 172.965C584.468 172.819 584.308 172.613 584.219 172.374L582.751 168.967C582.18 167.56 581.333 166.282 580.259 165.209C579.186 164.135 577.908 163.288 576.501 162.717L572.751 161.249C572.511 161.16 572.305 161 572.159 160.79C572.014 160.581 571.936 160.332 571.936 160.077C571.936 159.822 572.014 159.573 572.159 159.363C572.305 159.154 572.511 158.994 572.751 158.905L576.501 157.436C577.94 156.827 579.239 155.927 580.315 154.792C581.39 153.658 582.219 152.313 582.751 150.842Z" fill="white"/>
<path d="M587.781 303.842C590.543 303.842 592.781 301.604 592.781 298.842C592.781 296.081 590.543 293.842 587.781 293.842C585.02 293.842 582.781 296.081 582.781 298.842C582.781 301.604 585.02 303.842 587.781 303.842Z" fill="white"/>
<path d="M420.313 203.873C423.074 203.873 425.312 201.634 425.312 198.873C425.312 196.112 423.074 193.873 420.313 193.873C417.551 193.873 415.312 196.112 415.312 198.873C415.312 201.634 417.551 203.873 420.313 203.873Z" fill="white"/>
<path d="M556.125 136.374C558.886 136.374 561.125 134.135 561.125 131.374C561.125 128.613 558.886 126.374 556.125 126.374C553.364 126.374 551.125 128.613 551.125 131.374C551.125 134.135 553.364 136.374 556.125 136.374Z" fill="white"/>
<ellipse cx="510" cy="331" rx="34" ry="16" fill="#1B1E2E"/>
<circle cx="958" cy="373" r="39" fill="#1B1E2E"/>
<circle cx="39" cy="205" r="39" fill="#1B1E2E"/>
<circle cx="942" cy="289" r="16" fill="#1B1E2E"/>
<circle cx="99" cy="133" r="16" fill="#1B1E2E"/>
<circle cx="807" cy="184" r="16" fill="#1B1E2E"/>
<defs>
<radialGradient id="paint0_radial" cx="0" cy="0" r="1" gradientUnits="userSpaceOnUse" gradientTransform="translate(502.813 217.188) rotate(90) scale(23.2188 23.6875)">
<stop stop-color="#96FC61"/>
<stop offset="1" stop-color="#6DD338"/>
</radialGradient>
</defs>
</svg>
