<svg width="58" height="64" viewBox="0 0 58 64" fill="none" xmlns="http://www.w3.org/2000/svg">
<path d="M43.6791 64H14.3188C11.4741 64 9.16797 61.6939 9.16797 58.8491V5.15088C9.16797 2.30613 11.4741 0 14.3188 0H43.679C46.5237 0 48.8298 2.30613 48.8298 5.15088V58.8491C48.83 61.6939 46.5238 64 43.6791 64Z" fill="#D7DBF7"/>
<path d="M38.4579 4.89353C38.4579 5.85503 37.6785 6.63441 36.717 6.63441H21.2812C20.3197 6.63441 19.5404 5.85503 19.5404 4.89353C19.5404 4.32453 19.0791 3.86341 18.5102 3.86341H14.9629C13.8961 3.86341 13.0312 4.72816 13.0312 5.79503V58.2055C13.0312 59.2723 13.896 60.1372 14.9629 60.1372H43.0354C44.1021 60.1372 44.967 59.2724 44.967 58.2055V5.79491C44.967 4.72816 44.1022 3.86328 43.0354 3.86328H39.488C38.9191 3.86328 38.4579 4.32453 38.4579 4.89353Z" fill="#696E87"/>
<path d="M29.0009 4.28306C29.5343 4.28306 29.9666 3.85068 29.9666 3.31731C29.9666 2.78394 29.5343 2.35156 29.0009 2.35156C28.4675 2.35156 28.0352 2.78394 28.0352 3.31731C28.0352 3.85068 28.4675 4.28306 29.0009 4.28306Z" fill="#335E80"/>
<path d="M19.1947 27.0414C20.7649 25.158 21.681 22.7106 21.5895 20.0463C21.402 14.5806 16.9247 10.1639 11.4571 10.0466C5.58048 9.92063 0.785854 14.6861 0.864229 20.5521C0.940354 26.2446 5.67598 30.7765 11.369 30.7765H20.8452C21.3041 30.7765 21.534 30.2216 21.2095 29.8971L19.228 27.9156C18.9902 27.6779 18.9792 27.2999 19.1947 27.0414Z" fill="#313549"/>
<path d="M11.2275 21.3761C11.7608 21.3761 12.1932 20.9437 12.1932 20.4103C12.1932 19.877 11.7608 19.4446 11.2275 19.4446C10.6941 19.4446 10.2617 19.877 10.2617 20.4103C10.2617 20.9437 10.6941 21.3761 11.2275 21.3761Z" fill="white"/>
<path d="M15.0907 21.3761C15.6241 21.3761 16.0565 20.9437 16.0565 20.4103C16.0565 19.877 15.6241 19.4446 15.0907 19.4446C14.5574 19.4446 14.125 19.877 14.125 20.4103C14.125 20.9437 14.5574 21.3761 15.0907 21.3761Z" fill="white"/>
<path d="M7.36419 21.3761C7.89756 21.3761 8.32994 20.9437 8.32994 20.4103C8.32994 19.877 7.89756 19.4446 7.36419 19.4446C6.83082 19.4446 6.39844 19.877 6.39844 20.4103C6.39844 20.9437 6.83082 21.3761 7.36419 21.3761Z" fill="white"/>
<path d="M39.0868 30.7787H24.7509C24.2175 30.7787 23.7852 30.3463 23.7852 29.8129C23.7852 29.2795 24.2175 28.8472 24.7509 28.8472H39.0868C39.6202 28.8472 40.0525 29.2795 40.0525 29.8129C40.0525 30.3463 39.6202 30.7787 39.0868 30.7787Z" fill="#313549"/>
<path d="M39.0868 26.9149H24.7509C24.2175 26.9149 23.7852 26.4825 23.7852 25.9491C23.7852 25.4158 24.2175 24.9834 24.7509 24.9834H39.0868C39.6202 24.9834 40.0525 25.4158 40.0525 25.9491C40.0527 26.4825 39.6202 26.9149 39.0868 26.9149Z" fill="#313549"/>
<path d="M39.0849 23.0519H26.6806C26.1472 23.0519 25.7148 22.6195 25.7148 22.0861C25.7148 21.5527 26.1472 21.1204 26.6806 21.1204H39.0849C39.6182 21.1204 40.0506 21.5527 40.0506 22.0861C40.0506 22.6195 39.6182 23.0519 39.0849 23.0519Z" fill="#313549"/>
<path d="M33.2899 53.9562H18.954C18.4207 53.9562 17.9883 53.5238 17.9883 52.9904C17.9883 52.457 18.4207 52.0247 18.954 52.0247H33.2899C33.8233 52.0247 34.2557 52.457 34.2557 52.9904C34.2557 53.5238 33.8233 53.9562 33.2899 53.9562Z" fill="#313549"/>
<path d="M33.2899 50.0931H18.954C18.4207 50.0931 17.9883 49.6607 17.9883 49.1274C17.9883 48.594 18.4207 48.1616 18.954 48.1616H33.2899C33.8233 48.1616 34.2557 48.594 34.2557 49.1274C34.2557 49.6607 33.8233 50.0931 33.2899 50.0931Z" fill="#313549"/>
<path d="M31.3583 46.2294H18.954C18.4207 46.2294 17.9883 45.797 17.9883 45.2636C17.9883 44.7302 18.4207 44.2979 18.954 44.2979H31.3583C31.8917 44.2979 32.324 44.7302 32.324 45.2636C32.3242 45.797 31.8917 46.2294 31.3583 46.2294Z" fill="#313549"/>
<path d="M38.8034 50.2198C37.2332 48.3365 36.3171 45.8891 36.4086 43.2247C36.5961 37.7591 41.0734 33.3423 46.541 33.2251C52.4176 33.0991 57.2122 37.8647 57.1339 43.7306C57.0577 49.4231 52.3221 53.955 46.6291 53.955H37.1529C36.694 53.955 36.4641 53.4001 36.7886 53.0756L38.7701 51.0941C39.0079 50.8563 39.0189 50.4783 38.8034 50.2198Z" fill="#6DD338"/>
<path d="M46.7704 44.555C47.3038 44.555 47.7362 44.1227 47.7362 43.5893C47.7362 43.0559 47.3038 42.6235 46.7704 42.6235C46.2371 42.6235 45.8047 43.0559 45.8047 43.5893C45.8047 44.1227 46.2371 44.555 46.7704 44.555Z" fill="white"/>
<path d="M42.9072 44.555C43.4405 44.555 43.8729 44.1227 43.8729 43.5893C43.8729 43.0559 43.4405 42.6235 42.9072 42.6235C42.3738 42.6235 41.9414 43.0559 41.9414 43.5893C41.9414 44.1227 42.3738 44.555 42.9072 44.555Z" fill="white"/>
<path d="M50.6337 44.555C51.1671 44.555 51.5995 44.1227 51.5995 43.5893C51.5995 43.0559 51.1671 42.6235 50.6337 42.6235C50.1004 42.6235 49.668 43.0559 49.668 43.5893C49.668 44.1227 50.1004 44.555 50.6337 44.555Z" fill="white"/>
</svg>
