<svg width="62" height="62" viewBox="0 0 62 62" fill="none" xmlns="http://www.w3.org/2000/svg">
<path d="M31 62C48.1208 62 62 48.1208 62 31C62 13.8792 48.1208 0 31 0C13.8792 0 0 13.8792 0 31C0 48.1208 13.8792 62 31 62Z" fill="#696E87"/>
<path d="M14.1826 30.3274L44.0718 18.8032C45.459 18.302 46.6706 19.1416 46.2211 21.2392L46.2237 21.2367L41.1345 45.2126C40.7573 46.9124 39.7473 47.3257 38.3342 46.5249L30.5842 40.8132L26.8461 44.4143C26.4328 44.8277 26.084 45.1764 25.2832 45.1764L25.8334 37.2895L40.1968 24.3134C40.8219 23.7632 40.0573 23.4532 39.2332 24.0008L21.4831 35.1763L13.8313 32.7893C12.1702 32.2623 12.134 31.1282 14.1826 30.3274Z" fill="#D7DBF7"/>
</svg>
