<svg width="16" height="16" viewBox="0 0 16 16" fill="none" xmlns="http://www.w3.org/2000/svg">
<path d="M8 16C12.4183 16 16 12.4183 16 8C16 3.58172 12.4183 0 8 0C3.58172 0 0 3.58172 0 8C0 12.4183 3.58172 16 8 16Z" fill="#005648"/>
<path d="M10.8533 4.14576C10.6582 3.95076 10.3413 3.95076 10.1463 4.14576L7.99925 6.29276L5.85325 4.14576C5.65825 3.95076 5.34125 3.95076 5.14625 4.14576C4.95125 4.34076 4.95125 4.65776 5.14625 4.85276L7.29225 6.99976H5.99925C5.72325 6.99976 5.49925 7.22376 5.49925 7.49976C5.49925 7.77576 5.72325 7.99976 5.99925 7.99976H7.49925V8.99976H5.99925C5.72325 8.99976 5.49925 9.22376 5.49925 9.49976C5.49925 9.77576 5.72325 9.99976 5.99925 9.99976H7.49925V11.9998C7.49925 12.2758 7.72325 12.4998 7.99925 12.4998C8.27525 12.4998 8.49925 12.2758 8.49925 11.9998V9.99976H9.99925C10.2752 9.99976 10.4992 9.77576 10.4992 9.49976C10.4992 9.22376 10.2752 8.99976 9.99925 8.99976H8.49925V7.99976H9.99925C10.2752 7.99976 10.4992 7.77576 10.4992 7.49976C10.4992 7.22376 10.2752 6.99976 9.99925 6.99976H8.70625L10.8522 4.85376C11.0482 4.65776 11.0483 4.34176 10.8533 4.14576Z" fill="#FAFAFA"/>
</svg>
