<svg width="16" height="16" viewBox="0 0 16 16" fill="none" xmlns="http://www.w3.org/2000/svg">
<path d="M8 16C12.4183 16 16 12.4183 16 8C16 3.58172 12.4183 0 8 0C3.58172 0 0 3.58172 0 8C0 12.4183 3.58172 16 8 16Z" fill="#2196F3"/>
<path d="M9.719 10.617C9.346 10.871 8.936 11 8.5 11C7.579 11 6.781 10.392 6.348 9.5H8C8.276 9.5 8.5 9.276 8.5 9C8.5 8.724 8.276 8.5 8 8.5H6.042C6.019 8.337 6 8.171 6 8C6 7.829 6.019 7.663 6.042 7.5H8.5C8.776 7.5 9 7.276 9 7C9 6.724 8.776 6.5 8.5 6.5H6.348C6.781 5.608 7.579 5 8.5 5C8.936 5 9.346 5.129 9.719 5.383C9.946 5.538 10.258 5.482 10.413 5.252C10.568 5.024 10.51 4.713 10.281 4.557C9.747 4.193 9.131 4 8.5 4C7.035 4 5.781 5.037 5.26 6.5H4.5C4.224 6.5 4 6.724 4 7C4 7.276 4.224 7.5 4.5 7.5H5.044C5.026 7.666 5 7.829 5 8C5 8.171 5.026 8.334 5.044 8.5H4.5C4.224 8.5 4 8.724 4 9C4 9.276 4.224 9.5 4.5 9.5H5.26C5.781 10.963 7.035 12 8.5 12C9.131 12 9.747 11.807 10.281 11.443C10.51 11.287 10.568 10.976 10.413 10.748C10.258 10.52 9.945 10.463 9.719 10.617Z" fill="#FAFAFA"/>
</svg>
