<svg width="16" height="16" viewBox="0 0 16 16" fill="none" xmlns="http://www.w3.org/2000/svg">
<g clip-path="url(#clip0)">
<path d="M13.6556 2.3449C10.5299 -0.780747 5.47053 -0.781216 2.34444 2.3449C-0.781231 5.47051 -0.781732 10.53 2.34444 13.656C5.47009 16.7817 10.5295 16.7822 13.6556 13.656C16.7812 10.5304 16.7817 5.47098 13.6556 2.3449ZM9.3339 10.6804C9.70067 10.6804 9.99127 10.977 9.99171 11.3365C9.99218 11.6994 9.69842 11.9939 9.33559 11.9943L5.99866 11.9986C5.68635 11.9986 5.42072 11.7811 5.35572 11.4806C5.29021 11.1781 5.44488 10.8708 5.72693 10.7432C6.16887 10.5431 6.46776 9.86515 6.54581 9.32482H5.99781C5.63499 9.32482 5.34086 9.03069 5.34086 8.66786C5.34086 8.30503 5.63499 8.0109 5.99781 8.0109H6.34838C6.11594 7.55623 4.97381 6.06959 6.35567 4.68767C7.2644 3.77891 8.73545 3.77878 9.6443 4.68767C9.90086 4.94423 9.90083 5.36021 9.64427 5.61676C9.38777 5.87329 8.97183 5.87332 8.71521 5.61676C8.31997 5.22149 7.68009 5.22143 7.28476 5.61676C6.9977 5.90382 6.78857 6.23781 7.37458 7.15927C7.54126 7.42289 7.66767 7.70967 7.75308 8.01093H9.33475C9.69758 8.01093 9.99171 8.30506 9.99171 8.66789C9.99171 9.03072 9.69758 9.32485 9.33475 9.32485H7.86851C7.82475 9.7905 7.69339 10.2629 7.48238 10.6828L9.3339 10.6804Z" fill="#B4C7DE"/>
</g>
<defs>
<clipPath id="clip0">
<rect width="16" height="16" fill="white"/>
</clipPath>
</defs>
</svg>
