<svg width="16" height="16" viewBox="0 0 16 16" fill="none" xmlns="http://www.w3.org/2000/svg">
<path d="M8 16C12.4183 16 16 12.4183 16 8C16 3.58172 12.4183 0 8 0C3.58172 0 0 3.58172 0 8C0 12.4183 3.58172 16 8 16Z" fill="#2D9B78"/>
<path d="M10.5005 6H9.94946C9.87446 5.628 9.70846 5.292 9.48746 5H10.5005C10.7765 5 11.0005 4.776 11.0005 4.5C11.0005 4.224 10.7765 4 10.5005 4H7.50045H5.50045C5.22445 4 5.00045 4.224 5.00045 4.5C5.00045 4.776 5.22445 5 5.50045 5H7.50045C8.15145 5 8.70145 5.419 8.90845 6H5.50045C5.22445 6 5.00045 6.224 5.00045 6.5C5.00045 6.776 5.22445 7 5.50045 7H8.90845C8.70145 7.581 8.15145 8 7.50045 8H5.50045C5.29845 8 5.11545 8.122 5.03845 8.309C4.96045 8.496 5.00345 8.71 5.14645 8.854L9.14646 12.854C9.24446 12.951 9.37246 13 9.50046 13C9.62846 13 9.75646 12.951 9.85446 12.854C10.0495 12.659 10.0495 12.342 9.85446 12.147L6.70745 9H7.50045C8.70745 9 9.71746 8.14 9.94946 7H10.5005C10.7765 7 11.0005 6.776 11.0005 6.5C11.0005 6.224 10.7765 6 10.5005 6Z" fill="#FAFAFA"/>
</svg>
