<svg width="16" height="16" viewBox="0 0 16 16" fill="none" xmlns="http://www.w3.org/2000/svg">
<g clip-path="url(#clip0)">
<path d="M16 8.00004C16 12.4183 12.4183 16 8.00004 16C3.58168 16 0 12.4183 0 8.00004C0 3.58168 3.58168 0 8.00004 0C12.4183 0 16 3.58168 16 8.00004Z" fill="#1D8DFF"/>
<path d="M9.65317 11.6363C9.4132 11.6363 9.2008 11.4793 9.13102 11.2494L8.00083 7.517L6.86983 11.2494C6.79939 11.4835 6.60736 11.6254 6.33237 11.6363C6.08654 11.6291 5.87573 11.4589 5.8182 11.2196L4.49611 5.76504C4.42474 5.47194 4.60438 5.17738 4.89682 5.10613C5.18912 5.03262 5.48435 5.21519 5.55573 5.50763L6.40654 9.01673L7.47934 5.4778C7.54845 5.24795 7.76072 5.09082 8.00083 5.09082C8.24079 5.09082 8.4532 5.24795 8.52298 5.4778L9.59564 9.01673L10.4466 5.50763C10.5178 5.21519 10.8117 5.03489 11.1048 5.10613C11.3971 5.17738 11.5768 5.47194 11.5062 5.76438L10.1841 11.2189C10.1266 11.4581 9.91565 11.6283 9.66982 11.6356C9.66329 11.6363 9.65823 11.6363 9.65317 11.6363Z" fill="#FAFAFA"/>
<path d="M11.8182 7.63632H10.7134C10.4123 7.63632 10.168 7.39196 10.168 7.09086C10.168 6.78977 10.4123 6.54541 10.7134 6.54541H11.8182C12.1193 6.54541 12.3636 6.78977 12.3636 7.09086C12.3636 7.39196 12.1193 7.63632 11.8182 7.63632Z" fill="#FAFAFA"/>
<path d="M5.2868 7.63632H4.18217C3.88108 7.63632 3.63672 7.39196 3.63672 7.09086C3.63672 6.78977 3.88108 6.54541 4.18217 6.54541H5.2868C5.58789 6.54541 5.83225 6.78977 5.83225 7.09086C5.83225 7.39196 5.58789 7.63632 5.2868 7.63632Z" fill="#FAFAFA"/>
<path d="M11.8252 9.45469H10.4302C10.1291 9.45469 9.88477 9.21033 9.88477 8.90923C9.88477 8.60814 10.1291 8.36377 10.4302 8.36377H11.8252C12.1262 8.36377 12.3706 8.60814 12.3706 8.90923C12.3706 9.21033 12.1262 9.45469 11.8252 9.45469Z" fill="#FAFAFA"/>
<path d="M5.5771 9.45469H4.18217C3.88108 9.45469 3.63672 9.21033 3.63672 8.90923C3.63672 8.60814 3.88108 8.36377 4.18217 8.36377H5.5771C5.87806 8.36377 6.12256 8.60814 6.12256 8.90923C6.12256 9.21033 5.87806 9.45469 5.5771 9.45469Z" fill="#FAFAFA"/>
</g>
<defs>
<clipPath id="clip0">
<rect width="16" height="16" fill="white"/>
</clipPath>
</defs>
</svg>
