<svg width="16" height="16" viewBox="0 0 16 16" fill="none" xmlns="http://www.w3.org/2000/svg">
<g clip-path="url(#clip0)">
<path d="M16 8.00004C16 12.4183 12.4183 16 8.00004 16C3.58168 16 0 12.4183 0 8.00004C0 3.58168 3.58168 0 8.00004 0C12.4183 0 16 3.58168 16 8.00004Z" fill="#936BE9"/>
<path d="M6.7271 11.6365C6.426 11.6365 6.18164 11.3921 6.18164 11.091V4.90922C6.18164 4.60813 6.426 4.36377 6.7271 4.36377H9.45437C10.6573 4.36377 11.6362 5.34268 11.6362 6.54559C11.6362 7.74849 10.6573 8.72741 9.45437 8.72741H7.27255V11.091C7.27255 11.3921 7.02819 11.6365 6.7271 11.6365ZM7.27255 7.6365H9.45437C10.0559 7.6365 10.5453 7.14711 10.5453 6.54559C10.5453 5.94407 10.0559 5.45468 9.45437 5.45468H7.27255V7.6365Z" fill="#FAFAFA"/>
<path d="M8.90869 10.5455H4.90874C4.60764 10.5455 4.36328 10.3011 4.36328 10C4.36328 9.69895 4.60764 9.45459 4.90874 9.45459H8.90869C9.20978 9.45459 9.45415 9.69895 9.45415 10C9.45415 10.3011 9.20978 10.5455 8.90869 10.5455Z" fill="#FAFAFA"/>
</g>
<defs>
<clipPath id="clip0">
<rect width="16" height="16" fill="white"/>
</clipPath>
</defs>
</svg>
