<svg width="24" height="24" viewBox="0 0 24 24" fill="#696E87" xmlns="http://www.w3.org/2000/svg">
<path fill-rule="evenodd" clip-rule="evenodd" d="M15.999 16.8C16.683 18.3513 17.6893 19.7393 18.9509 20.8719C19.0774 20.9926 19.2121 21.1009 19.3462 21.2087C19.3987 21.2509 19.4511 21.2931 19.5029 21.3358C17.3902 23.0742 14.735 24.0168 11.9991 23.9998C9.27137 24.0119 6.62532 23.0695 4.51931 21.3358C4.70331 21.1919 4.8873 21.0399 5.0553 20.8799C6.31571 19.7448 7.31937 18.3539 7.99922 16.8H8.6152C8.82737 16.8 9.03084 16.7157 9.18087 16.5657C9.33089 16.4156 9.41518 16.2122 9.41518 16C9.41518 15.7878 9.33089 15.5843 9.18087 15.4343C9.03084 15.2843 8.82737 15.2 8.6152 15.2H8.5592C8.77789 14.416 8.91725 13.612 8.97519 12.8001H9.42318C9.63534 12.8001 9.83882 12.7158 9.98885 12.5658C10.1389 12.4157 10.2232 12.2123 10.2232 12.0001C10.2232 11.7879 10.1389 11.5845 9.98885 11.4344C9.83882 11.2844 9.63534 11.2001 9.42318 11.2001H8.97519C8.92185 10.3877 8.7824 9.58319 8.5592 8.80019H8.6152C8.82737 8.80019 9.03084 8.71591 9.18087 8.56588C9.33089 8.41586 9.41518 8.21238 9.41518 8.00021C9.41518 7.78805 9.33089 7.58457 9.18087 7.43454C9.03084 7.28452 8.82737 7.20024 8.6152 7.20024H7.99922C7.32007 5.66665 6.31556 4.29909 5.0553 3.19235L4.49531 2.70436C6.59336 0.935773 9.25518 -0.0233901 11.9991 0.000433346C14.7382 -0.00520527 17.3899 0.964696 19.4789 2.73636C19.4292 2.77925 19.3789 2.82151 19.3285 2.86386C19.2003 2.97154 19.0715 3.07976 18.9509 3.20035C17.6898 4.30499 16.6828 5.66954 15.999 7.20024H15.383C15.1708 7.20024 14.9674 7.28452 14.8173 7.43454C14.6673 7.58457 14.583 7.78805 14.583 8.00021C14.583 8.21238 14.6673 8.41586 14.8173 8.56588C14.9674 8.71591 15.1708 8.80019 15.383 8.80019H15.439C15.2197 9.58407 15.0803 10.3882 15.023 11.2001H14.583C14.3709 11.2001 14.1674 11.2844 14.0174 11.4344C13.8673 11.5845 13.7831 11.7879 13.7831 12.0001C13.7831 12.2123 13.8673 12.4157 14.0174 12.5658C14.1674 12.7158 14.3709 12.8001 14.583 12.8001H15.023C15.081 13.612 15.2203 14.416 15.439 15.2H15.383C15.1708 15.2 14.9674 15.2843 14.8173 15.4343C14.6673 15.5843 14.583 15.7878 14.583 16C14.583 16.2122 14.6673 16.4156 14.8173 16.5657C14.9674 16.7157 15.1708 16.8 15.383 16.8H15.999ZM6.19183 7.20022C5.63725 6.13223 4.89473 5.17293 3.99989 4.3683C3.7919 4.16831 3.5759 3.98431 3.35191 3.80032C1.20994 5.99312 0.00746261 8.93474 0 12.0001C0.0117897 15.0703 1.19992 18.0191 3.31991 20.2399C3.53709 20.0722 3.74537 19.8933 3.94389 19.7039C4.85953 18.8769 5.62071 17.8936 6.19183 16.8C5.97966 16.8 5.77619 16.7157 5.62616 16.5657C5.47614 16.4156 5.39185 16.2122 5.39185 16C5.39185 15.7878 5.47614 15.5843 5.62616 15.4343C5.77619 15.2843 5.97966 15.2 6.19183 15.2H6.87981C7.13276 14.4218 7.29123 13.6161 7.3518 12.8001H6.99981C6.78764 12.8001 6.58416 12.7158 6.43414 12.5658C6.28411 12.4157 6.19983 12.2123 6.19983 12.0001C6.19983 11.7879 6.28411 11.5844 6.43414 11.4344C6.58416 11.2844 6.78764 11.2001 6.99981 11.2001H7.3518C7.29279 10.3839 7.13429 9.57795 6.87981 8.80018H6.19183C5.97966 8.80018 5.77619 8.7159 5.62616 8.56587C5.47614 8.41585 5.39185 8.21237 5.39185 8.0002C5.39185 7.78803 5.47614 7.58456 5.62616 7.43453C5.77619 7.28451 5.97966 7.20022 6.19183 7.20022ZM20.6795 3.80032C20.4651 3.97108 20.2595 4.15264 20.0636 4.3443C19.1466 5.15147 18.3848 6.11932 17.8156 7.20022C18.0278 7.20022 18.2313 7.28451 18.3813 7.43453C18.5313 7.58456 18.6156 7.78803 18.6156 8.0002C18.6156 8.21237 18.5313 8.41585 18.3813 8.56587C18.2313 8.7159 18.0278 8.80018 17.8156 8.80018H17.1196C16.8652 9.57795 16.7067 10.3839 16.6477 11.2001H17.0076C17.2198 11.2001 17.4233 11.2844 17.5733 11.4344C17.7233 11.5844 17.8076 11.7879 17.8076 12.0001C17.8076 12.2123 17.7233 12.4157 17.5733 12.5658C17.4233 12.7158 17.2198 12.8001 17.0076 12.8001H16.6477C16.7082 13.6161 16.8667 14.4218 17.1196 15.2H17.8076C18.0198 15.2 18.2233 15.2843 18.3733 15.4343C18.5233 15.5843 18.6076 15.7878 18.6076 16C18.6076 16.2122 18.5233 16.4156 18.3733 16.5657C18.2233 16.7157 18.0198 16.8 17.8076 16.8C18.3776 17.8877 19.1329 18.8677 20.0396 19.6959C20.2475 19.8879 20.4635 20.0638 20.6795 20.2398L20.6795 20.2399C22.7995 18.0191 23.9876 15.0703 23.9994 12.0001C24.0048 8.93842 22.8134 5.99587 20.6795 3.80032Z" />
</svg>

