<svg width="24" height="24" viewBox="0 0 24 24" fill="#696E87" xmlns="http://www.w3.org/2000/svg">
<path d="M3.32429 5.27302C3.05461 5.47739 2.96888 5.84489 3.1201 6.14756L4.26469 8.48438H7.07874L8.22305 6.14798C8.37446 5.84508 8.28863 5.4773 8.01868 5.27278L6.37482 4.02698V2.8125H7.07794C7.46658 2.8125 7.78107 2.49802 7.78107 2.10938C7.78107 1.72073 7.46658 1.40625 7.07794 1.40625H6.37482V0.703125C6.37482 0.314484 6.06033 0 5.67169 0C5.28305 0 4.96857 0.314484 4.96857 0.703125V1.40625H4.26544C3.8768 1.40625 3.56232 1.72073 3.56232 2.10938C3.56232 2.49802 3.8768 2.8125 4.26544 2.8125H4.96857V4.02698L3.32429 5.27302Z" />
<path d="M22.5938 21.1875H14.1094C13.3327 21.1875 12.7031 21.8171 12.7031 22.5938V23.2969C12.7031 23.6852 13.0179 24 13.4062 24H23.2969C23.6852 24 24 23.6852 24 23.2969V22.5938C24 21.8171 23.3704 21.1875 22.5938 21.1875Z" />
<path d="M19.1317 4.3226C18.9229 4.29583 18.7238 4.35484 18.5714 4.48741C18.4162 4.62128 18.3283 4.81492 18.3283 5.01888V5.67184H17.2736C17.0525 5.67184 16.8437 5.77624 16.7105 5.95338L14.034 9.52188C13.3428 10.4463 13.6537 11.7721 14.6876 12.289C15.2012 12.5445 15.8302 12.5445 16.3438 12.289L18.3283 11.2968L17.0923 12.5328C15.1438 14.4819 14.1108 17.0905 14.12 19.7808L22.5939 19.7812C22.5983 19.7812 22.6025 19.7825 22.6069 19.7825C21.7309 18.0182 21.7034 15.8734 22.5747 14.0997L23.4275 12.3693C23.8079 11.5948 24.0001 10.7613 24.0001 9.89059C24.0001 7.11105 21.8796 4.71742 19.1317 4.3226ZM18.3283 9.18747C17.94 9.18747 17.6251 8.87266 17.6251 8.48434C17.6251 8.09594 17.94 7.78122 18.3283 7.78122C18.7166 7.78122 19.0314 8.09594 19.0314 8.48434C19.0314 8.87266 18.7166 9.18747 18.3283 9.18747Z" />
<path d="M9.89062 21.1875H1.40625C0.629578 21.1875 0 21.8171 0 22.5938V23.2969C0 23.6852 0.314812 24 0.703125 24H10.5938C10.9821 24 11.2969 23.6852 11.2969 23.2969V22.5938C11.2969 21.8171 10.6673 21.1875 9.89062 21.1875Z" />
<path d="M4.26613 9.89062V11.1486C4.26613 11.1982 4.26116 11.2473 4.26074 11.2969H7.08408C7.08366 11.2473 7.07869 11.1982 7.07869 11.1486V9.89062H4.26613Z" />
<path d="M9.59062 19.7812C8.49295 18.0509 7.75832 16.0986 7.3829 14.1094H7.78115C8.16946 14.1094 8.48427 13.7946 8.48427 13.4062C8.48427 13.0178 8.16946 12.7031 7.78115 12.7031C7.53004 12.7031 3.39909 12.7031 3.5624 12.7031C3.17409 12.7031 2.85927 13.0178 2.85927 13.4062C2.85927 13.7946 3.17409 14.1089 3.5624 14.1089H3.96065C3.58523 16.0981 2.80373 18.0509 1.70605 19.7812H9.59062Z"/>
</svg>
