<svg width="24" height="24" viewBox="0 0 24 24" fill="#696E87" xmlns="http://www.w3.org/2000/svg">
<path d="M22.7273 16.821C21.0166 15.1103 18.3581 15.2223 16.7879 16.7926C15.1517 18.4287 15.1511 21.1236 16.7879 22.7604C18.4364 24.4091 21.1065 24.4097 22.7557 22.7604C24.3482 21.168 24.4661 18.5598 22.7273 16.821Z" />
<path d="M0.617021 20.3991C-0.205674 21.2217 -0.205674 22.5603 0.617021 23.3829C1.43971 24.2056 2.77822 24.2056 3.60091 23.3829L8.26443 18.7196L5.28036 15.7355L0.617021 20.3991Z" />
<path d="M6.27527 11.757C6.1676 11.8647 6.09802 12.0042 6.07678 12.1547L5.77832 14.2438L9.75648 18.2219L11.8455 17.9235C11.996 17.902 12.1354 17.8327 12.2432 17.725L12.7406 17.2275L6.77277 11.2597L6.27527 11.757Z" />
<path d="M22.4376 1.56189C21.1914 0.315675 18.6969 -0.665406 17.4644 0.567262L9.75586 8.27583L15.7236 14.2436L23.4322 6.53504C24.6649 5.30256 23.6838 2.80811 22.4376 1.56189Z" />
<path d="M7.76758 10.2651L8.76221 9.27045L14.73 15.2382L13.7354 16.2329L7.76758 10.2651Z" />
</svg>
