<svg width="24" height="24" viewBox="0 0 24 24" fill="#696E87" xmlns="http://www.w3.org/2000/svg">
<path d="M21.5003 5.0385C21.2473 5.038 20.8923 5.0115 20.6418 5.0505C20.2688 5.1165 19.8888 5.0075 19.5128 4.996C19.5073 4.904 19.5773 4.7395 19.5738 4.648C19.5033 4.639 19.4333 4.634 19.3653 4.618C19.3018 4.3895 19.3263 4.1485 19.3188 3.914C19.2828 3.9135 19.2103 3.912 19.1743 3.911C19.1628 4.178 19.1638 4.445 19.1608 4.712C19.0683 4.6365 19.0038 4.49 18.8693 4.5005L15.1963 4.5C15.0023 4.521 14.8508 4.3885 14.6943 4.295C14.6793 4.172 14.6598 4.05 14.6358 3.929C14.5258 4.0805 14.5158 4.2745 14.4753 4.453C14.1833 4.511 13.8948 4.6745 13.5973 4.7005C13.5713 4.5285 13.5438 4.357 13.5248 4.1835C13.6823 4.1075 13.8593 4.0565 13.9898 3.9325C14.1433 3.4835 13.9658 3.0165 13.8643 2.5775C13.5498 2.3485 13.2013 2.146 12.8388 2H12.3178C11.9598 2.117 11.6033 2.3085 11.3998 2.6455C11.0848 3.14 11.0413 3.775 11.2393 4.324C11.2113 4.343 11.1553 4.382 11.1273 4.402C10.7863 4.132 10.3148 4.2655 9.98831 4.492C9.51431 4.8515 9.26131 5.4395 9.15631 6.0195C9.04781 6.511 9.09631 7.0155 9.15431 7.5095C8.95831 7.558 8.75731 7.5675 8.55781 7.5825C8.47431 7.586 8.36881 7.6195 8.35981 7.719C8.29981 8.11 8.34431 8.512 8.26381 8.9005C8.21181 9.1495 8.17831 9.4025 8.18681 9.6575C8.40531 9.707 8.62531 9.7545 8.84481 9.801C8.69481 9.87 8.52231 9.919 8.41531 10.0555C8.32131 10.686 8.54531 11.3075 8.52531 11.94C8.41531 12.036 8.27781 12.1225 8.24181 12.2765C8.17431 12.458 8.28181 12.6425 8.25531 12.828C8.22981 13.03 8.27531 13.231 8.33981 13.42C8.40031 13.5785 8.34981 13.7485 8.32581 13.91C8.25481 14.328 8.17331 14.747 8.15581 15.1715C8.14181 15.3955 8.21931 15.6265 8.14781 15.844C7.91481 16.378 7.52331 16.8235 7.31631 17.371C7.22481 17.623 7.27131 17.911 7.13981 18.15C6.99931 18.419 6.80531 18.6845 6.82281 19.007C6.80731 19.2255 6.98131 19.4215 6.90781 19.64C6.79881 20.0855 6.68931 20.5315 6.56831 20.9745C6.48631 21.269 6.47081 21.5915 6.56231 21.8855C6.68481 21.95 6.82281 21.9715 6.95681 22.0005H7.47231C7.63881 21.985 7.80381 21.957 7.97031 21.9335C8.01831 21.7025 7.96181 21.477 7.88381 21.262C7.78681 20.72 7.87331 20.144 8.14381 19.666C8.23731 19.542 8.40731 19.494 8.47381 19.346C8.57331 19.1345 8.62081 18.903 8.71181 18.688C8.83981 18.382 9.01481 18.0945 9.09481 17.769C9.13931 17.591 9.08831 17.4085 9.10431 17.2285C9.15281 17.029 9.24231 16.8335 9.38931 16.6895C9.58631 16.505 9.66331 16.2225 9.87881 16.055C10.0258 15.945 10.0328 15.748 10.0638 15.5795C10.0928 15.3565 10.1653 15.143 10.2458 14.9345C10.3603 14.646 10.4393 14.3295 10.6598 14.102C10.7998 13.9555 10.8698 13.7605 10.9208 13.5665C11.0083 13.736 11.0783 13.924 11.2188 14.057C11.3763 14.136 11.6058 14.0935 11.7013 14.274C11.9758 14.692 11.9963 14.93 12.2718 15.348C12.4033 15.6075 12.7203 15.544 12.9548 15.551C13.0898 15.7365 13.2403 15.79 13.1953 16.015C13.1868 16.2685 12.9728 16.464 13.0028 16.7235C13.0263 17.2515 13.0653 17.784 13.2023 18.2955C13.2503 18.534 13.3743 18.753 13.3783 19.001C13.3843 19.288 13.3298 19.758 13.2723 20.0415C13.1323 20.421 13.0368 20.818 13.0188 21.2245C13.3498 21.4195 13.7318 21.2215 14.0778 21.337C14.4573 21.4625 14.8553 21.5075 15.2528 21.5C15.4973 21.4955 15.7423 21.4715 15.9828 21.434C15.9843 21.2955 16.0293 21.145 15.9663 21.0155C15.7663 20.779 15.4318 20.778 15.1888 20.6145C14.9923 20.4375 14.8318 20.2215 14.6678 20.014C14.5293 19.851 14.7148 19.6255 14.7093 19.42C14.7113 19.108 14.7098 18.7865 14.8248 18.4925C14.9098 18.2585 14.8813 18.0055 14.8353 17.767C14.7733 17.4735 14.8783 17.184 14.9053 16.8935C14.9443 16.4975 14.9723 16.1005 14.9973 15.7035C15.0153 15.477 14.9378 15.261 14.8828 15.0455C14.8503 14.8425 14.6573 14.728 14.6008 14.5355C14.2698 13.6225 13.9668 12.871 13.3148 12.143C13.0643 11.8935 12.9378 11.4765 13.0898 11.141C13.2308 11.1795 13.3708 11.222 13.5138 11.258C13.6663 11.0525 13.8153 10.8255 13.8398 10.5615C13.8648 10.2895 13.8723 10.016 13.8963 9.744C13.9073 9.4475 13.9713 9.142 13.8948 8.851C13.8448 8.652 13.6483 8.566 13.4963 8.465C13.5328 8.3265 13.5698 8.189 13.6023 8.0495C14.1038 8.294 14.5688 8.6485 15.1303 8.7355C15.2808 8.7585 15.4418 8.8305 15.5913 8.7615C15.7973 8.6625 15.9563 8.4895 16.1363 8.3505C16.4623 8.094 16.4173 7.626 16.5308 7.26C16.6418 7.217 16.7548 7.1775 16.8673 7.1355C16.7933 6.811 16.6643 6.483 16.7083 6.1445C16.8433 5.96 17.0138 5.8495 17.1543 5.669C17.2548 5.532 17.4288 5.4965 17.5873 5.5005C18.0648 5.498 18.5428 5.5065 19.0208 5.501C19.0363 5.4315 18.9798 5.5705 18.9968 5.501C19.4938 5.5295 19.9913 5.4215 20.4893 5.4835C20.7998 5.537 21.2168 5.515 21.5288 5.492C21.5123 5.4 21.5043 5.13 21.5003 5.0385ZM15.3518 6.787C15.2573 6.618 15.1158 6.459 15.0878 6.264C15.1028 6.2435 15.1338 6.204 15.1488 6.184C15.3518 6.1625 15.5563 6.176 15.7598 6.186C15.6283 6.389 15.4893 6.588 15.3518 6.787ZM15.3223 6.133C15.4573 6.064 15.5008 5.9215 15.5183 5.778C15.6268 5.7725 15.7358 5.769 15.8458 5.7665C15.8498 5.872 15.8533 5.9765 15.8573 6.082C15.6813 6.1215 15.5008 6.121 15.3223 6.133Z" />
<path d="M21.5 11.5001H18V10.5001H22.5C22.4345 10.1036 22.17 9.74955 21.8025 9.59605C21.556 9.48305 21.2805 9.50105 21.0175 9.50105L18 9.50005C17.5 9.50005 17 10.0001 17 10.5001V11.5001C17.0275 11.9991 17.5 12.5001 18 12.5001H21.5V13.5H17C17.067 13.8185 17.235 14.1185 17.509 14.2965C17.749 14.4695 18.0505 14.5085 18.3375 14.5H21.5C22 14.5 22.5 14 22.5 13.5V12.5001C22.5 12.0001 22.06 11.5096 21.5 11.5001ZM2.5 10.5001H6.5C6.5 9.94755 6.0525 9.50005 5.5 9.50005H2.5C1.9475 9.50005 1.5 9.94755 1.5 10.5001V13.5C1.5 14.0525 1.9475 14.5 2.5 14.5H5.5C6.0525 14.5 6.5 14.0525 6.5 13.5H2.5V10.5001Z"/>
</svg>
