<svg width="24" height="24" viewBox="0 0 24 24" fill="#696E87" xmlns="http://www.w3.org/2000/svg">
<path d="M6.85605 20.1588C6.28812 20.5956 5.58614 20.8658 4.81587 20.8658C2.95962 20.8658 1.44915 19.3554 1.44915 17.4991C1.44915 15.6425 2.95962 14.132 4.81587 14.132C6.21684 14.132 7.41837 14.9934 7.92497 16.2132L8.97924 15.1198C8.149 13.6707 6.60557 12.6829 4.81587 12.6829C2.15572 12.6829 0 14.8391 0 17.4991C0 20.1588 2.15572 22.315 4.81587 22.315C6.06741 22.315 7.19665 21.8258 8.05327 21.0428C7.72451 20.9324 7.41266 20.7574 7.14619 20.5008C7.03625 20.3946 6.94139 20.2785 6.85605 20.1588Z" />
<path d="M14.1689 12.7196L11.6187 11.2384C12.756 10.5266 12.3343 10.7902 13.4716 10.0784L13.4358 10.4407C13.3744 11.0573 13.8288 11.6215 14.4009 11.7375C14.4146 11.7403 18.8776 12.4988 19.0404 12.4988C19.6201 12.4988 20.132 12.08 20.23 11.4889C20.3394 10.8308 19.8947 10.209 19.2366 10.1001L15.951 9.5543L16.1072 7.98636C16.2647 6.98442 16.3331 6.67026 15.959 6.07251L15.4887 5.32061C14.8811 4.35022 13.5999 4.0535 12.6272 4.66251L7.47978 7.88531C6.21553 8.67689 5.59898 10.3459 6.63113 11.5737C7.03436 12.0535 10.9548 14.4627 10.9548 14.4627L7.77969 17.7562C7.22399 18.3322 7.24052 19.2497 7.81695 19.8049C8.09811 20.0761 8.46041 20.211 8.82266 20.211C9.20245 20.211 9.58171 20.063 9.86568 19.7676L14.4839 14.9783C15.1354 14.3041 14.9826 13.1922 14.1689 12.7196Z" />
<path d="M19.5785 6.14088C20.7074 5.43377 21.0494 3.94592 20.3427 2.81756C19.6361 1.68823 18.1482 1.34623 17.0194 2.0529C15.891 2.75956 15.549 4.24689 16.2553 5.37525C16.9618 6.50462 18.4497 6.84711 19.5785 6.14088Z" />
<path d="M19.184 12.6829C16.4962 12.6829 14.3682 14.9004 14.3682 17.4991C14.3682 20.1588 16.524 22.315 19.184 22.315C21.8436 22.315 24 20.1588 24 17.4991C24 14.8391 21.8436 12.6829 19.184 12.6829ZM19.184 20.8658C17.3278 20.8658 15.8173 19.3554 15.8173 17.4991C15.8173 15.6425 17.3278 14.132 19.184 14.132C21.0403 14.132 22.5508 15.6425 22.5508 17.4991C22.5509 19.3554 21.0403 20.8658 19.184 20.8658Z" />
</svg>
