<svg width="24" height="24" viewBox="0 0 24 24" fill="#696E87" xmlns="http://www.w3.org/2000/svg">
<path d="M12 0C5.38317 0 0 5.38317 0 12C0 18.6168 5.38317 24 12 24C18.6168 24 24 18.6168 24 12C24 5.38317 18.6168 0 12 0ZM12 22.5938C6.15858 22.5938 1.40625 17.8414 1.40625 12C1.40625 6.15858 6.15858 1.40625 12 1.40625C17.8414 1.40625 22.5938 6.15858 22.5938 12C22.5938 17.8414 17.8414 22.5938 12 22.5938Z" />
<path d="M12 4.06653C7.62539 4.06653 4.06641 7.62551 4.06641 12.0001C4.06641 16.3746 7.62539 19.9336 12 19.9336C16.3745 19.9336 19.9335 16.3746 19.9335 12.0001C19.9335 7.62551 16.3745 4.06653 12 4.06653ZM12 18.5274C8.4008 18.5274 5.47266 15.5992 5.47266 12.0001C5.47266 8.40092 8.4008 5.47278 12 5.47278C15.5991 5.47278 18.5272 8.40092 18.5272 12.0001C18.5272 15.5992 15.5991 18.5274 12 18.5274Z" />
<path d="M12.0005 8.17627C9.89201 8.17627 8.17676 9.89157 8.17676 12C8.17676 14.1084 9.89201 15.8237 12.0005 15.8237C14.1089 15.8237 15.8241 14.1084 15.8241 12C15.8241 9.89157 14.1088 8.17627 12.0005 8.17627ZM12.0005 14.4174C10.6674 14.4174 9.58301 13.333 9.58301 12C9.58301 10.667 10.6675 9.58252 12.0005 9.58252C13.3334 9.58252 14.4179 10.667 14.4179 12C14.4179 13.333 13.3335 14.4174 12.0005 14.4174Z" />
</svg>
