<svg width="24" height="24" viewBox="0 0 24 24" fill="#696E87" xmlns="http://www.w3.org/2000/svg">
<path d="M24 0H21.0215L19.7812 0.620109L18.541 0H12.7031L11.2969 0.703125H7.41009L6.00384 0H0V11.2969L0.703125 12.7031V16.5899L0 17.9962V24H12L13.2403 23.3799L14.4805 24H24V14.4805L23.3799 13.2403L24 12V0ZM6.32812 19.7812L4.21875 17.6719V13.4531L10.5469 19.7812H6.32812ZM19.0781 19.7812H16.2656L14.4429 17.6393L14.067 16.1127L12.6202 15.4974L12 14.7687L4.21875 5.625L5.625 4.21875L12 9.01055L19.7812 14.8594L19.0781 19.7812ZM19.7812 10.5469L13.4531 4.21875H17.6719L19.7812 6.32812V10.5469Z" />
</svg>
