<svg width="24" height="24" viewBox="0 0 24 24" fill="#696E87" xmlns="http://www.w3.org/2000/svg">
<path d="M22.7142 8.58366L16.2401 7.64186L13.3502 1.77662C13.2129 1.54036 13.0159 1.3443 12.7791 1.20801C12.5422 1.07173 12.2737 1 12.0005 1C11.7272 1 11.4587 1.07173 11.2219 1.20801C10.985 1.3443 10.7881 1.54036 10.6508 1.77662L7.76088 7.64336L1.28677 8.58366C1.00953 8.62342 0.748972 8.74002 0.534596 8.92025C0.320221 9.10049 0.1606 9.33715 0.0738145 9.60344C-0.0129712 9.86973 -0.023454 10.155 0.0435537 10.4269C0.110561 10.6989 0.252382 10.9466 0.452951 11.1421L5.13645 15.7086L4.03118 22.1572C3.98393 22.433 4.01478 22.7166 4.12023 22.9757C4.22569 23.2349 4.40156 23.4594 4.62795 23.6239C4.85434 23.7883 5.12222 23.8861 5.40131 23.9063C5.68039 23.9265 5.95955 23.8681 6.20722 23.7379L12.0005 20.6921L17.7907 23.7349C18.0384 23.8651 18.3176 23.9235 18.5966 23.9033C18.8757 23.8831 19.1436 23.7853 19.37 23.6209C19.5964 23.4564 19.7723 23.2319 19.8777 22.9727C19.9832 22.7136 20.014 22.43 19.9668 22.1542L18.8615 15.7056L23.548 11.1421C23.7481 10.9468 23.8895 10.6994 23.9564 10.4279C24.0233 10.1564 24.013 9.87157 23.9266 9.60564C23.8402 9.3397 23.6812 9.10322 23.4674 8.9229C23.2537 8.74257 22.9939 8.62559 22.7172 8.58516L22.7142 8.58366Z"/>
</svg>
