<svg width="24" height="24" viewBox="0 0 24 24" fill="#696E87" xmlns="http://www.w3.org/2000/svg">
<path d="M8.19521 9.93969L11.3075 7.60597L11.3227 4.28768L7.03907 1.13345C5.66191 1.76334 4.40798 2.65142 3.34961 3.76014L4.92123 8.81247L8.19521 9.93969Z"/>
<path d="M9.13184 10.9962L10.1521 14.1032H13.8989L14.9646 11.0609L11.9997 8.84489L9.13184 10.9962Z" />
<path d="M16.3546 11.3498L15.1807 14.6991L17.1035 17.8472L22.4036 17.8723C22.7568 17.2472 23.0719 16.5926 23.314 15.8896C23.5916 15.0836 23.8217 14.268 23.9219 13.4537L19.5672 10.3239L16.3546 11.3498Z" />
<path d="M12.7139 7.62208L15.9141 10.0142L19.1445 8.98277L20.8393 3.93757C19.7863 2.77904 18.4946 1.81498 17.0052 1.13088L12.7292 4.26003L12.7139 7.62208Z" />
<path d="M2.27567 5.04813C1.62051 5.96404 1.08052 6.98378 0.695447 8.10147C0.310735 9.21917 0.0479745 10.3554 0 11.4804L3.52905 9.07707L2.27567 5.04813Z" />
<path d="M8.90348 14.8115L7.74165 11.2714L4.46291 10.1428L0.0527344 13.1565C0.218082 14.8217 0.791578 16.4228 1.60348 17.8639L6.85394 17.8432L8.90348 14.8115Z" />
<path d="M15.9873 23.244C18.1407 22.479 20.0704 21.1245 21.4917 19.2757L17.261 19.2559L15.9873 23.244Z" />
<path d="M10.1284 15.5104L8.00195 18.6562L9.60946 23.7047C10.4053 23.868 11.2036 24.0004 11.9945 24.0004C12.8005 24.0004 13.5904 23.8471 14.3686 23.6882L15.9661 18.6846L14.0275 15.5104H10.1284Z" />
<path d="M15.4194 0.548045C12.9103 -0.200503 10.9818 -0.163149 8.61035 0.543467L12.0072 3.0451L15.4194 0.548045Z" />
<path d="M2.51855 19.2674C3.87429 21.0418 5.73889 22.4534 7.98966 23.2559L6.71449 19.2509L2.51855 19.2674Z" />
<path d="M23.9983 11.7701C23.9514 9.43029 23.169 7.17585 21.8758 5.27244L20.5283 9.28325L23.9983 11.7701Z" />
</svg>
