<svg width="24" height="24" viewBox="0 0 24 24" fill="#696E87" xmlns="http://www.w3.org/2000/svg">
<path fill-rule="evenodd" clip-rule="evenodd" d="M23.5314 9.16608C23.5314 13.9695 19.6375 17.8634 14.834 17.8634C10.0306 17.8634 6.13672 13.9695 6.13672 9.16608C6.13672 4.36267 10.0306 0.46875 14.834 0.46875C19.6375 0.46875 23.5314 4.36267 23.5314 9.16608Z" fill="#696E87"/>
<path fill-rule="evenodd" clip-rule="evenodd" d="M11.5697 1.10254L14.8259 3.09473V6.11194L12.1073 8.0871L8.93481 7.375L8.30273 3.42413L11.5697 1.10254Z" fill="#181B29"/>
<path fill-rule="evenodd" clip-rule="evenodd" d="M6.19141 10.1417L8.93414 7.375L12.1066 8.0871L13.145 11.2832L11.1843 14.3004L7.32703 13.5599L6.19141 10.1417Z" fill="#181B29"/>
<path fill-rule="evenodd" clip-rule="evenodd" d="M17.7884 0.983398L14.8428 3.0946V6.11182L17.5615 8.08698L20.734 7.37488L21.2132 3.25464L17.7884 0.983398Z" fill="#181B29"/>
<path fill-rule="evenodd" clip-rule="evenodd" d="M23.4711 10.1862L20.7335 7.375L17.561 8.0871L16.5225 11.2832L18.4832 14.3004L22.3306 13.5777L23.4711 10.1862Z" fill="#181B29"/>
<path fill-rule="evenodd" clip-rule="evenodd" d="M16.5232 17.699L18.4835 14.3004L16.5228 11.2832H13.1453L11.1846 14.3004L13.1453 17.699H16.5232Z" fill="#181B29"/>
<path d="M22.7614 13.7631C23.377 12.7053 23.787 11.514 23.9364 10.244C23.937 10.24 23.9373 10.236 23.9379 10.2319C23.9785 9.8822 24.0001 9.52661 24.0001 9.16608C24.0001 6.78534 23.0875 4.61389 21.5941 2.9826C21.5703 2.94928 21.5423 2.91888 21.5104 2.8927C20.5403 1.8609 19.3348 1.05286 17.98 0.556274C17.9556 0.545288 17.9304 0.536133 17.9045 0.529541C16.9442 0.187134 15.9107 0 14.834 0C13.6332 0 12.4857 0.232544 11.4338 0.654236C11.4052 0.662842 11.3777 0.674194 11.3512 0.68811C10.0577 1.22131 8.91223 2.04236 7.99451 3.07086C7.96448 3.09741 7.93774 3.12726 7.91522 3.16022C6.51611 4.77008 5.66797 6.87085 5.66797 9.16608C5.66797 9.51013 5.68774 9.84979 5.72491 10.1841C5.72528 10.1884 5.72583 10.1924 5.72638 10.1964C5.79449 10.8032 5.92212 11.3921 6.10321 11.9573L1.17932 16.8812C0.996216 17.0643 0.996216 17.3611 1.17932 17.5443C1.27087 17.6358 1.39081 17.6816 1.51074 17.6816C1.63068 17.6816 1.75061 17.6358 1.84216 17.5443L6.4707 12.9159C6.59961 13.2021 6.7428 13.4808 6.89935 13.7505C6.91364 13.7827 6.93176 13.8129 6.95282 13.8409C8.11481 15.7923 9.98029 17.2776 12.197 17.9449L8.89484 21.2468C8.71191 21.4299 8.71191 21.7267 8.89484 21.9099C8.98639 22.0014 9.10651 22.0472 9.22644 22.0472C9.34637 22.0472 9.46631 22.0014 9.55786 21.9099L13.2696 18.1979C13.7783 18.2858 14.3008 18.3322 14.834 18.3322C18.173 18.3322 21.1003 16.5372 22.7028 13.8618C22.7263 13.8314 22.746 13.7985 22.7614 13.7631ZM18.7056 13.7816L17.0379 11.2152L17.9247 8.48602L20.0324 8.0127L20.5808 7.88965L22.9771 10.3504C22.8315 11.356 22.5034 12.3034 22.0273 13.1578L18.7056 13.7816ZM12.6304 11.2152L10.9634 13.7803L7.63141 13.1409C7.15405 12.2794 6.82703 11.3236 6.6853 10.3092L9.08472 7.88892L11.7436 8.48602L12.3345 10.3048L12.6304 11.2152ZM8.01117 4.57104L8.43396 7.21381L6.60693 9.05676C6.62872 7.39801 7.14307 5.8559 8.01117 4.57104ZM13.4858 10.8144L12.6578 8.26611L14.8254 6.69141L16.993 8.2663L16.165 10.8144H13.4858ZM23.0617 9.09357L21.2252 7.20758L21.5498 4.41632C22.4891 5.74072 23.0465 7.35352 23.0617 9.09357ZM20.7216 3.42371L20.3067 6.99042L19.2982 7.21674L17.6654 7.58331L15.3114 5.87311V3.33545L17.8555 1.51208C18.9433 1.94312 19.9176 2.59973 20.7216 3.42371ZM16.7372 1.16016L14.8143 2.53839L12.6705 1.22681C13.3602 1.03857 14.0855 0.9375 14.834 0.9375C15.489 0.9375 16.1262 1.01477 16.7372 1.16016ZM11.5328 1.62964L14.3567 3.35742V5.87311L12.6963 7.07941L12.0029 7.58331L9.34711 6.98712L8.80145 3.57642C9.56409 2.75391 10.4922 2.08722 11.5328 1.62964ZM8.35632 14.2346L10.8856 14.7202L12.1737 16.953C10.6519 16.4317 9.3299 15.4761 8.35632 14.2346ZM13.4426 17.2764L11.7341 14.3148L13.3996 11.7519H16.2685L17.934 14.3148L16.2258 17.2762C15.7732 17.3536 15.3083 17.3945 14.834 17.3945C14.3598 17.3947 13.8951 17.3538 13.4426 17.2764ZM17.4946 16.953L18.782 14.7211L21.3015 14.2478C20.329 15.4828 19.011 16.4335 17.4946 16.953Z" fill="#696E87"/>
<path d="M6.45575 16.8813L0.137329 23.1999C-0.0457764 23.383 -0.0457764 23.6799 0.137329 23.863C0.228882 23.9543 0.348816 24.0001 0.46875 24.0001C0.588684 24.0001 0.708618 23.9543 0.800171 23.8628L7.11877 17.5444C7.3017 17.3613 7.3017 17.0644 7.11877 16.8813C6.93567 16.6984 6.63885 16.6984 6.45575 16.8813Z" fill="#696E87"/>
<path d="M7.78809 22.5474C7.66486 22.5474 7.54401 22.5975 7.45685 22.6847C7.36969 22.7719 7.31934 22.8927 7.31934 23.0165C7.31934 23.1397 7.36951 23.2602 7.45685 23.3475C7.54401 23.4352 7.66486 23.4852 7.78809 23.4852C7.9115 23.4852 8.03235 23.4352 8.11951 23.3475C8.20667 23.2604 8.25684 23.1397 8.25684 23.0165C8.25684 22.8927 8.20685 22.7719 8.11951 22.6847C8.03235 22.5975 7.9115 22.5474 7.78809 22.5474Z" fill="#696E87"/>
</svg>
