<svg width="24" height="24" viewBox="0 0 24 24" fill="#696E87" xmlns="http://www.w3.org/2000/svg">
<path d="M11.5396 23.1798C12.2122 23.1798 24 22.7143 24 20.7487C24 18.7831 17.6948 19.753 17.6999 18.0737C17.6948 17.4515 20.2542 17.6594 19.5698 16.4558C18.9663 15.4558 10.712 15.5765 10.712 15.5765C10.712 15.5765 8.97762 15.585 6.90529 15.8412V8.71866C9.28133 7.54588 15.5644 3.90688 12.4464 4.1263C9.79377 4.31307 7.91158 3.39062 6.90529 2.71084V1.4555C6.90529 1.10441 6.62067 0.82019 6.26998 0.82019C5.91928 0.82019 5.63467 1.10441 5.63467 1.4555V16.0267C2.86692 16.4952 0 17.4507 0 19.404C0 23.1798 10.8674 23.1798 11.5396 23.1798ZM5.63471 17.74V18.3968C5.63471 18.748 5.91932 19.0321 6.27002 19.0321C6.62072 19.0321 6.90533 18.748 6.90533 18.3968V17.7128C8.03405 17.8098 8.88195 18.2215 8.88195 18.7145C8.88195 19.2799 7.76808 19.7381 6.39368 19.7381C5.01928 19.7381 3.90541 19.2799 3.90541 18.7145C3.90541 18.2579 4.63178 17.8716 5.63471 17.74Z"/>
</svg>
