<svg width="24" height="24" viewBox="0 0 24 24" fill="#696E87" xmlns="http://www.w3.org/2000/svg">
<path d="M20.9541 10.7735V6.92399C20.9541 5.67357 19.8077 4.70509 18.5646 4.99702V4.89062C18.5646 4.19627 18.1981 3.58347 17.647 3.23913H17.3936C17.2239 3.23913 16.5466 3.01985 16.0368 3.43961C15.5529 3.83796 15.4251 4.65493 15.4251 5.03124V7.01465C15.4251 7.29857 15.203 7.54208 14.9191 7.54729C14.6299 7.55258 14.3938 7.31976 14.3938 7.03176C14.3938 6.64561 14.0705 6.33361 13.6806 6.35283C13.3157 6.37078 13.0356 6.68559 13.0356 7.05093V13.1113C13.0356 13.3961 12.8047 13.6269 12.52 13.6269H11.8261C11.2305 13.6269 10.746 14.1119 10.746 14.708C10.746 18.4694 10.6872 18.6719 11.0322 19.0373C11.3717 19.3968 11.7706 19.7369 12.2102 20.216C12.3174 20.3234 12.2855 20.172 12.2855 23.2341C12.2855 23.6476 12.6202 23.9831 13.0336 23.9841C20.1918 24.0018 19.3938 24 19.4554 24C19.8689 24 20.2054 23.6648 20.2054 23.25C20.2276 20.3946 20.156 20.4992 20.2674 20.3692L21.4932 18.9383C22.3061 17.9894 22.7529 16.781 22.7529 15.5315V12.892C22.753 11.8265 21.9729 10.9399 20.9541 10.7735Z" />
<path d="M10.7744 18.3782C10.7741 18.3756 10.7737 18.3734 10.7734 18.3714C10.7738 18.3736 10.7741 18.3759 10.7744 18.3782Z" />
<path d="M2.45898 9.63288C6.07447 8.25781 10.0763 4.54989 10.9201 0.783323C11.0973 -0.00243632 11.0741 0.099891 11.078 0.0844224C5.23373 -0.717368 0.307485 4.31219 1.08012 10.0646C1.62658 9.89941 2.31583 9.6874 2.45898 9.63288Z" />
<path d="M2.33398 13.5525C3.90091 16.0839 6.68254 17.7048 9.7262 17.753C9.71129 16.8838 9.71481 16.4131 9.71481 14.7079C9.71481 13.5432 10.662 12.5956 11.8261 12.5956H12.0044V11.1497C8.41891 12.7794 4.61593 13.5525 2.33398 13.5525Z" />
<path d="M12.5416 0.412964C12.5383 0.429604 12.4918 0.63529 12.3841 1.11238C11.4248 5.39451 7.08294 9.47935 2.99285 11.0349C2.76536 11.1215 1.84545 11.4009 1.4082 11.5326C1.46328 11.7073 1.52408 11.8813 1.59078 12.0545C1.6287 12.0518 1.54119 12.0526 2.73907 12.0526C7.77223 11.7067 11.7677 9.57694 12.0048 9.50039V7.03175C12.0048 5.79749 13.2747 4.97489 14.3944 5.4614V5.03123C14.3944 3.96202 14.8673 2.78135 15.8759 2.33913C14.9072 1.44992 13.7657 0.798742 12.5416 0.412964Z" />
</svg>
