<svg width="24" height="24" viewBox="0 0 24 24" fill="#696E87" xmlns="http://www.w3.org/2000/svg">
<path d="M20.3025 3.72861C18.0731 2.61392 15.1245 2 12 2C8.87545 2 5.92688 2.61392 3.69745 3.72861C1.31311 4.92078 0 6.56253 0 8.35156C0 10.1406 1.31311 11.7824 3.69745 12.9745C5.92688 14.0892 8.87545 14.7031 12 14.7031C15.1245 14.7031 18.0731 14.0892 20.3025 12.9745C22.6869 11.7824 24 10.1406 24 8.35156C24 6.56253 22.6869 4.92078 20.3025 3.72861Z" />
<path d="M20.9315 14.2323C18.5106 15.4428 15.3386 16.1094 12 16.1094C8.66138 16.1094 5.48944 15.4427 3.06853 14.2323C1.78252 13.5894 0.751406 12.8185 0 11.9388V15.1298C0 16.9187 1.31311 18.5605 3.69745 19.7528C5.92688 20.8674 8.87545 21.4814 12 21.4814C15.1245 21.4814 18.0731 20.8674 20.3025 19.7528C22.6869 18.5605 24 16.9187 24 15.1298V11.9388C23.2486 12.8185 22.2175 13.5894 20.9315 14.2323Z" />
</svg>
