<svg width="24" height="24" viewBox="0 0 24 24" fill="#696E87" xmlns="http://www.w3.org/2000/svg">
<path d="M9.82892 17.5483C9.82728 17.5499 9.82526 17.5518 9.82324 17.5536L10.0479 18.8326L11.3267 19.0568C11.3286 19.0552 11.3302 19.0534 11.3321 19.0512L11.088 17.7925L9.82892 17.5483Z" />
<path d="M21.1551 7.72566C16.1914 2.76226 13.3425 5.31258 12.8828 7.0439C12.663 7.87129 12.6841 8.2152 12.6841 8.2152C11.938 7.84784 10.0336 7.33146 8.3982 13.3329L4.88086 17.6632C5.66914 19.0238 6.57334 20.2134 7.62028 21.2606C8.66733 22.3073 9.85734 23.2117 11.2175 24L15.5477 20.4827C16.9529 19.8298 19.2371 19.5712 20.6975 18.1105C23.6915 15.1162 25.6479 12.2184 21.1551 7.72566ZM14.1393 18.3813C13.8441 18.6764 13.3657 18.6764 13.0706 18.3813C13.0008 18.3116 12.9479 18.2312 12.9113 18.1455L11.9881 17.9666L12.1669 18.8897C12.2525 18.9269 12.3329 18.9797 12.4027 19.0495C12.6979 19.3445 12.6979 19.8229 12.4027 20.1181C12.1075 20.4132 11.6292 20.4132 11.3341 20.1181C11.2675 20.0516 11.217 19.9754 11.1804 19.8943L10.2046 19.7234L10.3758 20.6991C10.4568 20.7354 10.533 20.786 10.5995 20.8528C10.8946 21.1478 10.8946 21.6263 10.5994 21.9214C10.3043 22.2166 9.82592 22.2165 9.53083 21.9214C9.23568 21.6263 9.23568 21.1478 9.53083 20.8528C9.53328 20.85 9.53612 20.8482 9.53863 20.8456L9.31412 19.5668L8.03515 19.342C8.0328 19.3447 8.03062 19.3474 8.02817 19.35C7.73297 19.6451 7.25466 19.6451 6.95946 19.3499C6.66437 19.0549 6.66432 18.5764 6.95946 18.2813C7.25466 17.9862 7.73297 17.9862 8.02817 18.2813C8.09471 18.3477 8.14538 18.4239 8.18176 18.5049L9.15785 18.6763L8.98636 17.7004C8.90547 17.664 8.82938 17.6131 8.76283 17.5467C8.4678 17.2516 8.46764 16.7732 8.76283 16.478C9.05798 16.1829 9.53634 16.1829 9.83143 16.478C9.90141 16.5479 9.95415 16.628 9.99092 16.714L10.9141 16.8926L10.7351 15.9697C10.6495 15.9326 10.5693 15.8799 10.4993 15.8099C10.2042 15.5147 10.2043 15.0363 10.4993 14.7413C10.7944 14.4461 11.2728 14.4462 11.5679 14.7413C11.8624 15.0359 11.8629 15.5127 11.5697 15.8081L11.8137 17.0668L13.0727 17.311C13.368 17.0176 13.8449 17.0187 14.1393 17.3127C14.4343 17.6078 14.4344 18.0861 14.1393 18.3813Z" />
<path d="M6.41647 14.5599L6.09634 14.1474L4.86286 14.4984C4.86215 14.5011 4.86106 14.5033 4.86035 14.506L5.62764 15.531L6.41647 14.5599Z" />
<path d="M3.58688 15.9662C3.67633 15.9955 3.75581 16.0404 3.82513 16.0964L4.77291 15.808L4.17918 15.0149C4.0906 15.0188 3.99979 15.0083 3.91033 14.9788C3.51373 14.8488 3.29757 14.4222 3.4275 14.0255C3.55748 13.6288 3.98424 13.4125 4.38089 13.5426C4.47466 13.5733 4.55827 13.6214 4.62967 13.681L5.53398 13.4233L4.95738 12.6808C4.86449 12.6867 4.76882 12.6761 4.675 12.6452C4.2784 12.5153 4.06229 12.0885 4.19222 11.6918C4.3222 11.2952 4.74896 11.0792 5.14556 11.209C5.54102 11.3384 5.75707 11.7636 5.62894 12.1595L6.41548 13.1728L7.64875 12.8213C7.68726 12.7055 7.75152 12.6059 7.83252 12.525C8.52786 10.2434 9.26073 8.99794 9.26073 8.99794C9.26073 8.99794 8.50435 6.97693 6.2003 7.87687C8.92844 6.58432 6.94676 4.51667 6.94676 4.51667C6.94676 4.51667 9.2928 6.30275 11.5594 7.27715C11.6711 7.26046 11.7841 7.25118 11.8984 7.25118C11.9471 7.25118 11.9955 7.25271 12.044 7.25587C12.071 7.13228 12.1037 6.99646 12.1432 6.8476C12.4593 5.65781 13.5397 4.38838 15.2255 4.11719C14.665 2.8597 13.3257 1.53486 10.5284 0.618392C4.49053 -1.35985 2.78921 1.69506 1.47063 5.71836C0.827653 7.68149 1.6287 9.83613 1.6814 11.3847L0.5 16.8367C1.81781 17.6941 3.16181 18.3469 4.56891 18.8079C4.61642 18.8237 4.66415 18.8383 4.71182 18.8535C4.54322 18.5916 4.37893 18.3228 4.21868 18.0462L3.95451 17.5903L4.65007 16.7339L4.07239 16.9095C4.07124 16.9127 4.0708 16.9162 4.06966 16.9195C3.93968 17.3162 3.51291 17.5322 3.11621 17.4022C2.71966 17.2723 2.5035 16.8456 2.63348 16.449C2.76335 16.0522 3.19028 15.836 3.58688 15.9662Z" />
</svg>
