<svg width="25" height="25" viewBox="0 0 25 25" fill="#696E87" xmlns="http://www.w3.org/2000/svg">
<path d="M21.315 17.1203C21.901 17.1203 22.4588 17.2375 22.9604 17.4531C26.115 13.2344 25.6088 7.14531 21.4463 3.5125C17.7338 0.273433 12.1369 0.146871 8.28848 3.22187C6.58223 4.59062 5.43848 6.34375 4.85254 8.23281L17.19 20.5703C17.5369 18.6156 19.2572 17.1203 21.315 17.1203Z" />
<path d="M4.88117 14.4624C5.4671 16.2952 4.96554 18.2921 3.53117 19.5765L3.56398 19.6093L1.4171 21.4702C0.878041 21.9484 0.854604 22.7781 1.36554 23.2843L2.71085 24.6296C3.22179 25.1406 4.04679 25.1124 4.52492 24.5781L6.39054 22.4359L6.42335 22.4687C7.69835 21.0437 9.69523 20.5234 11.5093 21.114C13.3234 21.6999 15.2734 21.7702 17.1155 21.3202V21.3109C17.1155 21.2827 17.1155 21.2546 17.1202 21.2265L4.69367 8.79993C4.2296 10.6656 4.29054 12.6296 4.88117 14.4624Z"/>
<path d="M21.3154 17.636C19.2811 17.636 17.6357 19.2813 17.6357 21.3157C17.6357 23.35 19.2811 25 21.3154 25C23.3498 25 24.9951 23.3547 24.9951 21.3204C24.9998 19.2813 23.3498 17.636 21.3154 17.636Z"/>
</svg>
