<svg width="24" height="24" viewBox="0 0 24 24" fill="#696E87" xmlns="http://www.w3.org/2000/svg">
<path d="M0.171 16.2278C0.0572812 17.0674 0 17.9184 0 18.7781V21.0374C0 22.6709 1.329 23.9999 2.9625 23.9999H5.22188C6.08156 23.9999 6.93248 23.9426 7.77216 23.8289L0.171 16.2278Z" />
<path d="M7.77246 23.829C7.77279 23.829 7.77316 23.8289 7.77349 23.8289C7.77312 23.8289 7.77279 23.829 7.77246 23.829Z" />
<path d="M14.5457 0.477783C13.4967 0.719611 12.469 1.05252 11.4682 1.4758C7.3242 3.2285 3.51959 6.6358 1.47555 11.4684C1.05227 12.4692 0.719367 13.4969 0.477539 14.5459L9.45349 23.5219C10.5025 23.2801 11.5302 22.9472 12.531 22.5239C16.675 20.7712 20.4796 17.3639 22.5236 12.5313C22.9469 11.5305 23.2798 10.5028 23.5217 9.45378L14.5457 0.477783ZM17.0155 9.24327C17.2901 9.51781 17.2901 9.96303 17.0155 10.2376C16.8782 10.3749 16.6983 10.4436 16.5184 10.4436C16.3384 10.4436 16.1585 10.375 16.0212 10.2376L15.3887 9.60514L14.1236 10.8702L14.7562 11.5027C15.0308 11.7772 15.0308 12.2225 14.7562 12.497C14.6189 12.6343 14.4389 12.703 14.259 12.703C14.0791 12.703 13.8991 12.6343 13.7619 12.497L13.1293 11.8645L11.8643 13.1295L12.4968 13.7621C12.7714 14.0366 12.7714 14.4818 12.4968 14.7564C12.3595 14.8937 12.1796 14.9624 11.9997 14.9624C11.8197 14.9624 11.6397 14.8937 11.5025 14.7564L10.8699 14.1239L9.6049 15.3889L10.2374 16.0214C10.512 16.296 10.512 16.7412 10.2374 17.0158C10.1001 17.1531 9.92013 17.2218 9.74023 17.2218C9.56027 17.2218 9.38037 17.1531 9.24307 17.0158L8.61054 16.3833L7.97806 17.0158C7.84076 17.1531 7.66081 17.2218 7.4809 17.2218C7.30099 17.2218 7.12099 17.1531 6.98374 17.0158C6.70915 16.7413 6.70915 16.296 6.98374 16.0214L7.61627 15.3889L6.98374 14.7564C6.70915 14.4818 6.70915 14.0366 6.98374 13.762C7.25834 13.4874 7.70351 13.4874 7.9781 13.762L8.61059 14.3945L9.8756 13.1295L9.24307 12.497C8.96848 12.2225 8.96848 11.7772 9.24307 11.5026C9.51762 11.2281 9.96284 11.2281 10.2374 11.5026L10.87 12.1352L12.135 10.8702L11.5024 10.2376C11.2279 9.96308 11.2279 9.51786 11.5024 9.24327C11.777 8.96872 12.2222 8.96872 12.4968 9.24327L13.1293 9.8758L14.3944 8.61078L13.7619 7.97825C13.4873 7.70371 13.4873 7.25849 13.7619 6.98389C14.0365 6.7093 14.4816 6.7093 14.7562 6.98389L15.3887 7.61642L16.0212 6.98389C16.2957 6.70935 16.741 6.70935 17.0156 6.98389C17.2901 7.25844 17.2901 7.70366 17.0156 7.97825L16.383 8.61078L17.0155 9.24327Z" />
<path d="M21.0381 0H18.7788C17.9191 0 17.0681 0.0572812 16.2285 0.171L23.8296 7.77216C23.9433 6.93253 24.0006 6.08156 24.0006 5.22188V2.9625C24.0006 1.329 22.6716 0 21.0381 0V0Z"/>
<path d="M14.5475 0.477783C14.5473 0.47783 14.5471 0.477877 14.5469 0.477924C14.5471 0.477877 14.5474 0.47783 14.5476 0.477783H14.5475Z" />
</svg>
