<svg width="24" height="24" viewBox="0 0 24 24" fill="#696E87" xmlns="http://www.w3.org/2000/svg">
<path d="M23.7869 19.9319L14.1909 1.93939C13.3512 0.0202034 10.5924 0.0202034 9.75274 1.93939L0.156692 19.9319C-0.443078 21.4913 0.756462 23.2905 2.43573 23.2905H21.6278C23.3071 23.2905 24.5066 21.4913 23.7869 19.9319ZM18.0293 12.495C18.0293 13.8145 16.9498 14.894 15.6303 14.894C14.3108 14.894 13.2313 13.8145 13.2313 12.495C13.2313 11.1755 14.3108 10.096 15.6303 10.096C16.9498 10.096 18.0293 11.1755 18.0293 12.495ZM12.0318 4.0985C13.3513 4.0985 14.4309 5.17805 14.4309 6.49752C14.4309 7.81699 13.3513 8.89655 12.0318 8.89655C10.7124 8.89655 9.6328 7.81699 9.6328 6.49752C9.6328 5.17805 10.7124 4.0985 12.0318 4.0985ZM6.0343 20.8915C4.71482 20.8915 3.63527 19.812 3.63527 18.4925C3.63527 17.173 4.71482 16.0935 6.0343 16.0935C7.35377 16.0935 8.43332 17.173 8.43332 18.4925C8.43332 19.812 7.35377 20.8915 6.0343 20.8915ZM6.0343 12.495C6.0343 11.1755 7.11385 10.096 8.43332 10.096C9.75279 10.096 10.8323 11.1755 10.8323 12.495C10.8323 13.8145 9.75279 14.894 8.43332 14.894C7.11385 14.894 6.0343 13.8145 6.0343 12.495ZM12.0318 20.8915C10.7124 20.8915 9.6328 19.812 9.6328 18.4925C9.6328 17.173 10.7124 16.0935 12.0318 16.0935C13.3513 16.0935 14.4309 17.173 14.4309 18.4925C14.4309 19.812 13.3512 20.8915 12.0318 20.8915ZM18.0293 20.8915C16.7098 20.8915 15.6303 19.812 15.6303 18.4925C15.6303 17.173 16.7098 16.0935 18.0293 16.0935C19.3488 16.0935 20.4283 17.173 20.4283 18.4925C20.4283 19.812 19.3488 20.8915 18.0293 20.8915Z" />
</svg>
