<svg width="24" height="24" viewBox="0 0 24 24" fill="#696E87" xmlns="http://www.w3.org/2000/svg">
<path d="M23.0108 0.0158122L11.1113 11.8918C9.20173 9.98221 8.96298 7.01827 10.3853 4.84014C16.0645 0.135653 21.5885 -0.0737398 23.0108 0.0158122Z"/>
<path d="M17.5766 15.373C16.2637 16.6859 14.553 17.9788 12.7726 19.1425C13.4589 17.1036 13.2302 14.8259 12.0068 12.986L23.9822 0.987061C24.0917 2.5486 23.8923 9.05725 17.5766 15.373Z"/>
<path d="M10.1172 12.8864C8.49204 11.2612 7.85476 9.03407 8.15605 6.91675C7.43209 7.69416 6.71862 8.57759 6.03142 9.52253C5.0636 11.6049 5.41782 14.1546 7.13342 15.8702C8.62046 17.3573 9.27227 19.3482 9.14638 21.2983C9.50899 21.1015 9.87503 20.8984 10.2455 20.6861C12.2947 18.4827 12.262 15.0312 10.1172 12.8864Z" />
<path d="M6.99191 18.0008L5.14395 19.8488L4.14935 18.8542L6.13854 16.865C4.89161 15.6181 4.24134 14.0133 4.12858 12.3784C2.26984 15.4066 0.813283 18.4851 0.252059 20.1631L0 20.9162L2.55884 21.4393L3.0819 23.9981L3.83513 23.746C4.75475 23.4385 6.09671 22.8611 7.61901 22.0976C7.92653 20.7207 7.72614 19.251 6.99191 18.0008Z" />
</svg>
