<svg width="25" height="24" viewBox="0 0 25 24" fill="#696E87" xmlns="http://www.w3.org/2000/svg">
<path d="M4.5804 2.55884C1.80966 4.7384 0.0262541 8.11346 0 11.9123C1.80961 13.5546 4.25729 14.3538 6.7309 14.0413C4.43263 10.4909 3.80506 6.33788 4.5804 2.55884ZM11.6915 0C9.75481 0.0492264 7.93343 0.554618 6.33099 1.41397C5.06207 5.39981 5.58814 9.98247 8.20956 13.7182C9.56212 13.2916 10.7951 12.5256 11.7909 11.4759C9.29442 8.06174 9.25696 3.44177 11.6915 0ZM13.0919 12.135C9.79067 15.9207 4.23108 16.5964 0.134083 13.8036C0.446789 15.8865 1.29348 17.7923 2.53071 19.3783V19.3788C8.78153 20.812 15.0183 17.7842 17.9714 12.4852C16.3595 11.8662 14.6593 11.7799 13.0919 12.135ZM19.2405 13.098C16.2854 18.4766 10.3876 21.6889 4.12799 21.0633C6.23441 22.8936 8.98687 24 12.0014 24C16.7576 24 20.8589 21.2466 22.8017 17.2447C22.1368 15.574 20.9078 14.0817 19.2405 13.098ZM23.7164 9.37365V9.37318C20.1434 6.5293 15.5614 5.65879 11.3704 6.76465C11.5584 8.19409 12.113 9.56024 12.9817 10.7201C17.2033 9.85373 21.4163 11.8464 23.497 15.4632C23.8265 14.3666 24.0033 13.203 24.0033 11.9981C24.0033 11.0966 23.9044 10.218 23.7164 9.37365ZM13.4299 0.0801688C12.1735 1.49789 11.3854 3.3338 11.3052 5.33052C15.1641 4.39241 19.3891 4.95016 22.9827 7.14018C21.3043 3.34318 17.7164 0.586498 13.4299 0.0801688Z" />
</svg>
