<svg width="44" height="44" viewBox="0 0 44 44" fill="none" xmlns="http://www.w3.org/2000/svg">
<g clip-path="url(#clip0)">
<path d="M29.0111 16.1332H27.8799V24.1999H28.7452C29.2286 24.2412 29.7149 24.1697 30.166 23.9913C30.617 23.8128 31.0206 23.5322 31.3449 23.1714C31.9656 22.2452 32.2568 21.1371 32.1717 20.0254C32.2516 18.9871 31.9755 17.9525 31.3889 17.0921C31.0928 16.7604 30.7243 16.5013 30.3119 16.3351C29.8995 16.1688 29.4544 16.0997 29.0111 16.1332Z" fill="white"/>
<path d="M15.5154 17.1028C15.3083 16.2705 15.1726 15.6728 15.1066 15.3135C15.0479 15.6453 14.9233 16.1971 14.7564 16.9635C14.5896 17.7298 14.2064 19.2441 13.5996 21.501H16.6631L16.0416 19.1415C15.8986 18.6171 15.7232 17.9376 15.5154 17.1028Z" fill="white"/>
<path d="M42.1667 5.5H1.83333C1.3471 5.5 0.880788 5.69315 0.536971 6.03697C0.193154 6.38079 0 6.8471 0 7.33333L0 33C0 33.4862 0.193154 33.9525 0.536971 34.2964C0.880788 34.6402 1.3471 34.8333 1.83333 34.8333H26.8895L36.6667 42.1667V34.8333H42.1667C42.6529 34.8333 43.1192 34.6402 43.463 34.2964C43.8068 33.9525 44 33.4862 44 33V7.33333C44 6.8471 43.8068 6.38079 43.463 6.03697C43.1192 5.69315 42.6529 5.5 42.1667 5.5ZM18.1793 27.3937L17.4698 24.6968H12.793L12.0597 27.3937H7.79167L12.4887 12.9397H17.677L22.4327 27.3937H18.1793ZM34.2247 25.4448C33.4715 26.1249 32.59 26.6476 31.6319 26.9823C30.6739 27.3169 29.6587 27.4568 28.6458 27.3937H23.9892V12.9983H28.9667C30.9129 12.8726 32.8319 13.5083 34.3182 14.7712C34.9757 15.4436 35.484 16.2473 35.8097 17.1297C36.1354 18.0121 36.2713 18.9532 36.2083 19.8917C36.274 20.9037 36.1319 21.9184 35.7908 22.8734C35.4497 23.8284 34.9167 24.7035 34.2247 25.4448Z" fill="white"/>
</g>
<defs>
<clipPath id="clip0">
<rect width="44" height="44" fill="white"/>
</clipPath>
</defs>
</svg>
