<svg width="71" height="74" viewBox="0 0 71 74" fill="none" xmlns="http://www.w3.org/2000/svg">
<path d="M35.0815 74.0001C54.4564 74.0001 70.163 58.2936 70.163 38.9186C70.163 19.5437 54.4564 3.83716 35.0815 3.83716C15.7065 3.83716 0 19.5437 0 38.9186C0 58.2936 15.7065 74.0001 35.0815 74.0001Z" fill="#51A427"/>
<path d="M35.0815 70.163C54.4564 70.163 70.163 54.4564 70.163 35.0815C70.163 15.7065 54.4564 0 35.0815 0C15.7065 0 0 15.7065 0 35.0815C0 54.4564 15.7065 70.163 35.0815 70.163Z" fill="#6AD035"/>
<circle cx="35.0811" cy="35.0816" r="30.6963" fill="#5EBF2C"/>
<circle cx="35" cy="35" r="22" fill="#52A427"/>
<path d="M33.6076 33.1577C33.6076 33.1577 36.3588 31.8992 38.2611 30.9919C40.1635 30.0846 42.2122 28.5627 42.3293 26.514C42.4171 25.1092 40.7781 23.9092 38.466 23.3531C36.0661 22.7678 32.8174 22.9141 31.9686 23.7628C31.0028 24.7287 30.9443 25.8994 31.7345 28.0652C32.5247 30.2309 33.6076 33.1577 33.6076 33.1577Z" fill="white"/>
<path d="M34.1341 34.621C34.1341 34.621 35.9487 39.4794 36.5926 41.294C37.2364 43.1086 38.2901 46.2695 41.3339 44.8354C44.3777 43.4013 47.4215 33.8015 45.8703 31.548C44.1728 29.0602 36.1243 33.8601 34.1341 34.621Z" fill="white"/>
<path d="M32.7296 35.2942C32.7296 35.2942 33.7539 38.0453 34.4564 40.0062C35.1588 41.9672 35.6856 45.1866 34.6027 46.5036C33.871 47.4109 31.5589 46.9426 30.2711 46.1524C28.7199 45.2158 26.1444 43.6061 25.7932 41.616C25.3835 39.3916 26.9932 37.9575 29.0712 36.9917C31.1784 35.9966 32.7296 35.2942 32.7296 35.2942Z" fill="white"/>
<path d="M32.1736 33.8017C32.1736 33.8017 31.12 30.9335 30.359 28.8555C29.6273 26.8068 28.3981 25.4312 26.4079 27.0994C24.6226 28.6213 24.0958 31.7822 24.008 33.3919C23.8909 35.6163 25.0616 37.1089 27.4615 35.9675C29.8907 34.8846 32.1736 33.8017 32.1736 33.8017Z" fill="white"/>
</svg>
