<svg width="52" height="54" viewBox="0 0 52 54" fill="none" xmlns="http://www.w3.org/2000/svg">
<path d="M25.6 54C39.7385 54 51.2 42.5385 51.2 28.4C51.2 14.2616 39.7385 2.80005 25.6 2.80005C11.4615 2.80005 0 14.2616 0 28.4C0 42.5385 11.4615 54 25.6 54Z" fill="#D38A34"/>
<path d="M25.6 51.2C39.7385 51.2 51.2 39.7385 51.2 25.6C51.2 11.4615 39.7385 0 25.6 0C11.4615 0 0 11.4615 0 25.6C0 39.7385 11.4615 51.2 25.6 51.2Z" fill="#F8A749"/>
<circle cx="25.6002" cy="25.6" r="22.4" fill="#D6722B"/>
<circle cx="26" cy="26" r="15" fill="#BE6323"/>
<path d="M31.1269 25.9941C30.7411 25.5134 30.1589 25.1832 29.3803 25.0038C30.3718 24.5166 30.8075 23.6896 30.6878 22.5228C30.6478 22.0997 30.5265 21.733 30.3235 21.4222C30.1203 21.1113 29.8461 20.8614 29.4999 20.6723C29.154 20.483 28.7778 20.3389 28.3721 20.2395C27.9663 20.1402 27.5004 20.068 26.9748 20.0232V17.6001H25.438V19.9559C25.1719 19.9559 24.766 19.9623 24.2205 19.9751V17.6001H22.6835V20.0232C22.4638 20.0296 22.1412 20.0329 21.7154 20.0329L19.5996 20.0232V21.6002H20.7073C21.213 21.6002 21.5091 21.8182 21.5956 22.254V25.0137C21.6622 25.0137 21.7154 25.017 21.7553 25.0234H21.5956V28.8887C21.5424 29.2156 21.3495 29.3791 21.0168 29.3791H19.9091L19.5997 31.1388H21.5958C21.7222 31.1388 21.9051 31.1404 22.1447 31.1433C22.3842 31.1466 22.5637 31.1482 22.6835 31.1482V33.6001H24.2208V31.177C24.5002 31.1836 24.906 31.1867 25.4383 31.1867V33.6001H26.9752V31.1482C27.5209 31.1226 28.0049 31.0748 28.4272 31.004C28.8497 30.9332 29.254 30.8228 29.6398 30.6721C30.0256 30.5216 30.3482 30.3339 30.6077 30.1096C30.8673 29.8854 31.0817 29.6 31.2516 29.2538C31.421 28.9076 31.5293 28.5069 31.5757 28.0517C31.6626 27.1609 31.5128 26.4749 31.1269 25.9941ZM24.2504 21.7057C24.297 21.7057 24.4284 21.7041 24.6446 21.7008C24.861 21.6975 25.0405 21.6944 25.1836 21.6911C25.3266 21.688 25.5196 21.696 25.7626 21.7152C26.0054 21.7344 26.21 21.7601 26.3762 21.7921C26.5425 21.8241 26.7257 21.877 26.9251 21.9508C27.1249 22.0244 27.2845 22.1142 27.4041 22.2199C27.5239 22.3257 27.6254 22.4604 27.7084 22.6239C27.7917 22.7873 27.8333 22.9748 27.8333 23.1863C27.8333 23.3658 27.8034 23.5293 27.7436 23.6768C27.6839 23.8242 27.5938 23.9477 27.4742 24.047C27.3545 24.1464 27.2312 24.233 27.1048 24.3067C26.9785 24.3803 26.817 24.4397 26.6208 24.4845C26.4246 24.5294 26.2533 24.5647 26.107 24.5903C25.9606 24.6159 25.7777 24.6336 25.5581 24.6432C25.3384 24.6527 25.172 24.6593 25.059 24.6624C24.9458 24.6656 24.7912 24.6656 24.5948 24.6624C24.3985 24.6593 24.2838 24.6576 24.2505 24.6576V21.7056H24.2504V21.7057ZM28.4472 28.2537C28.3839 28.4012 28.3025 28.5295 28.2028 28.6386C28.1028 28.7474 27.9714 28.8436 27.8084 28.9268C27.6455 29.0103 27.4874 29.0775 27.3345 29.1288C27.1814 29.1803 26.9967 29.2249 26.7806 29.2635C26.5641 29.302 26.3746 29.3291 26.2114 29.3452C26.0485 29.3613 25.854 29.374 25.6277 29.3837C25.4015 29.3932 25.2251 29.398 25.0987 29.398C24.9723 29.398 24.8126 29.3963 24.6196 29.3932C24.4266 29.3902 24.3036 29.3885 24.2503 29.3885V26.1384C24.3035 26.1384 24.4615 26.1352 24.7244 26.1287C24.9873 26.1222 25.2017 26.1192 25.3681 26.1192C25.5344 26.1192 25.7641 26.1287 26.0569 26.1481C26.3495 26.1672 26.5957 26.1959 26.7955 26.2344C26.995 26.2729 27.2128 26.3321 27.4491 26.4123C27.6853 26.4924 27.8766 26.5901 28.0231 26.7055C28.1695 26.8211 28.2925 26.9683 28.3923 27.1479C28.4923 27.3273 28.5421 27.5325 28.5421 27.7633C28.5421 27.943 28.5105 28.1062 28.4472 28.2537Z" fill="white"/>
</svg>
