<svg width="52" height="52" viewBox="0 0 52 52" fill="none" xmlns="http://www.w3.org/2000/svg">
<path d="M47.7557 18.269C46.9061 18.944 45.7984 19.3247 44.6123 19.2521L41.469 19.047C42.4277 21.1696 42.9609 23.5238 42.9609 25.9999C42.9609 33.998 37.3953 40.7214 29.9335 42.5008C29.252 45.1242 27.949 47.4997 26.193 49.4599C39.0356 49.3567 49.4609 38.9339 49.4609 25.9999C49.4609 23.2344 48.9856 20.542 48.0736 18.0161L47.7557 18.269Z" fill="#6AD035"/>
<path d="M12.8141 21.5556C14.5242 21.4619 16.3144 21.6329 18.07 22.1061C20.4907 17.193 26.683 15.6768 31.0741 18.7707L34.6978 15.147C27.2067 9.11611 15.9135 12.3845 12.8141 21.5556Z" fill="#6AD035"/>
<path d="M29.8939 33.9301C30.3671 35.6857 30.538 37.4756 30.4444 39.1859C35.944 37.3273 39.9141 32.1182 39.9141 26.0001C39.9141 22.7017 38.7593 19.6702 36.853 17.3022L33.2292 20.926C36.3216 25.3149 34.809 31.5083 29.8939 33.9301Z" fill="#6AD035"/>
<path d="M27.0552 24.9448C26.4611 24.3496 26.4611 23.3848 27.0552 22.7896L28.8712 20.9737C26.119 19.3963 22.5442 20.3304 20.9483 23.1756C24.3831 24.828 27.172 27.6169 28.8244 31.0517C31.6692 29.4561 32.6039 25.8813 31.0263 23.1288L29.2104 24.9448C28.6201 25.5351 27.6539 25.5435 27.0552 24.9448Z" fill="#6AD035"/>
<path d="M26 9.03907C28.4761 9.03907 30.8303 9.57228 32.9529 10.531L32.7478 7.38766C32.6736 6.25118 33.023 5.13501 33.7319 4.24431L33.9848 3.92642C25.8159 0.976837 16.1487 2.67293 9.41077 9.41079C5.0253 13.7963 2.58984 19.6127 2.54007 25.807C4.50022 24.051 6.87577 22.748 9.49913 22.0665C11.2785 14.6047 18.0019 9.03907 26 9.03907Z" fill="#6AD035"/>
<path d="M31.074 18.7708L28.8712 20.9736C29.7659 21.4875 30.5124 22.234 31.0263 23.1288L33.2292 20.9259C32.6412 20.089 31.9109 19.3588 31.074 18.7708Z" fill="#6AD035"/>
<path d="M50.6028 8.931L45.2196 8.93567L49.8276 4.32758C50.4217 3.73242 50.4217 2.76758 49.8276 2.17242C49.2324 1.57828 48.2676 1.57828 47.6724 2.17242L43.0643 6.78052L43.069 1.3973C43.0697 0.625727 42.4445 0 41.673 0C41.2475 0 40.8452 0.194086 40.5804 0.527109L36.1161 6.14108C35.8805 6.43734 35.7637 6.81078 35.7883 7.18849L36.2093 13.6354L34.6978 15.147C35.492 15.7848 36.2152 16.508 36.853 17.3022L38.3645 15.7906L44.8115 16.2116C45.1892 16.2363 45.5627 16.1194 45.8589 15.8838L51.4729 11.4195C51.8059 11.1546 52 10.7523 52 10.3269C52 9.55551 51.3743 8.93029 50.6028 8.931Z" fill="#6AD035"/>
<path d="M13.7109 24.5781C6.15062 24.5781 0 30.7287 0 38.2891C0 45.8494 6.15062 52 13.7109 52C21.2712 52 27.4219 45.8494 27.4219 38.2891C27.4219 30.7287 21.2712 24.5781 13.7109 24.5781ZM18.0427 41.3136C17.7655 42.9621 16.6235 44.2724 15.1253 44.8142V45.1953C15.1253 46.0611 14.4031 46.7583 13.5282 46.717C12.7088 46.6784 12.0784 45.9726 12.0784 45.1522V44.9866C11.3917 44.8661 10.7629 44.6122 9.9772 44.1049C9.27702 43.6529 9.02302 42.7254 9.45283 42.0113C9.90072 41.2672 10.8723 41.0498 11.5927 41.521C12.3353 42.0068 12.5748 42.0444 13.5913 42.0376C14.5712 42.0311 14.9618 41.2619 15.038 40.8084C15.1064 40.4013 15.0295 39.8599 14.2745 39.593C13.0096 39.1459 11.7125 38.6329 10.7938 37.9121C8.70137 36.271 9.33309 32.5226 12.0784 31.5254V31.3676C12.0784 30.5018 12.8006 29.8046 13.6755 29.8459C14.4528 29.8824 15.1253 30.5364 15.1253 31.4381C15.8202 31.6077 16.3561 31.8613 16.8978 32.1933C17.6357 32.646 17.8524 33.6262 17.3598 34.3504C16.9274 34.9859 16.0283 35.2344 15.2217 34.7396C14.8062 34.4847 14.0677 34.2208 13.3754 34.3537C13.0086 34.4242 12.6868 34.6647 12.6154 35.0446C12.5658 35.3077 12.6492 35.4735 12.6741 35.5147C12.9005 35.8892 14.3189 36.3771 15.2899 36.7204C17.28 37.4239 18.3864 39.2697 18.0427 41.3136Z" fill="#222638"/>
</svg>
