<svg width="52" height="52" viewBox="0 0 52 52" fill="none" xmlns="http://www.w3.org/2000/svg">
<path d="M32.5 28.1667C31.3018 28.1667 30.3333 29.1373 30.3333 30.3333V39C30.3333 40.1938 29.3627 41.1667 28.1667 41.1667H21.6667V8.66667C21.6667 6.81633 20.488 5.16317 18.7157 4.54783L18.0743 4.33333H28.1667C29.3627 4.33333 30.3333 5.30617 30.3333 6.5V13C30.3333 14.196 31.3018 15.1667 32.5 15.1667C33.6982 15.1667 34.6667 14.196 34.6667 13V6.5C34.6667 2.91633 31.7503 0 28.1667 0H4.875C4.79267 0 4.72333 0.0368333 4.64317 0.0476667C4.53917 0.039 4.4395 0 4.33333 0C1.9435 0 0 1.9435 0 4.33333V43.3333C0 45.1837 1.17867 46.8368 2.951 47.4522L15.99 51.7985C16.432 51.935 16.8718 52 17.3333 52C19.7232 52 21.6667 50.0565 21.6667 47.6667V45.5H28.1667C31.7503 45.5 34.6667 42.5837 34.6667 39V30.3333C34.6667 29.1373 33.6982 28.1667 32.5 28.1667Z" fill="#6AD035"/>
<path d="M51.3652 20.1349L42.6985 11.4683C42.0788 10.8486 41.1472 10.6623 40.3368 10.9981C39.5287 11.3339 39 12.1248 39 13.0001V19.5001H30.3333C29.1373 19.5001 28.1667 20.4708 28.1667 21.6668C28.1667 22.8628 29.1373 23.8334 30.3333 23.8334H39V30.3334C39 31.2088 39.5287 31.9996 40.3368 32.3354C41.1472 32.6713 42.0788 32.4849 42.6985 31.8653L51.3652 23.1986C52.2123 22.3514 52.2123 20.9821 51.3652 20.1349Z" fill="#222638"/>
</svg>
