<svg width="52" height="48" viewBox="0 0 52 48" fill="none" xmlns="http://www.w3.org/2000/svg">
<path d="M35.7153 0.437458C35.0307 0.0582909 34.1857 0.0777908 33.5162 0.495957L16.7115 11H8.66667C3.887 11 0 14.887 0 19.6666C0 24.4463 3.887 28.3333 8.66667 28.3333H16.7115L33.5183 38.8373C33.8693 39.0561 34.2658 39.1666 34.6667 39.1666C35.0285 39.1666 35.3903 39.0756 35.7153 38.8958C36.4065 38.5123 36.8333 37.7865 36.8333 37V2.33329C36.8333 1.54679 36.4065 0.820958 35.7153 0.437458Z" fill="#6AD035"/>
<path d="M49.8333 17.5H45.5C44.3034 17.5 43.3333 18.47 43.3333 19.6667C43.3333 20.8633 44.3034 21.8333 45.5 21.8333H49.8333C51.0299 21.8333 52 20.8633 52 19.6667C52 18.47 51.0299 17.5 49.8333 17.5Z" fill="#222638"/>
<path d="M45.5598 5.87396L41.8048 8.04127C40.7684 8.63946 40.4132 9.96455 41.0114 11.0009C41.6096 12.0373 42.9347 12.3926 43.9711 11.7944L47.726 9.62706C48.7624 9.02887 49.1177 7.70378 48.5195 6.66739C47.9213 5.631 46.5962 5.27577 45.5598 5.87396Z" fill="#222638"/>
<path d="M47.7252 29.706L43.9702 27.5386C42.9338 26.9404 41.6087 27.2957 41.0105 28.3321C40.4123 29.3685 40.7676 30.6935 41.804 31.2917L45.5589 33.4591C46.5953 34.0572 47.9204 33.702 48.5186 32.6656C49.1168 31.6292 48.7616 30.3041 47.7252 29.706Z" fill="#222638"/>
<path d="M16.6877 32.6666H9.07834L15.0042 45.7685C15.7885 47.5256 17.8468 48.3121 19.604 47.53C21.3612 46.7456 22.1477 44.6873 21.3655 42.9301L16.6877 32.6666Z" fill="#6AD035"/>
</svg>
