<svg width="34" height="40" viewBox="0 0 34 40" fill="none" xmlns="http://www.w3.org/2000/svg">
<path d="M3.71796 34.9509L16.4496 39.1715C16.8157 39.2761 17.1995 39.2761 17.5483 39.1715L30.2973 34.9509C30.9601 34.7242 31.4309 34.1313 31.4833 33.4161L33.8377 2.63357C33.9249 1.62205 33.1227 0.75 32.0937 0.75H1.90404C0.892511 0.75 0.0902943 1.62205 0.160034 2.63357L2.53187 33.4161C2.58424 34.1313 3.05522 34.7242 3.71796 34.9509ZM27.5766 7.95298V11.9643H11.2348L11.8801 16.3593H27.1232L26.2686 29.4397L16.9378 32.6139L7.97338 29.3699L7.50248 22.7076H12.1591V25.9864L17.3913 27.2944L22.0654 25.7946L22.6235 20.6671H7.22344L6.28164 7.95298H27.5766Z" fill="white"/>
</svg>
