<svg width="44" height="44" viewBox="0 0 44 44" fill="none" xmlns="http://www.w3.org/2000/svg">
<path d="M34.833 14.6667C38.8663 14.6667 42.1663 11.3667 42.1663 7.33333C42.1663 3.3 38.8663 0 34.833 0C30.7997 0 27.4997 3.3 27.4997 7.33333C27.4997 8.06667 27.683 8.61667 27.8663 9.16667L14.483 16.8667C13.0163 15.5833 11.183 14.6667 9.16634 14.6667C5.13301 14.6667 1.83301 17.9667 1.83301 22C1.83301 26.0333 5.13301 29.3333 9.16634 29.3333C11.183 29.3333 13.0163 28.4167 14.483 27.1333L27.8663 34.8333C27.683 35.3833 27.4997 36.1167 27.4997 36.6667C27.4997 40.7 30.7997 44 34.833 44C38.8663 44 42.1663 40.7 42.1663 36.6667C42.1663 32.6333 38.8663 29.3333 34.833 29.3333C32.8163 29.3333 30.983 30.25 29.5163 31.5333L16.133 23.8333C16.3163 23.2833 16.4997 22.7333 16.4997 22C16.4997 21.2667 16.3163 20.7167 16.133 20.1667L29.5163 12.4667C30.983 13.75 32.8163 14.6667 34.833 14.6667Z" fill="white"/>
</svg>
