<svg width="44" height="44" viewBox="0 0 44 44" fill="none" xmlns="http://www.w3.org/2000/svg">
<path d="M21.7503 30.0261C21.6244 31.7316 20.8936 33.3362 19.6896 34.5507L17.8563 36.3841C16.4949 37.7261 14.6582 38.4753 12.7466 38.4685C10.835 38.4616 9.0036 37.6992 7.65189 36.3475C6.30017 34.9958 5.53775 33.1644 5.5309 31.2528C5.52405 29.3412 6.27332 27.5044 7.61531 26.1431L9.44864 24.3097C10.6634 23.106 12.2678 22.3753 13.9733 22.2491L17.3026 18.9197C15.468 18.4332 13.5379 18.4357 11.7045 18.9268C9.87115 19.418 8.19835 20.3807 6.85264 21.7192L5.01931 23.5526C2.97398 25.5981 1.82502 28.3724 1.8252 31.2651C1.82537 34.1578 2.97465 36.932 5.02022 38.9773C7.06579 41.0227 9.84009 42.1716 12.7328 42.1714C15.6255 42.1713 18.3996 41.022 20.445 38.9764L22.2783 37.1431C23.6162 35.7969 24.5785 34.1241 25.0697 32.2909C25.5608 30.4576 25.5636 28.5278 25.0778 26.6931L21.7503 30.0261Z" fill="white"/>
<path d="M30.0261 21.7503C31.7316 21.6244 33.3362 20.8936 34.5507 19.6896L36.3841 17.8563C37.7261 16.4949 38.4753 14.6582 38.4685 12.7466C38.4616 10.835 37.6992 9.0036 36.3475 7.65189C34.9958 6.30017 33.1644 5.53775 31.2528 5.5309C29.3412 5.52405 27.5044 6.27332 26.1431 7.61531L24.3097 9.44864C23.106 10.6634 22.3753 12.2678 22.2491 13.9733L18.9197 17.3026C18.4332 15.468 18.4357 13.5379 18.9268 11.7045C19.418 9.87115 20.3807 8.19835 21.7192 6.85264L23.5526 5.01931C25.5981 2.97398 28.3724 1.82502 31.2651 1.8252C34.1578 1.82537 36.932 2.97465 38.9773 5.02022C41.0227 7.06579 42.1716 9.84009 42.1714 12.7328C42.1713 15.6255 41.022 18.3996 38.9764 20.445L37.1431 22.2783C35.7969 23.6162 34.1241 24.5785 32.2909 25.0697C30.4576 25.5608 28.5278 25.5636 26.6931 25.0778L30.0261 21.7503Z" fill="white"/>
<path d="M14.666 31.1663C14.3034 31.1662 13.949 31.0586 13.6476 30.8572C13.3462 30.6557 13.1113 30.3694 12.9725 30.0345C12.8338 29.6995 12.7975 29.331 12.8682 28.9754C12.9389 28.6198 13.1135 28.2932 13.3698 28.0368L28.0365 13.3701C28.3822 13.0362 28.8453 12.8514 29.326 12.8555C29.8067 12.8597 30.2665 13.0525 30.6065 13.3924C30.9464 13.7324 31.1392 14.1922 31.1434 14.6729C31.1475 15.1536 30.9627 15.6167 30.6288 15.9624L15.9621 30.6291C15.6184 30.9729 15.1521 31.1662 14.666 31.1663Z" fill="white"/>
</svg>
