<svg width="44" height="43" viewBox="0 0 44 43" fill="none" xmlns="http://www.w3.org/2000/svg">
<path d="M29.3333 0H14.6667V7.33333H29.3333V0Z" fill="white"/>
<path d="M42.1667 3.66669H33V9.16669C33 10.1787 32.1787 11 31.1667 11H12.8333C11.8213 11 11 10.1787 11 9.16669V3.66669H1.83333C0.821333 3.66669 0 4.48802 0 5.50002V38.5C0 39.0738 0.2695 39.6165 0.727833 39.9648C1.188 40.3095 1.78567 40.4195 2.33567 40.2637L14.5897 36.762L28.688 42.0512C28.897 42.1282 29.1152 42.1667 29.3333 42.1667C29.4195 42.1667 29.5075 42.1612 29.5937 42.1483L42.427 40.315C43.329 40.1867 44 39.413 44 38.5V5.50002C44 4.48802 43.1787 3.66669 42.1667 3.66669ZM19.0923 27.5L16.5 30.0924L11.5372 25.1295C10.8203 24.4127 10.8203 23.254 11.5372 22.5372L16.5 17.5744L19.0923 20.1667L15.4257 23.8334L19.0923 27.5ZM32.4628 25.1295L27.5 30.0924L24.9077 27.5L28.5743 23.8334L24.9077 20.1667L27.5 17.5744L32.4628 22.5372C33.1797 23.254 33.1797 24.4127 32.4628 25.1295Z" fill="white"/>
</svg>
