<svg width="24" height="24" viewBox="0 0 24 24" fill="none" xmlns="http://www.w3.org/2000/svg">
<path d="M20.1368 18.5454V7.04541H22.9095C23.2356 7.04541 23.5004 7.31028 23.5004 7.63632V22.909C23.5004 23.2351 23.2356 23.5 22.9095 23.5H7.63681C7.31077 23.5 7.0459 23.2351 7.0459 22.909V20.1363H18.5459C19.4242 20.1363 20.1368 19.4237 20.1368 18.5454Z" fill="#696E87" stroke="#696E87"/>
<path d="M16.3636 16.9545H1.09091C0.763779 16.9545 0.5 16.6908 0.5 16.3636V1.09091C0.5 0.764544 0.764104 0.5 1.09091 0.5H16.3636C16.6904 0.5 16.9545 0.764544 16.9545 1.09091V16.3636C16.9545 16.6908 16.6908 16.9545 16.3636 16.9545Z" fill="#696E87" stroke="#696E87"/>
</svg>
