<svg width="16" height="17" viewBox="0 0 16 17" fill="none" xmlns="http://www.w3.org/2000/svg">
<path d="M2.08696 3.08696V1H3.47826V3.08696H5.56522V4.47826H3.47826V6.56522H2.08696V4.47826H0V3.08696H2.08696ZM4.17391 7.26087V5.17391H6.26087V3.08696H11.1304L12.4035 4.47826H14.6087C15.3739 4.47826 16 5.10435 16 5.86957V14.2174C16 14.9826 15.3739 15.6087 14.6087 15.6087H3.47826C2.71304 15.6087 2.08696 14.9826 2.08696 14.2174V7.26087H4.17391ZM9.04348 13.5217C10.9635 13.5217 12.5217 11.9635 12.5217 10.0435C12.5217 8.12348 10.9635 6.56522 9.04348 6.56522C7.12348 6.56522 5.56522 8.12348 5.56522 10.0435C5.56522 11.9635 7.12348 13.5217 9.04348 13.5217ZM6.81739 10.0435C6.81739 11.2748 7.81217 12.2696 9.04348 12.2696C10.2748 12.2696 11.2696 11.2748 11.2696 10.0435C11.2696 8.81217 10.2748 7.81739 9.04348 7.81739C7.81217 7.81739 6.81739 8.81217 6.81739 10.0435Z" fill="#696E87"/>
</svg>
