<svg width="16" height="16" viewBox="0 0 16 16" fill="none" xmlns="http://www.w3.org/2000/svg">
<path fill-rule="evenodd" clip-rule="evenodd" d="M0 3C0 1.34315 1.34315 0 3 0H13C14.6569 0 16 1.34315 16 3V13C16 14.6569 14.6569 16 13 16H3C1.34315 16 0 14.6569 0 13V3ZM9.08333 6.14399L11.1363 8.197C11.4292 8.48989 11.9041 8.48989 12.197 8.197C12.4899 7.9041 12.4899 7.42923 12.197 7.13634L8.86366 3.803C8.57077 3.51011 8.0959 3.51011 7.803 3.803L4.46967 7.13634C4.17678 7.42923 4.17678 7.9041 4.46967 8.197C4.76256 8.48989 5.23744 8.48989 5.53033 8.197L7.58333 6.14399V12.3337C7.58333 12.7479 7.91912 13.0837 8.33333 13.0837C8.74755 13.0837 9.08333 12.7479 9.08333 12.3337V6.14399Z" fill="#696E87"/>
</svg>
