<svg width="16" height="16" viewBox="0 0 16 16" fill="none" xmlns="http://www.w3.org/2000/svg">
<path d="M2.95443 3.33333H1.62109V0.666667C1.62109 0.298 1.91976 0 2.28776 0H4.95443V1.33333H2.95443V3.33333Z" fill="white"/>
<path d="M13.6224 3.33333H12.2891V1.33333H10.2891V0H12.9557C13.3237 0 13.6224 0.298 13.6224 0.666667V3.33333Z" fill="white"/>
<path d="M14.2884 16V8.66667C14.2884 7.93 13.6917 7.33333 12.9551 7.33333H8.95505V3.334C8.95505 2.59733 8.35772 2 7.62172 2C6.88505 2 6.28839 2.59667 6.28839 3.33333V10.6667L3.46972 8.412C3.14839 8.15533 2.71905 8.07867 2.32905 8.20867C1.61305 8.44733 1.28705 9.276 1.64839 9.93867L4.95505 16H14.2884Z" fill="white"/>
</svg>
