<svg width="62" height="62" viewBox="0 0 62 62" fill="none" xmlns="http://www.w3.org/2000/svg">
<path d="M12.6816 39.4737C12.4569 39.4735 12.2413 39.3842 12.0824 39.2252C11.9235 39.0663 11.8341 38.8508 11.834 38.626V23.3711C11.834 23.1463 11.9233 22.9307 12.0823 22.7717C12.2412 22.6127 12.4568 22.5234 12.6816 22.5234C12.9065 22.5234 13.1221 22.6127 13.281 22.7717C13.44 22.9307 13.5293 23.1463 13.5293 23.3711V38.626C13.5292 38.8508 13.4398 39.0663 13.2809 39.2252C13.1219 39.3842 12.9064 39.4735 12.6816 39.4737Z" fill="#D7DBF7"/>
<path d="M49.3164 39.4737C49.0916 39.4735 48.8761 39.3842 48.7172 39.2252C48.5582 39.0663 48.4689 38.8508 48.4688 38.626V23.3711C48.4688 23.1463 48.5581 22.9307 48.717 22.7717C48.876 22.6127 49.0916 22.5234 49.3164 22.5234C49.5412 22.5234 49.7568 22.6127 49.9158 22.7717C50.0748 22.9307 50.1641 23.1463 50.1641 23.3711V38.626C50.1641 38.8508 50.0748 39.0664 49.9158 39.2254C49.7568 39.3844 49.5412 39.4737 49.3164 39.4737Z" fill="#D7DBF7"/>
<path d="M37.4794 12.9551H24.5156C24.2908 12.9551 24.0752 12.8658 23.9162 12.7068C23.7573 12.5478 23.668 12.3322 23.668 12.1074C23.668 11.8826 23.7573 11.667 23.9162 11.508C24.0752 11.3491 24.2908 11.2598 24.5156 11.2598H37.4794C37.7042 11.2598 37.9198 11.3491 38.0788 11.508C38.2378 11.667 38.3271 11.8826 38.3271 12.1074C38.3271 12.3322 38.2378 12.5478 38.0788 12.7068C37.9198 12.8658 37.7042 12.9551 37.4794 12.9551Z" fill="#6AD035"/>
<path d="M37.4794 50.7344H24.5156C24.2908 50.7344 24.0752 50.6451 23.9162 50.4861C23.7573 50.3271 23.668 50.1115 23.668 49.8867C23.668 49.6619 23.7573 49.4463 23.9162 49.2873C24.0752 49.1284 24.2908 49.0391 24.5156 49.0391H37.4794C37.7042 49.0391 37.9198 49.1284 38.0788 49.2873C38.2378 49.4463 38.3271 49.6619 38.3271 49.8867C38.3271 50.1115 38.2378 50.3271 38.0788 50.4861C37.9198 50.6451 37.7042 50.7344 37.4794 50.7344Z" fill="#6AD035"/>
<path d="M12.6829 0.845703L24.5181 6.47705L12.6829 12.1079L0.847656 6.47705L12.6829 0.845703Z" fill="#313549"/>
<path d="M12.6829 12.1074L0.847656 6.47656V17.7388L12.6829 23.3701L24.5181 17.7388V6.47656L12.6829 12.1074Z" fill="#696E87"/>
<path d="M49.3176 0.845703L37.4824 6.47705L49.3176 12.1079L61.1529 6.47705L49.3176 0.845703Z" fill="#313549"/>
<path d="M49.3176 12.1074L61.1529 6.47656V17.7388L49.3176 23.3701L37.4824 17.7388V6.47656L49.3176 12.1074Z" fill="#696E87"/>
<path d="M12.6829 38.625L24.5181 44.2563L12.6829 49.8877L0.847656 44.2563L12.6829 38.625Z" fill="#313549"/>
<path d="M12.6829 49.8872L0.847656 44.2559V55.5181L12.6829 61.1494L24.5181 55.5181V44.2559L12.6829 49.8872Z" fill="#696E87"/>
<path d="M49.3176 38.625L37.4824 44.2563L49.3176 49.8877L61.1529 44.2563L49.3176 38.625Z" fill="#313549"/>
<path d="M49.3176 49.8872L61.1529 44.2559V55.5181L49.3176 61.1494L37.4824 55.5181V44.2559L49.3176 49.8872Z" fill="#696E87"/>
<path d="M30.9997 40.5971C36.3002 40.5971 40.5971 36.3002 40.5971 30.9997C40.5971 25.6992 36.3002 21.4023 30.9997 21.4023C25.6992 21.4023 21.4023 25.6992 21.4023 30.9997C21.4023 36.3002 25.6992 40.5971 30.9997 40.5971Z" fill="white"/>
<path d="M30.9998 36.7212C29.868 36.7212 28.7616 36.3856 27.8206 35.7568C26.8795 35.128 26.1461 34.2343 25.7129 33.1887C25.2798 32.143 25.1665 30.9924 25.3873 29.8824C25.6081 28.7724 26.1531 27.7527 26.9534 26.9524C27.7537 26.1521 28.7733 25.6071 29.8834 25.3863C30.9934 25.1655 32.144 25.2788 33.1896 25.712C34.2353 26.1451 35.129 26.8785 35.7578 27.8196C36.3866 28.7606 36.7222 29.867 36.7222 30.9988C36.7204 32.5159 36.1169 33.9704 35.0441 35.0432C33.9714 36.1159 32.5169 36.7194 30.9998 36.7212Z" fill="#6DD338"/>
</svg>
