<svg width="46" height="62" viewBox="0 0 46 62" fill="none" xmlns="http://www.w3.org/2000/svg">
<path d="M41.5765 5.82072C40.7542 6.77568 39.7377 7.54426 38.5948 8.07516C37.4519 8.60605 36.2089 8.88706 34.9488 8.89941H30.3031C26.2697 8.89941 22.9997 5.29372 22.9997 0.845703C22.9997 5.29372 19.7297 8.89941 15.6963 8.89941H11.0507C9.79053 8.88712 8.54752 8.60614 7.40461 8.07524C6.2617 7.54434 5.2452 6.77573 4.42297 5.82072L0.0175781 0.845703V32.3126C0.0175781 40.4666 3.8393 48.0417 10.1221 52.3411L22.9997 61.1533L35.8773 52.3411C42.1601 48.0417 45.9819 40.4666 45.9819 32.3126V0.845703L41.5765 5.82072Z" fill="#6DD338"/>
<path d="M12.3105 49.1432C7.11803 45.5899 3.89258 39.1409 3.89258 32.3131V10.4988C5.99055 11.9697 8.48802 12.764 11.0502 12.7754H15.6963C18.4107 12.765 21.0203 11.7266 22.9997 9.86914C24.9791 11.7266 27.5887 12.765 30.3031 12.7754H34.9492C37.5114 12.7637 40.0088 11.9694 42.1069 10.4988V32.3131C42.1069 39.1428 38.8814 45.5899 33.6884 49.1437L22.9997 56.4583L12.3105 49.1432Z" fill="#FFFBF4"/>
<path d="M23.0004 45.0603C30.766 45.0603 37.0613 38.765 37.0613 30.9994C37.0613 23.2338 30.766 16.9385 23.0004 16.9385C15.2347 16.9385 8.93945 23.2338 8.93945 30.9994C8.93945 38.765 15.2347 45.0603 23.0004 45.0603Z" fill="#D7DBF7"/>
<path d="M27.2517 30.1518H23.8475V26.0438H27.2517C27.4765 26.0438 27.6922 25.9545 27.8511 25.7955C28.0101 25.6366 28.0994 25.421 28.0994 25.1962C28.0994 24.9713 28.0101 24.7557 27.8511 24.5968C27.6922 24.4378 27.4765 24.3485 27.2517 24.3485H23.8475V22.5156C23.8475 22.2908 23.7582 22.0752 23.5993 21.9162C23.4403 21.7573 23.2247 21.668 22.9999 21.668C22.7751 21.668 22.5595 21.7573 22.4005 21.9162C22.2415 22.0752 22.1522 22.2908 22.1522 22.5156V24.3485H21.3288C20.4201 24.3494 19.549 24.7107 18.9064 25.3532C18.2638 25.9957 17.9024 26.8668 17.9014 27.7755V30.9995C17.9013 31.1108 17.9232 31.221 17.9658 31.3239C18.0083 31.4268 18.0708 31.5203 18.1495 31.599C18.2282 31.6777 18.3217 31.7401 18.4246 31.7827C18.5274 31.8253 18.6377 31.8472 18.749 31.8471H22.1522V35.9551H18.748C18.5232 35.9551 18.3076 36.0444 18.1487 36.2034C17.9897 36.3623 17.9004 36.5779 17.9004 36.8028C17.9004 37.0276 17.9897 37.2432 18.1487 37.4021C18.3076 37.5611 18.5232 37.6504 18.748 37.6504H22.1522V39.4833C22.1522 39.7081 22.2415 39.9237 22.4005 40.0827C22.5595 40.2416 22.7751 40.3309 22.9999 40.3309C23.2247 40.3309 23.4403 40.2416 23.5993 40.0827C23.7582 39.9237 23.8475 39.7081 23.8475 39.4833V37.6504H24.671C25.5796 37.6494 26.4506 37.288 27.0931 36.6455C27.7355 36.0031 28.0969 35.132 28.0979 34.2235V30.9995C28.0981 30.7749 28.009 30.5594 27.8503 30.4004C27.6916 30.2415 27.4763 30.1521 27.2517 30.1518ZM19.5957 30.1518V27.7755C19.5962 27.3163 19.7789 26.876 20.1036 26.5514C20.4284 26.2267 20.8686 26.0442 21.3278 26.0438H22.1513V30.1518H19.5957ZM26.4041 34.2235C26.4037 34.6826 26.2211 35.1228 25.8965 35.4475C25.5718 35.7721 25.1316 35.9547 24.6724 35.9551H23.849V31.8471H26.4055L26.4041 34.2235Z" fill="#696E87"/>
</svg>
