<svg width="64" height="64" viewBox="0 0 64 64" fill="none" xmlns="http://www.w3.org/2000/svg">
<path d="M24.0239 0.876953H39.977V6.65945C39.977 7.22348 39.7529 7.76441 39.3542 8.16329C38.9554 8.56216 38.4145 8.78631 37.8505 8.78645H26.1504C25.5863 8.78645 25.0453 8.56235 24.6464 8.16346C24.2475 7.76457 24.0234 7.22356 24.0234 6.65945V0.876953H24.0239Z" fill="#696E87"/>
<path d="M13.8605 47.0571H11.0155C7.23646 47.057 3.6035 45.5973 0.875 42.9826V29.5901C3.6035 26.9755 7.23646 25.5157 11.0155 25.5156H13.8605V47.0571Z" fill="#696E87"/>
<path d="M16.1319 50.4326C15.5292 50.4326 14.9512 50.1932 14.525 49.767C14.0988 49.3408 13.8594 48.7628 13.8594 48.1601V24.4136C13.8594 23.8109 14.0988 23.2328 14.5249 22.8065C14.9511 22.3803 15.5291 22.1408 16.1319 22.1406C16.7346 22.1408 17.3126 22.3803 17.7388 22.8065C18.165 23.2328 18.4044 23.8109 18.4044 24.4136V48.1601C18.4044 48.7628 18.165 49.3408 17.7388 49.767C17.3126 50.1932 16.7346 50.4326 16.1319 50.4326Z" fill="#6DD338"/>
<path d="M9.40269 29.8945H13.8597V42.6801H9.40269C8.86284 42.6801 8.3451 42.4656 7.96337 42.0839C7.58164 41.7021 7.36719 41.1844 7.36719 40.6446V31.93C7.36719 31.3902 7.58164 30.8724 7.96337 30.4907C8.3451 30.109 8.86284 29.8945 9.40269 29.8945Z" fill="#313549"/>
<path d="M24.022 0.876953H18.533C14.8678 0.881055 11.3537 2.33876 8.76181 4.93032C6.16988 7.52187 4.71166 11.0357 4.70703 14.701V26.9465C6.37595 26.1508 8.18036 25.6782 10.025 25.5535V14.701C10.0281 12.4456 10.9255 10.2834 12.5204 8.68878C14.1154 7.09412 16.2776 6.1971 18.533 6.19445H24.022V0.876953Z" fill="#D7DBF7"/>
<path d="M50.1406 47.0571H52.9856C56.7647 47.057 60.3976 45.5973 63.1261 42.9826V29.5901C60.3976 26.9755 56.7647 25.5157 52.9856 25.5156H50.1406V47.0571Z" fill="#696E87"/>
<path d="M47.8662 50.4326C48.469 50.4326 49.047 50.1932 49.4731 49.767C49.8993 49.3408 50.1387 48.7628 50.1387 48.1601V24.4136C50.1387 23.8109 49.8993 23.2328 49.4732 22.8065C49.047 22.3803 48.469 22.1408 47.8662 22.1406C47.2635 22.1408 46.6855 22.3803 46.2593 22.8065C45.8332 23.2328 45.5937 23.8109 45.5938 24.4136V48.1601C45.5938 48.7628 45.8332 49.3408 46.2593 49.767C46.6855 50.1932 47.2635 50.4326 47.8662 50.4326Z" fill="#6DD338"/>
<path d="M54.5973 42.6797H50.1403V29.8942H54.5973C55.1372 29.8942 55.6549 30.1086 56.0366 30.4904C56.4184 30.8721 56.6328 31.3898 56.6328 31.9297V40.6442C56.6328 41.184 56.4184 41.7018 56.0366 42.0835C55.6549 42.4652 55.1372 42.6797 54.5973 42.6797Z" fill="#313549"/>
<path d="M45.4656 0.876953H39.9766V6.19445H45.4656C47.721 6.1971 49.8832 7.09412 51.4782 8.68878C53.0731 10.2834 53.9705 12.4456 53.9736 14.701V25.551C55.8182 25.6757 57.6226 26.1483 59.2916 26.944V14.701C59.2869 11.0357 57.8287 7.52187 55.2368 4.93032C52.6448 2.33876 49.1308 0.881055 45.4656 0.876953Z" fill="#D7DBF7"/>
<path d="M36.6602 56.127H44.4102C44.9406 56.127 45.4493 56.3377 45.8244 56.7127C46.1994 57.0878 46.4102 57.5965 46.4102 58.127V61.127C46.4102 61.6574 46.1994 62.1661 45.8244 62.5412C45.4493 62.9162 44.9406 63.127 44.4102 63.127H36.6602C35.9971 63.127 35.3612 62.8636 34.8924 62.3947C34.4236 61.9259 34.1602 61.29 34.1602 60.627V58.627C34.1602 57.9639 34.4236 57.328 34.8924 56.8592C35.3612 56.3903 35.9971 56.127 36.6602 56.127Z" fill="white"/>
<path d="M55.9348 46.7538V54.1258C55.9338 55.0537 55.5647 55.9433 54.9085 56.5995C54.2524 57.2556 53.3628 57.6247 52.4348 57.6258H46.3403C46.3851 57.7888 46.409 57.9568 46.4113 58.1258V61.1258C46.409 61.2948 46.385 61.4629 46.3398 61.6258H52.4348C54.4233 61.6237 56.3297 60.8328 57.7358 59.4267C59.1419 58.0207 59.9327 56.1143 59.9348 54.1258V45.3008C58.6794 45.9774 57.3318 46.4669 55.9348 46.7538Z" fill="#D7DBF7"/>
<path d="M35.5625 5.70703H28.4375C28.2054 5.70703 27.9829 5.61484 27.8188 5.45075C27.6547 5.28665 27.5625 5.06409 27.5625 4.83203C27.5625 4.59997 27.6547 4.37741 27.8188 4.21331C27.9829 4.04922 28.2054 3.95703 28.4375 3.95703H35.5625C35.7946 3.95703 36.0171 4.04922 36.1812 4.21331C36.3453 4.37741 36.4375 4.59997 36.4375 4.83203C36.4375 5.06409 36.3453 5.28665 36.1812 5.45075C36.0171 5.61484 35.7946 5.70703 35.5625 5.70703Z" fill="#313549"/>
<path d="M39.4673 45.1279C40.7479 43.3633 41.3664 41.2042 41.2142 39.0292C41.062 36.8542 40.1489 34.8023 38.635 33.2332C37.1212 31.6642 35.1032 30.6782 32.9351 30.4483C30.7669 30.2183 28.587 30.7591 26.7777 31.9757C24.9684 33.1923 23.6452 35.0071 23.0402 37.1018C22.4352 39.1964 22.587 41.4373 23.469 43.4312C24.351 45.4251 25.9069 47.0449 27.8637 48.0064C29.8206 48.9678 32.0535 49.2097 34.1708 48.6894L39.4673 52.0954V45.1279Z" fill="#6DD338"/>
<path d="M33.8362 37.2852H28.7187C28.4867 37.2852 28.2641 37.193 28.1 37.0289C27.9359 36.8648 27.8438 36.6422 27.8438 36.4102C27.8438 36.1781 27.9359 35.9555 28.1 35.7914C28.2641 35.6273 28.4867 35.5352 28.7187 35.5352H33.8362C34.0683 35.5352 34.2908 35.6273 34.4549 35.7914C34.619 35.9555 34.7112 36.1781 34.7112 36.4102C34.7112 36.6422 34.619 36.8648 34.4549 37.0289C34.2908 37.193 34.0683 37.2852 33.8362 37.2852Z" fill="white"/>
<path d="M37.2205 40.6152H26.793C26.5609 40.6152 26.3383 40.523 26.1742 40.359C26.0102 40.1949 25.918 39.9723 25.918 39.7402C25.918 39.5082 26.0102 39.2856 26.1742 39.1215C26.3383 38.9574 26.5609 38.8652 26.793 38.8652H37.2205C37.4525 38.8652 37.6751 38.9574 37.8392 39.1215C38.0033 39.2856 38.0955 39.5082 38.0955 39.7402C38.0955 39.9723 38.0033 40.1949 37.8392 40.359C37.6751 40.523 37.4525 40.6152 37.2205 40.6152Z" fill="white"/>
<path d="M37.2188 44.2832H28.5938C28.3617 44.2832 28.1391 44.191 27.975 44.0269C27.8109 43.8628 27.7188 43.6403 27.7188 43.4082C27.7188 43.1761 27.8109 42.9536 27.975 42.7895C28.1391 42.6254 28.3617 42.5332 28.5938 42.5332H37.2188C37.4508 42.5332 37.6734 42.6254 37.8375 42.7895C38.0016 42.9536 38.0938 43.1761 38.0938 43.4082C38.0938 43.6403 38.0016 43.8628 37.8375 44.0269C37.6734 44.191 37.4508 44.2832 37.2188 44.2832Z" fill="white"/>
</svg>
