<svg width="62" height="66" viewBox="0 0 62 66" fill="none" xmlns="http://www.w3.org/2000/svg">
<path d="M51.5855 15.8047C50.2388 15.8055 48.9074 16.0907 47.6786 16.6416C46.4498 17.1925 45.3511 17.9967 44.4545 19.0016C44.3294 21.5382 43.4856 23.987 42.0215 26.0623C42.1514 27.9263 42.8231 29.7118 43.9539 31.1994C45.0847 32.6869 46.6255 33.8117 48.3868 34.4356C50.1482 35.0595 52.0534 35.1552 53.8685 34.7111C55.6835 34.267 57.3292 33.3023 58.6035 31.9356C59.8778 30.5689 60.725 28.8598 61.0412 27.0181C61.3574 25.1765 61.1287 23.2826 60.3832 21.5692C59.6378 19.8557 58.408 18.3974 56.8451 17.3733C55.2821 16.3492 53.454 15.804 51.5855 15.8047Z" fill="#E8DB6D"/>
<path d="M10.4144 15.8047C11.761 15.8055 13.0924 16.0907 14.3212 16.6416C15.5501 17.1925 16.6487 17.9967 17.5453 19.0016C17.6704 21.5382 18.5142 23.987 19.9783 26.0623C19.8484 27.9263 19.1767 29.7118 18.0459 31.1994C16.9151 32.6869 15.3743 33.8117 13.613 34.4356C11.8516 35.0595 9.9464 35.1552 8.13137 34.7111C6.31635 34.267 4.6706 33.3023 3.39633 31.9356C2.12206 30.5689 1.27479 28.8598 0.958611 27.0181C0.642433 25.1765 0.871124 23.2826 1.61658 21.5692C2.36204 19.8557 3.5918 18.3974 5.15476 17.3733C6.71771 16.3492 8.54579 15.804 10.4144 15.8047Z" fill="#E8DB6D"/>
<path d="M40.5158 55.444L34.2189 52.7693C35.0494 52.2328 35.7323 51.4967 36.2051 50.6283C36.6779 49.7599 36.9256 48.7869 36.9256 47.7982V45.5274C36.9256 43.9558 36.3013 42.4485 35.1899 41.3372C34.0786 40.2259 32.5714 39.6016 30.9997 39.6016C29.4281 39.6016 27.9209 40.2259 26.8095 41.3372C25.6982 42.4485 25.0739 43.9558 25.0739 45.5274V47.7982C25.0739 48.7869 25.3216 49.7599 25.7944 50.6283C26.2672 51.4967 26.9501 52.2328 27.7806 52.7693L21.4837 55.444C20.3463 55.9271 19.3761 56.7342 18.6941 57.7648C18.0122 58.7953 17.6485 60.0038 17.6484 61.2396V65.1523H44.3506V61.2396C44.3506 60.0038 43.987 58.7954 43.3051 57.7649C42.6232 56.7343 41.6531 55.9272 40.5158 55.444Z" fill="#6DD338"/>
<path d="M58.0053 57.1872L52.839 54.9925C53.5205 54.5523 54.0808 53.9483 54.4688 53.2358C54.8568 52.5233 55.06 51.7248 55.0598 50.9135V49.0506C55.0598 48.4121 54.9341 47.7799 54.6897 47.19C54.4454 46.6001 54.0872 46.0641 53.6358 45.6126C53.1843 45.1611 52.6483 44.8029 52.0584 44.5586C51.4685 44.3142 50.8362 44.1885 50.1977 44.1885C49.5592 44.1885 48.9269 44.3142 48.337 44.5586C47.7471 44.8029 47.2111 45.1611 46.7596 45.6126C46.3081 46.0641 45.95 46.6001 45.7056 47.19C45.4613 47.7799 45.3355 48.4121 45.3355 49.0506V50.9135C45.3354 51.7248 45.5386 52.5233 45.9266 53.2358C46.3145 53.9483 46.8749 54.5523 47.5564 54.9925L42.7422 57.0394C43.7773 58.1944 44.3498 59.6909 44.3498 61.2419V65.1546H61.1518V61.9442C61.1523 60.93 60.8541 59.938 60.2946 59.0921C59.7351 58.2461 58.9389 57.5836 58.0053 57.1872Z" fill="#D7DBF7"/>
<path d="M3.99416 57.1872L9.1605 54.9925C8.47898 54.5523 7.91864 53.9483 7.53068 53.2358C7.14273 52.5232 6.93952 51.7248 6.93964 50.9135V49.0506C6.93964 47.7611 7.4519 46.5244 8.36373 45.6126C9.27556 44.7007 10.5123 44.1885 11.8018 44.1885C13.0913 44.1885 14.328 44.7007 15.2399 45.6126C16.1517 46.5244 16.664 47.7611 16.664 49.0506V50.9135C16.6641 51.7248 16.4609 52.5232 16.0729 53.2358C15.685 53.9483 15.1246 54.5523 14.4431 54.9925L19.2573 57.0375C18.222 58.1924 17.6493 59.6889 17.6492 61.2399V65.1527H0.847656V61.9423C0.847599 60.9284 1.14591 59.9368 1.70543 59.0913C2.26494 58.2457 3.06092 57.5835 3.99416 57.1872Z" fill="#696E87"/>
<path d="M36.1687 30.7605C43.0439 27.9108 46.3071 20.0272 43.4573 13.1521C40.6076 6.27696 32.724 3.01375 25.8489 5.8635C18.9738 8.71326 15.7106 16.5968 18.5603 23.4719C21.4101 30.3471 29.2936 33.6103 36.1687 30.7605Z" fill="#FCEF7D"/>
<path d="M30.9997 27.9175C36.3002 27.9175 40.5971 23.6206 40.5971 18.3201C40.5971 13.0196 36.3002 8.72266 30.9997 8.72266C25.6992 8.72266 21.4023 13.0196 21.4023 18.3201C21.4023 23.6206 25.6992 27.9175 30.9997 27.9175Z" fill="#FCEF7D"/>
<path d="M34.1946 17.4711H31.8483V14.807H34.1946C34.4194 14.807 34.635 14.7177 34.794 14.5587C34.9529 14.3998 35.0422 14.1842 35.0422 13.9594C35.0422 13.7345 34.9529 13.5189 34.794 13.36C34.635 13.201 34.4194 13.1117 34.1946 13.1117H31.8483V11.9463C31.8483 11.7215 31.759 11.5059 31.6 11.3469C31.441 11.1879 31.2254 11.0986 31.0006 11.0986C30.7758 11.0986 30.5602 11.1879 30.4012 11.3469C30.2423 11.5059 30.153 11.7215 30.153 11.9463V13.1117H29.7441C29.0057 13.1126 28.2979 13.4063 27.7757 13.9284C27.2536 14.4506 26.9599 15.1585 26.959 15.8969V18.3187C26.9591 18.5435 27.0485 18.759 27.2074 18.918C27.3663 19.0769 27.5819 19.1663 27.8066 19.1664H30.153V21.8304H27.8066C27.5818 21.8304 27.3662 21.9198 27.2073 22.0787C27.0483 22.2377 26.959 22.4533 26.959 22.6781C26.959 22.9029 27.0483 23.1185 27.2073 23.2775C27.3662 23.4365 27.5818 23.5258 27.8066 23.5258H30.153V24.6912C30.153 24.916 30.2423 25.1316 30.4012 25.2905C30.5602 25.4495 30.7758 25.5388 31.0006 25.5388C31.2254 25.5388 31.441 25.4495 31.6 25.2905C31.759 25.1316 31.8483 24.916 31.8483 24.6912V23.5258H32.2571C32.9955 23.5249 33.7034 23.2311 34.2255 22.709C34.7476 22.1869 35.0413 21.479 35.0422 20.7406V18.3187C35.0421 18.094 34.9528 17.8784 34.7938 17.7195C34.6349 17.5605 34.4194 17.4712 34.1946 17.4711ZM28.6543 17.4711V15.8969C28.6546 15.6079 28.7695 15.3308 28.9738 15.1265C29.1781 14.9222 29.4552 14.8073 29.7441 14.807H30.153V17.4711H28.6543ZM33.3469 20.7406C33.3465 21.0295 33.2316 21.3065 33.0273 21.5108C32.823 21.7151 32.546 21.8301 32.2571 21.8304H31.8483V19.1664H33.3469V20.7406Z" fill="#BCAF38"/>
<path d="M54.7805 24.5541H52.4342V21.89H54.7805C55.0053 21.89 55.2209 21.8007 55.3799 21.6417C55.5389 21.4828 55.6282 21.2672 55.6282 21.0424C55.6282 20.8175 55.5389 20.6019 55.3799 20.443C55.2209 20.284 55.0053 20.1947 54.7805 20.1947H52.4342V19.0293C52.4342 18.8045 52.3449 18.5889 52.1859 18.4299C52.027 18.2709 51.8114 18.1816 51.5865 18.1816C51.3617 18.1816 51.1461 18.2709 50.9872 18.4299C50.8282 18.5889 50.7389 18.8045 50.7389 19.0293V20.1947H50.3301C49.5917 20.1956 48.8838 20.4893 48.3617 21.0114C47.8395 21.5336 47.5458 22.2415 47.5449 22.9799V25.4017C47.5451 25.6265 47.6344 25.842 47.7933 26.001C47.9523 26.1599 48.1678 26.2493 48.3926 26.2494H50.7389V28.9135H48.3926C48.1678 28.9135 47.9522 29.0028 47.7932 29.1617C47.6342 29.3207 47.5449 29.5363 47.5449 29.7611C47.5449 29.9859 47.6342 30.2015 47.7932 30.3605C47.9522 30.5195 48.1678 30.6088 48.3926 30.6088H50.7389V31.7742C50.7389 31.999 50.8282 32.2146 50.9872 32.3736C51.1461 32.5325 51.3617 32.6218 51.5865 32.6218C51.8114 32.6218 52.027 32.5325 52.1859 32.3736C52.3449 32.2146 52.4342 31.999 52.4342 31.7742V30.6088H52.843C53.5814 30.6079 54.2893 30.3141 54.8114 29.792C55.3336 29.2699 55.6273 28.562 55.6282 27.8236V25.4017C55.628 25.177 55.5387 24.9614 55.3798 24.8025C55.2208 24.6436 55.0053 24.5542 54.7805 24.5541ZM49.2402 24.5541V22.9799C49.2405 22.6909 49.3554 22.4138 49.5597 22.2095C49.7641 22.0052 50.0411 21.8903 50.3301 21.89H50.7389V24.5541H49.2402ZM53.9329 27.8236C53.9325 28.1125 53.8175 28.3895 53.6132 28.5938C53.4089 28.7981 53.1319 28.9131 52.843 28.9135H52.4342V26.2494H53.9329V27.8236Z" fill="#BCAE38"/>
<path d="M13.6086 24.5541H11.2623V21.89H13.6086C13.8335 21.89 14.0491 21.8007 14.208 21.6417C14.367 21.4828 14.4563 21.2672 14.4563 21.0424C14.4563 20.8175 14.367 20.6019 14.208 20.443C14.0491 20.284 13.8335 20.1947 13.6086 20.1947H11.2623V19.0293C11.2623 18.8045 11.173 18.5889 11.0141 18.4299C10.8551 18.2709 10.6395 18.1816 10.4147 18.1816C10.1899 18.1816 9.97426 18.2709 9.81529 18.4299C9.65632 18.5889 9.56702 18.8045 9.56702 19.0293V20.1947H9.1582C8.41981 20.1956 7.71192 20.4893 7.18979 21.0114C6.66767 21.5336 6.37394 22.2415 6.37305 22.9799V25.4017C6.37318 25.6265 6.46252 25.842 6.62146 26.001C6.7804 26.1599 6.99593 26.2493 7.2207 26.2494H9.56702V28.9135H7.2207C6.99589 28.9135 6.78029 29.0028 6.62132 29.1617C6.46235 29.3207 6.37305 29.5363 6.37305 29.7611C6.37305 29.9859 6.46235 30.2015 6.62132 30.3605C6.78029 30.5195 6.99589 30.6088 7.2207 30.6088H9.56702V31.7742C9.56702 31.999 9.65632 32.2146 9.81529 32.3736C9.97426 32.5325 10.1899 32.6218 10.4147 32.6218C10.6395 32.6218 10.8551 32.5325 11.0141 32.3736C11.173 32.2146 11.2623 31.999 11.2623 31.7742V30.6088H11.6711C12.4095 30.6079 13.1174 30.3141 13.6396 29.792C14.1617 29.2699 14.4554 28.562 14.4563 27.8236V25.4017C14.4562 25.177 14.3668 24.9614 14.2079 24.8025C14.0489 24.6436 13.8334 24.5542 13.6086 24.5541ZM8.06836 24.5541V22.9799C8.06862 22.6909 8.18352 22.4138 8.38785 22.2095C8.59218 22.0052 8.86924 21.8903 9.1582 21.89H9.56702V24.5541H8.06836ZM12.761 27.8236C12.7606 28.1125 12.6457 28.3895 12.4414 28.5938C12.2371 28.7981 11.9601 28.9131 11.6711 28.9135H11.2623V26.2494H12.761V27.8236Z" fill="#BCAE38"/>
</svg>
