<svg width="44" height="44" viewBox="0 0 44 44" fill="none" xmlns="http://www.w3.org/2000/svg">
<path d="M19.7241 27.6102C20.4531 27.4213 21.2125 27.3105 22 27.3105C22.7875 27.3105 23.5469 27.4213 24.2759 27.6102V25.0347H19.7241V27.6102Z" fill="#6AD035"/>
<path d="M21.9999 32.9351L18.6128 36.3222C18.3546 36.5804 18.2068 36.9382 18.2068 37.3031C18.2068 38.068 18.8287 38.6899 19.5936 38.6899C19.9585 38.6899 20.3163 38.5421 20.5745 38.284L21.9999 36.8586L23.4253 38.284C23.6835 38.5421 24.0413 38.6899 24.4062 38.6899C25.1711 38.6899 25.793 38.068 25.793 37.3031C25.793 36.9382 25.6452 36.5804 25.3871 36.3222L21.9999 32.9351Z" fill="#6AD035"/>
<path d="M13.6554 25.0347H18.2071V28.0692H13.6554V25.0347Z" fill="#6AD035"/>
<path d="M22.0003 28.8276C17.8171 28.8276 14.4141 32.2307 14.4141 36.4139C14.4141 40.5971 17.8171 44.0001 22.0003 44.0001C26.1835 44.0001 29.5866 40.5971 29.5866 36.4139C29.5866 32.2307 26.1835 28.8276 22.0003 28.8276ZM24.4066 40.207C23.8087 40.207 23.2405 40.0233 22.7589 39.6903V42.4829H21.2417V39.6903C20.7609 40.024 20.1919 40.207 19.594 40.207C17.9931 40.207 16.6899 38.9039 16.6899 37.3029C16.6899 36.5276 16.9918 35.7979 17.5404 35.2493L22.0003 30.7894L26.4602 35.2493C27.0088 35.7979 27.3107 36.5276 27.3107 37.3029C27.3107 38.9046 26.0075 40.207 24.4066 40.207Z" fill="#6AD035"/>
<path d="M25.7935 25.0347H30.3452V28.0692H25.7935V25.0347Z" fill="#6AD035"/>
<path d="M41.7244 17.4482H34.1382V20.4827H39.4486C40.2853 20.4827 40.9658 21.1632 40.9658 22H44.0003V19.7241C44.0003 18.4695 42.9791 17.4482 41.7244 17.4482Z" fill="#696E87"/>
<path d="M34.1382 34.8587V37.9043C39.39 37.532 43.5899 33.32 43.964 28.0688H40.9273C40.5698 31.6479 37.7165 34.502 34.1382 34.8587Z" fill="#696E87"/>
<path d="M40.9656 23.5176H44.0001V26.5521H40.9656V23.5176Z" fill="#696E87"/>
<path d="M0 23.5176H3.0345V26.5521H0V23.5176Z" fill="#696E87"/>
<path d="M3.07372 28.0688H0.0362549C0.410382 33.3207 4.61023 37.532 9.86208 37.9043V34.8587C6.2838 34.502 3.43044 31.6479 3.07372 28.0688Z" fill="#696E87"/>
<path d="M0 19.7241V22H3.0345C3.0345 21.1632 3.71497 20.4827 4.55175 20.4827H9.86213V17.4482H2.27588C1.02125 17.4482 0 18.4695 0 19.7241Z" fill="#696E87"/>
<path d="M18.9655 6.77489V9.86236C18.9655 11.5359 20.3264 12.8969 22 12.8969C23.6735 12.8969 25.0345 11.5359 25.0345 9.86236V6.77489C23.9328 6.65488 22.873 6.24371 22 5.5625C21.1269 6.24371 20.0671 6.65488 18.9655 6.77489Z" fill="#696E87"/>
<path d="M18.3317 17.1973L20.6961 19.1676L19.2807 15.3911L18.8847 15.5397L18.3317 17.1973Z" fill="#696E87"/>
<path d="M22 14.414C21.4674 14.414 20.9584 14.317 20.4828 14.1484V14.2759L22 18.3216L23.5173 14.2759V14.1484C23.0416 14.3177 22.5327 14.414 22 14.414Z" fill="#696E87"/>
<path d="M27.4349 17.6993L24.0955 20.4826H29.5863V18.7931C29.5863 17.8493 28.9929 16.9929 28.1094 16.6613L26.9433 16.2246L27.4349 17.6993Z" fill="#696E87"/>
<path d="M25.1157 15.5397L24.7197 15.3911L23.3043 19.1676L25.6687 17.1973L25.1157 15.5397Z" fill="#696E87"/>
<path d="M16.5655 17.6993L17.057 16.2246L15.8909 16.6613C15.0075 16.9929 14.4141 17.8493 14.4141 18.7931V20.4834H19.9048L16.5655 17.6993Z" fill="#696E87"/>
<path d="M26.5518 7.03906V9.65128C27.0034 9.38791 27.3104 8.90377 27.3104 8.3448C27.3104 7.78583 27.0034 7.30243 26.5518 7.03906Z" fill="#696E87"/>
<path d="M17.4484 9.65128V7.03906C16.9968 7.30243 16.6898 7.78657 16.6898 8.34554C16.6898 8.90451 16.9968 9.38791 17.4484 9.65128Z" fill="#696E87"/>
<path d="M18.3374 5.31038C19.5013 5.31038 20.6407 4.83846 21.4638 4.01538L22.0001 3.47901L22.5365 4.01538C23.3596 4.83846 24.499 5.31038 25.6629 5.31038H25.7933C26.3485 5.31038 26.8623 5.47114 27.3105 5.73229V5.31038C27.3105 2.38293 24.9276 0 22.0001 0C19.0727 0 16.6898 2.38293 16.6898 5.31038V5.73229C17.138 5.47114 17.6517 5.31038 18.207 5.31038H18.3374Z" fill="#696E87"/>
</svg>
