<svg width="38" height="44" viewBox="0 0 38 44" fill="none" xmlns="http://www.w3.org/2000/svg">
<path d="M28.0689 23.8999L23.2608 29.3087C22.9367 29.6732 22.7585 30.1433 22.7585 30.6304C22.7585 31.7276 23.6513 32.6203 24.7484 32.6203H24.9607C25.3544 32.6203 25.736 32.5051 26.0653 32.2865L28.0689 30.9497L30.0732 32.2865C30.4018 32.5051 30.784 32.6203 31.177 32.6203H31.3893C32.4865 32.6203 33.3792 31.7276 33.3792 30.6304C33.3792 30.1426 33.201 29.6732 32.8769 29.3099L28.0689 23.8999Z" fill="#6AD035"/>
<path d="M18.2068 3.03467H3.03442V25.7932H16.6895V15.9311C16.6895 14.9436 17.3259 14.1091 18.2068 13.7949V3.03467ZM12.8964 10.6208H11.3792V16.6898C11.3792 18.3633 10.0183 19.7242 8.34474 19.7242C6.67119 19.7242 5.31027 18.3633 5.31027 16.6898H6.82751C6.82751 17.5265 7.50796 18.207 8.34474 18.207C9.18151 18.207 9.86197 17.5265 9.86197 16.6898V10.6208H8.34474V9.1036H12.8964V10.6208Z" fill="#696E87"/>
<path d="M28.0689 32.7734L27.2088 33.3468L26.5791 35.6545H29.5587L28.929 33.3468L28.0689 32.7734Z" fill="#6AD035"/>
<path d="M37.1722 15.1724H18.9654C18.5468 15.1724 18.2068 15.5124 18.2068 15.931V43.2412C18.2068 43.6597 18.5468 43.9998 18.9654 43.9998H37.1722C37.5908 43.9998 37.9308 43.6597 37.9308 43.2412V15.931C37.9308 15.5131 37.5908 15.1724 37.1722 15.1724ZM19.724 16.6896H21.2413V18.2068H19.724V16.6896ZM31.3892 34.1378H31.177C31.0144 34.1378 30.8536 34.1241 30.6943 34.1022L31.1033 35.655V37.1722H25.0343L25.061 35.4553L25.4296 34.103C25.2747 34.1233 25.1184 34.137 24.9606 34.137H24.7484C22.8148 34.137 21.2413 32.5635 21.2413 30.6299C21.2413 29.7698 21.5561 28.9419 22.1273 28.3004L28.0688 21.6169L34.0103 28.3018C34.5815 28.9434 34.8963 29.7705 34.8963 30.6307C34.8963 32.5642 33.3228 34.1378 31.3892 34.1378ZM36.4136 42.4826H34.8963V40.9653H36.4136V42.4826Z" fill="#6AD035"/>
<path d="M1.51723 1.51723H19.724V13.6551H21.2413V0.758616C21.2413 0.340044 20.9012 0 20.4826 0H0.758616C0.340044 0 0 0.340044 0 0.758616V28.0688C0 28.4874 0.340044 28.8274 0.758616 28.8274H16.6896V27.3102H1.51723V1.51723Z" fill="#696E87"/>
</svg>
