<svg width="29" height="44" viewBox="0 0 29 44" fill="none" xmlns="http://www.w3.org/2000/svg">
<path d="M25.761 20.483C25.5932 17.9249 24.5867 15.5831 22.9791 13.7495L20.8221 15.9061C21.8775 17.1707 22.5628 18.7517 22.7194 20.4838H25.761V20.483Z" fill="#696E87"/>
<path d="M8.00449 15.9051L5.8479 13.7485C4.24027 15.5821 3.23384 17.9239 3.06604 20.482H6.10646C6.26426 18.7507 6.94953 17.1705 8.00449 15.9051Z" fill="#696E87"/>
<path d="M16.9791 3.03467H11.848L14.4136 8.16611L16.9791 3.03467Z" fill="#6AD035"/>
<path d="M18.2066 42.4829H10.6203C9.63095 42.4829 8.7875 43.1171 8.47412 44.0002H20.3528C20.0394 43.1171 19.1956 42.4829 18.2066 42.4829Z" fill="#696E87"/>
<path d="M14.4235 37.1731C14.1342 37.1731 13.8438 37.165 13.553 37.1505C13.3315 37.1391 13.1163 37.105 12.897 37.0835V40.9655H15.9315V37.1028C15.4321 37.1491 14.9302 37.1731 14.4235 37.1731Z" fill="#696E87"/>
<path d="M6.10712 22H3.07263C3.2434 24.5663 4.26316 26.8984 5.86005 28.722L8.00442 26.5777C6.94946 25.313 6.26418 23.7321 6.10712 22Z" fill="#696E87"/>
<path d="M20.8221 26.5777L22.9669 28.722C24.5638 26.8984 25.5835 24.5663 25.7539 22H22.7194C22.5628 23.7321 21.8775 25.313 20.8221 26.5777Z" fill="#696E87"/>
<path d="M21.6197 8.77194L21.2774 8.57377L20.604 0.694169C20.5703 0.304116 20.2387 0 19.8483 0H8.97868C8.58789 0 8.25636 0.304116 8.22302 0.694169L7.5496 8.57377L7.20733 8.77194C2.65115 11.4112 -0.110337 16.3111 0.00338174 21.5578C0.164144 29.0577 6.15126 35.2411 13.633 35.6349C17.6369 35.8464 21.4352 34.4484 24.3326 31.6999C27.2312 28.9499 28.8273 25.2357 28.8273 21.2414C28.8273 16.1252 26.0651 11.3475 21.6197 8.77194ZM19.4342 1.51724L14.4135 11.559L9.39281 1.51724H19.4342ZM14.4135 34.138C7.30216 34.138 1.51692 28.3528 1.51692 21.2414C1.51692 15.2195 5.61415 10.0592 11.4812 8.6923L11.825 10.1692C9.95215 10.6055 8.28748 11.4856 6.92062 12.6758L9.07721 14.8324C10.5248 13.6248 12.3851 12.8966 14.4135 12.8966C16.4419 12.8966 18.3014 13.6256 19.7498 14.8324L21.9064 12.6758C20.5395 11.4856 18.8749 10.6055 17.002 10.1692L17.3454 8.6923C23.2129 10.0592 27.3101 15.2195 27.3101 21.2414C27.3101 28.3528 21.5248 34.138 14.4135 34.138Z" fill="#696E87"/>
<path d="M21.241 21.2417C21.241 17.4767 18.1784 14.4141 14.4134 14.4141C10.6485 14.4141 7.58582 17.4767 7.58582 21.2417C7.58582 25.0066 10.6485 28.0693 14.4134 28.0693C18.1784 28.0693 21.241 25.0066 21.241 21.2417ZM14.4134 20.483C15.668 20.483 16.6893 21.5043 16.6893 22.7589C16.6893 23.7465 16.0529 24.581 15.172 24.8951V26.552H13.6548V24.8951C12.7739 24.581 12.1375 23.7465 12.1375 22.7589H13.6548C13.6548 23.1775 13.9945 23.5175 14.4134 23.5175C14.832 23.5175 15.172 23.1775 15.172 22.7589C15.172 22.3403 14.832 22.0003 14.4134 22.0003C13.1588 22.0003 12.1375 20.979 12.1375 19.7244C12.1375 18.7369 12.7739 17.9023 13.6548 17.5882V15.9313H15.172V17.5882C16.0529 17.9023 16.6893 18.7369 16.6893 19.7244H15.172C15.172 19.3058 14.832 18.9658 14.4134 18.9658C13.9945 18.9658 13.6548 19.3058 13.6548 19.7244C13.6548 20.143 13.9945 20.483 14.4134 20.483Z" fill="#6AD035"/>
<path d="M6.93286 29.7948C8.75644 31.3916 11.0886 32.4114 13.6549 32.5822V29.5477C11.9228 29.3906 10.3426 28.7046 9.07723 27.6504L6.93286 29.7948Z" fill="#696E87"/>
<path d="M15.1722 29.5482V32.5827C17.7385 32.4119 20.0707 31.3921 21.8943 29.7952L19.7499 27.6509C18.4842 28.7051 16.904 29.3911 15.1722 29.5482Z" fill="#696E87"/>
</svg>
