<svg width="44" height="44" viewBox="0 0 44 44" fill="none" xmlns="http://www.w3.org/2000/svg">
<path d="M37.4 31.9682C37.4023 31.1338 37.0707 30.3331 36.4792 29.7447L25.9215 19.1895L12.588 32.523L23.144 43.079C24.3883 44.2647 26.3445 44.2647 27.5888 43.079L32.7108 37.9569L32.732 37.9357L36.4775 34.1902C37.0695 33.6026 37.4018 32.8024 37.4 31.9682ZM25.3676 42.1039C24.0659 42.1039 23.0105 41.0486 23.0105 39.7467C23.0105 38.445 24.0658 37.3896 25.3676 37.3896C26.6694 37.3896 27.7248 38.4449 27.7248 39.7467C27.7246 40.372 27.4759 40.9716 27.0336 41.4135C26.5912 41.8554 25.9915 42.1035 25.3661 42.1031L25.3676 42.1039ZM25.3676 34.3254C24.0659 34.3254 23.0105 33.2701 23.0105 31.9682C23.0105 30.6665 24.0658 29.6111 25.3676 29.6111C26.6694 29.6111 27.7248 30.6664 27.7248 31.9682C27.7248 32.5937 27.4763 33.1934 27.0339 33.6355C26.5915 34.0776 25.9916 34.3257 25.3661 34.3253H25.3676V34.3254ZM25.9231 27.1024C24.6214 27.1024 23.566 26.0471 23.566 24.7452C23.566 23.4434 24.6213 22.388 25.9231 22.388C27.2249 22.388 28.2803 23.4433 28.2803 24.7452C28.2803 25.3707 28.0318 25.9704 27.5894 26.4125C27.147 26.8545 26.5471 27.1027 25.9216 27.1023H25.9231V27.1024Z" fill="#6AD035"/>
<path d="M40.0712 24.3571C40.5052 24.3571 40.857 24.0053 40.857 23.5714C40.857 23.1374 40.5052 22.7856 40.0712 22.7856C39.6373 22.7856 39.2855 23.1374 39.2855 23.5714C39.2855 24.0053 39.6373 24.3571 40.0712 24.3571Z" fill="#696E87"/>
<path d="M12.0317 11.6418C12.4656 11.6418 12.8174 11.29 12.8174 10.856C12.8174 10.4221 12.4656 10.0703 12.0317 10.0703C11.5978 10.0703 11.246 10.4221 11.246 10.856C11.246 11.29 11.5978 11.6418 12.0317 11.6418Z" fill="#6AD035"/>
<path d="M11.4762 18.8644C11.9101 18.8644 12.2619 18.5126 12.2619 18.0787C12.2619 17.6447 11.9101 17.293 11.4762 17.293C11.0422 17.293 10.6904 17.6447 10.6904 18.0787C10.6904 18.5126 11.0422 18.8644 11.4762 18.8644Z" fill="#6AD035"/>
<path d="M37.5886 28.6335C38.4729 29.5176 38.9697 30.7169 38.9697 31.9673C38.9697 33.2177 38.4729 34.4169 37.5886 35.301L35.1757 37.714H40.8571C42.5929 37.714 44 36.3068 44 34.5712V19.6426H28.6L37.5886 28.6335ZM40.0714 21.214C41.3732 21.214 42.4286 22.2693 42.4286 23.5712C42.4286 24.873 41.3733 25.9284 40.0714 25.9284C38.7696 25.9284 37.7142 24.8731 37.7142 23.5712C37.7142 22.2693 38.7696 21.214 40.0714 21.214Z" fill="#696E87"/>
<path d="M14.2545 7.52167C13.026 6.29681 11.0382 6.29681 9.80971 7.52167L0.920194 16.412C-0.306731 17.6392 -0.306731 19.6287 0.920194 20.8559L11.477 31.412L24.8105 18.0785L14.2545 7.52167ZM4.25396 20.9911C2.95218 20.9911 1.89678 19.9358 1.89678 18.634C1.89678 17.3321 2.95209 16.2768 4.25396 16.2768C5.55582 16.2768 6.61113 17.3321 6.61113 18.634C6.61113 19.9358 5.55573 20.9911 4.25396 20.9911ZM11.4762 28.2134C10.1744 28.2134 9.11903 27.1581 9.11903 25.8562C9.11903 24.5544 10.1743 23.499 11.4762 23.499C12.7781 23.499 13.8334 24.5543 13.8334 25.8562C13.8333 27.158 12.778 28.2134 11.4762 28.2134ZM11.4762 20.4348C10.1744 20.4348 9.11903 19.3795 9.11903 18.0776C9.11903 16.7758 10.1743 15.7204 11.4762 15.7204C12.7781 15.7204 13.8334 16.7757 13.8334 18.0776C13.8335 18.7029 13.5854 19.3026 13.1433 19.7449C12.7012 20.1871 12.1016 20.4355 11.4763 20.4355V20.4348H11.4762ZM12.0317 13.2117C10.7299 13.2117 9.67453 12.1564 9.67453 10.8546C9.67453 9.55271 10.7298 8.49741 12.0317 8.49741C13.3335 8.49741 14.3889 9.55271 14.3889 10.8546C14.389 11.4799 14.1409 12.0796 13.6988 12.5218C13.2567 12.9641 12.6571 13.2125 12.0318 13.2125V13.2117H12.0317ZM19.2547 20.4348C17.9529 20.4348 16.8976 19.3795 16.8976 18.0776C16.8976 16.7758 17.9529 15.7204 19.2547 15.7204C20.5565 15.7204 21.6119 16.7757 21.6119 18.0776C21.6121 18.7029 21.3639 19.3026 20.9218 19.7449C20.4798 20.1871 19.8801 20.4355 19.2548 20.4355V20.4348H19.2547Z" fill="#6AD035"/>
<path d="M25.3659 32.7541C25.7999 32.7541 26.1516 32.4023 26.1516 31.9683C26.1516 31.5344 25.7999 31.1826 25.3659 31.1826C24.932 31.1826 24.5802 31.5344 24.5802 31.9683C24.5802 32.4023 24.932 32.7541 25.3659 32.7541Z" fill="#6AD035"/>
<path d="M25.9215 25.5314C26.3554 25.5314 26.7072 25.1796 26.7072 24.7457C26.7072 24.3117 26.3554 23.96 25.9215 23.96C25.4875 23.96 25.1357 24.3117 25.1357 24.7457C25.1357 25.1796 25.4875 25.5314 25.9215 25.5314Z" fill="#6AD035"/>
<path d="M19.2548 18.8644C19.6888 18.8644 20.0406 18.5126 20.0406 18.0787C20.0406 17.6447 19.6888 17.293 19.2548 17.293C18.8209 17.293 18.4691 17.6447 18.4691 18.0787C18.4691 18.5126 18.8209 18.8644 19.2548 18.8644Z" fill="#6AD035"/>
<path d="M40.0712 4.71451C40.5052 4.71451 40.857 4.36273 40.857 3.92879C40.857 3.49485 40.5052 3.14307 40.0712 3.14307C39.6373 3.14307 39.2855 3.49485 39.2855 3.92879C39.2855 4.36273 39.6373 4.71451 40.0712 4.71451Z" fill="#696E87"/>
<path d="M29.0712 14.9289C29.5052 14.9289 29.857 14.5771 29.857 14.1431C29.857 13.7092 29.5052 13.3574 29.0712 13.3574C28.6373 13.3574 28.2855 13.7092 28.2855 14.1431C28.2855 14.5771 28.6373 14.9289 29.0712 14.9289Z" fill="#696E87"/>
<path d="M25.3659 40.5314C25.7999 40.5314 26.1516 40.1796 26.1516 39.7457C26.1516 39.3117 25.7999 38.96 25.3659 38.96C24.932 38.96 24.5802 39.3117 24.5802 39.7457C24.5802 40.1796 24.932 40.5314 25.3659 40.5314Z" fill="#6AD035"/>
<path d="M4.25399 19.4201C4.68793 19.4201 5.03971 19.0683 5.03971 18.6344C5.03971 18.2004 4.68793 17.8486 4.25399 17.8486C3.82004 17.8486 3.46826 18.2004 3.46826 18.6344C3.46826 19.0683 3.82004 19.4201 4.25399 19.4201Z" fill="#6AD035"/>
<path d="M40.857 0H28.2856C26.5499 0 25.1428 1.40714 25.1428 3.14281V16.1856L27.0285 18.0713H43.9999V3.14281C43.9999 1.40714 42.5928 0 40.857 0ZM29.0714 16.4999C27.7696 16.4999 26.7142 15.4446 26.7142 14.1428C26.7142 12.841 27.7695 11.7856 29.0714 11.7856C30.3731 11.7856 31.4285 12.8409 31.4285 14.1428C31.4285 15.4446 30.3731 16.4999 29.0714 16.4999ZM29.0714 6.28571C27.7696 6.28571 26.7142 5.2304 26.7142 3.92853C26.7142 2.62667 27.7695 1.57136 29.0714 1.57136C30.3731 1.57136 31.4285 2.62667 31.4285 3.92853C31.4285 4.55373 31.1802 5.15323 30.7381 5.59529C30.296 6.03735 29.6965 6.28571 29.0714 6.28571ZM40.0713 16.4999C38.7695 16.4999 37.7141 15.4446 37.7141 14.1428C37.7141 12.841 38.7695 11.7856 40.0713 11.7856C41.3731 11.7856 42.4285 12.8409 42.4285 14.1428C42.4285 15.4446 41.3731 16.4999 40.0713 16.4999ZM40.0713 6.28571C38.7695 6.28571 37.7141 5.2304 37.7141 3.92853C37.7141 2.62667 38.7695 1.57136 40.0713 1.57136C41.3731 1.57136 42.4285 2.62667 42.4285 3.92853C42.4285 4.55373 42.1801 5.15323 41.7381 5.59529C41.296 6.03735 40.6965 6.28571 40.0713 6.28571Z" fill="#696E87"/>
<path d="M11.4762 26.6418C11.9101 26.6418 12.2619 26.29 12.2619 25.856C12.2619 25.4221 11.9101 25.0703 11.4762 25.0703C11.0422 25.0703 10.6904 25.4221 10.6904 25.856C10.6904 26.29 11.0422 26.6418 11.4762 26.6418Z" fill="#6AD035"/>
<path d="M29.0714 4.71403C29.5053 4.71403 29.8571 4.36225 29.8571 3.9283C29.8571 3.49436 29.5053 3.14258 29.0714 3.14258C28.6374 3.14258 28.2856 3.49436 28.2856 3.9283C28.2856 4.36225 28.6374 4.71403 29.0714 4.71403Z" fill="#696E87"/>
<path d="M40.0712 14.9279C40.5052 14.9279 40.857 14.5761 40.857 14.1422C40.857 13.7082 40.5052 13.3564 40.0712 13.3564C39.6373 13.3564 39.2855 13.7082 39.2855 14.1422C39.2855 14.5761 39.6373 14.9279 40.0712 14.9279Z" fill="#696E87"/>
</svg>
