<svg width="35" height="44" viewBox="0 0 35 44" fill="none" xmlns="http://www.w3.org/2000/svg">
<path d="M6.82764 5.62402L3.44053 9.01114C3.18234 9.26932 3.03455 9.62715 3.03455 9.99201C3.03455 10.7569 3.65648 11.3789 4.4214 11.3789C4.78626 11.3789 5.14408 11.2311 5.40226 10.9729L6.82764 9.54751L8.25301 10.9729C8.51119 11.2311 8.86902 11.3789 9.23388 11.3789C9.9988 11.3789 10.6207 10.7569 10.6207 9.99201C10.6207 9.62715 10.4729 9.26932 10.2148 9.01114L6.82764 5.62402Z" fill="#696E87"/>
<path d="M12.8965 0H0.758618C0.340045 0 0 0.340045 0 0.758618V18.9655C0 19.384 0.340045 19.7241 0.758618 19.7241H12.8965C13.3151 19.7241 13.6551 19.384 13.6551 18.9655V0.758618C13.6551 0.340786 13.3151 0 12.8965 0ZM1.51724 1.51724H3.03447V3.03447H1.51724V1.51724ZM12.1379 18.2068H10.6207V16.6896H12.1379V18.2068ZM9.23381 12.8965C8.63595 12.8965 8.06773 12.7128 7.58618 12.3798V15.1724H6.06895V12.3798C5.58814 12.7135 5.01918 12.8965 4.42132 12.8965C2.82037 12.8965 1.51724 11.5934 1.51724 9.99243C1.51724 9.21714 1.81913 8.48741 2.36772 7.93882L6.82757 3.47898L11.2874 7.93882C11.836 8.48741 12.1379 9.21714 12.1379 9.99243C12.1379 11.5941 10.8348 12.8965 9.23381 12.8965Z" fill="#696E87"/>
<path d="M34.138 0H22.0001C21.5815 0 21.2415 0.340045 21.2415 0.758618V18.9655C21.2415 19.384 21.5815 19.7241 22.0001 19.7241H34.138C34.5565 19.7241 34.8966 19.384 34.8966 18.9655V0.758618C34.8966 0.340786 34.5565 0 34.138 0ZM24.2759 18.2068H22.7587V16.6896H24.2759V18.2068ZM32.5289 10.268L28.069 14.7279L23.6092 10.268C23.0606 9.72017 22.7587 8.99044 22.7587 8.21441C22.7587 6.61346 24.0618 5.31033 25.6628 5.31033C26.4381 5.31033 27.1678 5.61222 27.7164 6.16081L28.069 6.51345L28.4217 6.16081C28.9702 5.61222 29.7 5.31033 30.4753 5.31033C32.0762 5.31033 33.3793 6.61346 33.3793 8.21441C33.3793 8.99044 33.0775 9.72017 32.5289 10.268ZM33.3793 3.03447H31.8621V1.51724H33.3793V3.03447Z" fill="#6AD035"/>
<path d="M30.4752 6.82715C30.1104 6.82715 29.7525 6.97495 29.4943 7.23313L28.069 8.6585L26.6436 7.23313C26.3854 6.97495 26.0276 6.82715 25.6627 6.82715C24.8978 6.82715 24.2759 7.44908 24.2759 8.214C24.2759 8.57886 24.4237 8.93669 24.6819 9.19487L28.069 12.582L31.4561 9.19487C31.7143 8.93669 31.8621 8.57886 31.8621 8.214C31.8621 7.44982 31.2401 6.82715 30.4752 6.82715Z" fill="#6AD035"/>
<path d="M12.8965 24.2759H0.758618C0.340045 24.2759 0 24.6159 0 25.0345V43.2413C0 43.6599 0.340045 44 0.758618 44H12.8965C13.3151 44 13.6551 43.6599 13.6551 43.2413V25.0345C13.6551 24.6167 13.3151 24.2759 12.8965 24.2759ZM10.6207 25.7931H12.1379V27.3104H10.6207V25.7931ZM3.03447 42.4827H1.51724V40.9655H3.03447V42.4827ZM6.82757 40.6136L1.27683 34.1379L6.82757 27.6623L12.3783 34.1379L6.82757 40.6136Z" fill="#6AD035"/>
<path d="M3.27502 34.1377L6.82771 38.2827L10.3804 34.1377L6.82771 29.9927L3.27502 34.1377Z" fill="#6AD035"/>
<path d="M30.3448 32.6204L30.26 32.6334L29.0869 32.7238L29.4877 31.6184C29.5544 31.4362 29.5862 31.2676 29.5862 31.1032C29.5862 30.2664 28.9058 29.5859 28.069 29.5859C27.2322 29.5859 26.5517 30.2664 26.5517 31.1032C26.5517 31.2676 26.5836 31.4354 26.6503 31.6184L27.0511 32.7238L25.7735 32.6212H25.7728C24.9556 32.6212 24.2751 33.3009 24.2751 34.1376C24.2751 34.9744 24.9556 35.6549 25.7924 35.6549C26.6292 35.6549 27.3096 34.9744 27.3096 34.1376H28.8269C28.8269 34.9744 29.5073 35.6549 30.3441 35.6549C31.1809 35.6549 31.8613 34.9744 31.8613 34.1376C31.8613 33.3009 31.1816 32.6204 30.3448 32.6204Z" fill="#696E87"/>
<path d="M34.138 24.2759H22.0001C21.5815 24.2759 21.2415 24.6159 21.2415 25.0345V43.2413C21.2415 43.6599 21.5815 44 22.0001 44H34.138C34.5565 44 34.8966 43.6599 34.8966 43.2413V25.0345C34.8966 24.6167 34.5565 24.2759 34.138 24.2759ZM22.7587 25.7931H24.2759V27.3104H22.7587V25.7931ZM33.3793 42.4827H31.8621V40.9655H33.3793V42.4827ZM30.3449 37.1724C29.7889 37.1724 29.2758 37.0087 28.8276 36.746V39.4482H27.3104V36.746C26.8622 37.0087 26.3492 37.1724 25.7932 37.1724C24.1196 37.1724 22.7587 35.8115 22.7587 34.1379C22.7587 32.7263 23.7273 31.5357 25.036 31.199C25.0353 31.1672 25.0345 31.1353 25.0345 31.1034C25.0345 29.4299 26.3955 28.069 28.069 28.069C29.7426 28.069 31.1035 29.4299 31.1035 31.1034C31.1035 31.1353 31.1028 31.1672 31.102 31.199C32.4107 31.5365 33.3793 32.7263 33.3793 34.1379C33.3793 35.8115 32.0184 37.1724 30.3449 37.1724Z" fill="#696E87"/>
</svg>
