<svg width="44" height="44" viewBox="0 0 44 44" fill="none" xmlns="http://www.w3.org/2000/svg">
<path d="M6.42756 15.0976L2.46644 12.8101C0.994874 15.572 0.117343 18.6949 0.000610352 22.0093H4.56874C4.67954 19.5891 5.31768 17.2333 6.42756 15.0976Z" fill="#696E87"/>
<path d="M8.33472 12.197C8.33472 12.1788 8.32954 12.1614 8.32954 12.1425C8.32954 10.0806 9.98454 8.40559 12.0346 8.35704L9.96119 4.76465C7.24263 6.47302 4.93688 8.77802 3.22852 11.4973L7.18815 13.7834C7.53946 13.2353 7.91893 12.7043 8.33472 12.197Z" fill="#696E87"/>
<path d="M4.55368 23.5273H0C0.116732 26.8418 0.994264 29.9639 2.46583 32.7266L6.4125 30.4475C5.32559 28.359 4.66596 26.0136 4.55368 23.5273Z" fill="#696E87"/>
<path d="M7.17444 31.7612L3.22852 34.0396C4.93689 36.7581 7.24189 39.0639 9.9612 40.7722L12.2395 36.8263C10.2087 35.5219 8.47814 33.792 7.17444 31.7612Z" fill="#696E87"/>
<path d="M14.4011 12.143C14.4011 13.4004 13.3816 14.4199 12.1242 14.4199C10.8669 14.4199 9.84741 13.4004 9.84741 12.143C9.84741 10.8857 10.8669 9.86621 12.1242 9.86621C13.3816 9.86621 14.4011 10.8857 14.4011 12.143Z" fill="#696E87"/>
<path d="M37.2286 18.0765C37.6111 19.3706 37.8334 20.6865 37.8957 22.0095H42.4486C42.3793 20.0643 42.0476 18.1554 41.4573 16.3081C40.2292 17.206 38.791 17.8238 37.2286 18.0765Z" fill="#696E87"/>
<path d="M35.6515 16.6968C40.2545 16.6968 43.9999 12.9514 43.9999 8.34841C43.9999 3.74544 40.2545 0 35.6515 0C31.0485 0 27.3031 3.74544 27.3031 8.34841C27.3031 12.9514 31.0485 16.6968 35.6515 16.6968ZM35.6515 9.10735C33.9772 9.10735 32.6157 7.74584 32.6157 6.07157C32.6157 4.66077 33.5863 3.4827 34.8926 3.14362V1.51789H36.4105V3.14362C37.7164 3.4827 38.6873 4.66077 38.6873 6.07157H37.1694C37.1694 5.23443 36.4886 4.55368 35.6515 4.55368C34.8144 4.55368 34.1336 5.23443 34.1336 6.07157C34.1336 6.90871 34.8144 7.58946 35.6515 7.58946C37.3258 7.58946 38.6873 8.95097 38.6873 10.6252C38.6873 12.036 37.7164 13.2141 36.4105 13.5532V15.1789H34.8926V13.5532C33.5863 13.2141 32.6157 12.036 32.6157 10.6252H34.1336C34.1336 11.4624 34.8144 12.1431 35.6515 12.1431C36.4886 12.1431 37.1694 11.4624 37.1694 10.6252C37.1694 9.78811 36.4886 9.10735 35.6515 9.10735Z" fill="#6AD035"/>
<path d="M20.4727 6.10424V1.5376C17.1582 1.6547 14.0361 2.53186 11.2734 4.00343L13.5595 7.96307C15.7104 6.84577 18.0699 6.21431 20.4727 6.10424Z" fill="#696E87"/>
<path d="M27.6916 2.54355C25.8446 1.95321 23.9358 1.62043 21.9906 1.55225V6.10666C23.3102 6.1667 24.631 6.37904 25.9258 6.75925C26.1793 5.20134 26.797 3.76757 27.6916 2.54355Z" fill="#696E87"/>
<path d="M11.2734 41.5341C14.0354 43.0056 17.1582 43.8828 20.4727 43.9999V39.4462C17.9865 39.3347 15.6418 38.6743 13.5525 37.5874L11.2734 41.5341Z" fill="#696E87"/>
<path d="M30.2244 36.8258L32.5027 40.7717C35.2213 39.0634 37.5266 36.7584 39.235 34.0391L35.2894 31.7607C33.9846 33.7923 32.2544 35.5221 30.2244 36.8258Z" fill="#696E87"/>
<path d="M21.9906 39.4462V43.9999C25.3047 43.8828 28.4272 43.0056 31.1899 41.5341L28.9104 37.5874C26.8211 38.6743 24.4768 39.3347 21.9906 39.4462Z" fill="#696E87"/>
<path d="M36.4106 22.7682C36.4106 21.2366 36.1571 19.7091 35.6828 18.2131C35.672 18.2131 35.662 18.2145 35.6516 18.2145C30.2115 18.2145 25.7853 13.7883 25.7853 8.34825C25.7853 8.33528 25.7876 8.32231 25.7876 8.30971C21.9995 7.11422 17.9561 7.4633 14.483 9.19354C15.3513 9.8906 15.919 10.9467 15.919 12.143C15.919 14.2353 14.2166 15.9377 12.1243 15.9377C10.7165 15.9377 9.49912 15.1576 8.84394 14.0159C7.03625 16.5699 6.05273 19.629 6.05273 22.7682C6.05273 31.1377 12.8618 37.9471 21.2317 37.9471C29.6012 37.9471 36.4106 31.1385 36.4106 22.7682ZM29.5801 25.0451C28.5917 25.0451 27.7572 24.4084 27.4429 23.5272H24.1596C23.8835 24.5889 23.0523 25.4208 21.9906 25.6962V28.9795C22.8718 29.2937 23.5085 30.1287 23.5085 31.1166C23.5085 32.3718 22.4868 33.3935 21.2317 33.3935C19.9761 33.3935 18.9548 32.3718 18.9548 31.1166C18.9548 30.1287 19.5915 29.2937 20.4727 28.9795V25.6962C19.411 25.4201 18.579 24.5889 18.3037 23.5272H15.0204C14.7061 24.4084 13.8712 25.0451 12.8832 25.0451C11.6277 25.0451 10.6064 24.0234 10.6064 22.7682C10.6064 21.5131 11.6277 20.4914 12.8832 20.4914C13.8712 20.4914 14.7061 21.128 15.0204 22.0093H18.3037C18.5798 20.9476 19.411 20.1156 20.4727 19.8403V16.5569C19.5915 16.2427 18.9548 15.4078 18.9548 14.4198C18.9548 13.1647 19.9761 12.143 21.2317 12.143C22.4868 12.143 23.5085 13.1647 23.5085 14.4198C23.5085 15.4078 22.8718 16.2427 21.9906 16.5569V19.8403C23.0523 20.1164 23.8843 20.9476 24.1596 22.0093H27.4429C27.7572 21.128 28.5917 20.4914 29.5801 20.4914C30.8352 20.4914 31.8569 21.5131 31.8569 22.7682C31.8569 24.0241 30.8352 25.0451 29.5801 25.0451Z" fill="#696E87"/>
<path d="M36.0498 30.4475L39.9965 32.7266C41.468 29.9647 42.3452 26.8418 42.4623 23.5273H37.9086C37.7967 26.0136 37.1375 28.359 36.0498 30.4475Z" fill="#696E87"/>
<path d="M30.3389 22.7682C30.3389 23.1874 29.9991 23.5272 29.58 23.5272C29.1609 23.5272 28.821 23.1874 28.821 22.7682C28.821 22.3491 29.1609 22.0093 29.58 22.0093C29.9991 22.0093 30.3389 22.3491 30.3389 22.7682Z" fill="#696E87"/>
<path d="M22.7495 22.7684C22.7495 23.6066 22.0699 24.2863 21.2316 24.2863C20.3934 24.2863 19.7137 23.6066 19.7137 22.7684C19.7137 21.9301 20.3934 21.2505 21.2316 21.2505C22.0699 21.2505 22.7495 21.9301 22.7495 22.7684Z" fill="#696E87"/>
<path d="M21.9905 14.4201C21.9905 14.8392 21.6507 15.179 21.2316 15.179C20.8125 15.179 20.4727 14.8392 20.4727 14.4201C20.4727 14.001 20.8125 13.6611 21.2316 13.6611C21.6507 13.6611 21.9905 14.001 21.9905 14.4201Z" fill="#696E87"/>
<path d="M21.9905 31.1169C21.9905 31.536 21.6507 31.8758 21.2316 31.8758C20.8125 31.8758 20.4727 31.536 20.4727 31.1169C20.4727 30.6977 20.8125 30.3579 21.2316 30.3579C21.6507 30.3579 21.9905 30.6977 21.9905 31.1169Z" fill="#696E87"/>
<path d="M13.6422 22.7682C13.6422 23.1874 13.3023 23.5272 12.8832 23.5272C12.4641 23.5272 12.1243 23.1874 12.1243 22.7682C12.1243 22.3491 12.4641 22.0093 12.8832 22.0093C13.3023 22.0093 13.6422 22.3491 13.6422 22.7682Z" fill="#696E87"/>
</svg>
