<svg width="44" height="44" viewBox="0 0 44 44" fill="none" xmlns="http://www.w3.org/2000/svg">
<g clip-path="url(#clip0_209:122)">
<path d="M22 44C26.3512 44 30.6047 42.7097 34.2225 40.2923C37.8404 37.875 40.6602 34.439 42.3253 30.419C43.9905 26.3991 44.4261 21.9756 43.5773 17.708C42.7284 13.4404 40.6331 9.52042 37.5564 6.44366C34.4796 3.36691 30.5596 1.27161 26.292 0.422734C22.0244 -0.426141 17.6009 0.00953233 13.581 1.67466C9.56099 3.33979 6.12506 6.15958 3.70767 9.77746C1.29028 13.3953 0 17.6488 0 22C0 27.8348 2.31785 33.4306 6.44365 37.5564C10.5695 41.6822 16.1652 44 22 44Z" fill="#4F5467"/>
<path d="M21.9999 40.3299C25.6253 40.3299 29.1692 39.2549 32.1835 37.2408C35.1979 35.2266 37.5473 32.3639 38.9346 29.0145C40.322 25.6651 40.685 21.9796 39.9777 18.4239C39.2705 14.8683 37.5247 11.6022 34.9612 9.03866C32.3977 6.47517 29.1316 4.7294 25.5759 4.02214C22.0203 3.31487 18.3347 3.67786 14.9853 5.06522C11.636 6.45257 8.77321 8.80198 6.75909 11.8163C4.74496 14.8307 3.66992 18.3746 3.66992 21.9999C3.66861 24.4074 4.14183 26.7916 5.06254 29.0161C5.98324 31.2406 7.33337 33.2618 9.03573 34.9641C10.7381 36.6665 12.7593 38.0166 14.9838 38.9373C17.2083 39.858 19.5924 40.3312 21.9999 40.3299V40.3299Z" fill="#222638"/>
<path d="M9.20996 32.5901L9.76996 32.0001L16.92 25.0001C17.806 24.1157 18.9099 23.481 20.12 23.1601C20.9492 22.9306 21.8143 22.8593 22.67 22.9501C24.3284 23.0976 25.8823 23.8232 27.06 25.0001L34.72 32.5901L34.79 32.6401H31.14C31.1108 32.65 31.0791 32.65 31.05 32.6401L25.22 26.8701C24.3669 26.0182 23.2106 25.5398 22.005 25.5398C20.7994 25.5398 19.6431 26.0182 18.79 26.8701C17.14 28.4801 15.51 30.1101 13.87 31.7201C13.56 32.0401 13.24 32.3501 12.93 32.6601C12.904 32.6685 12.876 32.6685 12.85 32.6601H9.20996V32.5901Z" fill="white"/>
<path d="M34.73 11.41L34.62 11.52L27.07 19C26.0677 20.0261 24.7775 20.7235 23.37 21C22.3479 21.1983 21.295 21.1731 20.2835 20.9263C19.272 20.6794 18.3259 20.2168 17.51 19.57C17.1576 19.2775 16.8237 18.9636 16.51 18.63L9.3 11.47L9.25 11.42H12.87C12.9088 11.4063 12.9512 11.4063 12.99 11.42L18.77 17.15C19.1928 17.5748 19.6953 17.9119 20.2488 18.1419C20.8022 18.3719 21.3957 18.4903 21.995 18.4903C22.5943 18.4903 23.1878 18.3719 23.7412 18.1419C24.2947 17.9119 24.7972 17.5748 25.22 17.15C27.15 15.26 29.06 13.36 30.98 11.46C30.9975 11.4404 31.0192 11.4248 31.0433 11.4145C31.0675 11.4041 31.0937 11.3992 31.12 11.4H34.73V11.41Z" fill="white"/>
</g>
<defs>
<clipPath id="clip0_209:122">
<rect width="44" height="44" fill="white"/>
</clipPath>
</defs>
</svg>
