<svg xmlns="http://www.w3.org/2000/svg" width="1360" height="260" viewBox="0 0 1360 260" fill="none">
<mask id="mask0" style="mask-type:alpha" maskUnits="userSpaceOnUse" x="0" y="0" width="1360" height="260">
<rect width="1360" height="260" fill="#292E42"/>
</mask>
<g mask="url(#mask0)">
<rect width="1360" height="260" fill="#161926"/>
<g opacity="0.06">
<path d="M1210.76 95.4576C1210.76 95.4547 1210.75 95.4518 1210.75 95.449L1205.65 92.5085L1206.66 90.7658C1207.09 90.0918 1207 89.2143 1206.45 88.6389C1203.45 85.6709 1200.07 83.1042 1196.41 81.0029C1190.4 77.5334 1181.43 74.1582 1171.82 76.8223C1169.4 67.133 1161.9 61.0791 1155.91 57.6182C1152.26 55.4988 1148.35 53.8613 1144.28 52.7465C1143.5 52.5564 1142.7 52.9187 1142.33 53.6243L1141.33 55.3521L1136.27 52.429C1135.44 51.9499 1134.38 52.2343 1133.9 53.0639L1106.2 101.049C1105.72 101.879 1106 102.94 1106.83 103.419C1107.09 103.567 1107.38 103.646 1107.68 103.649C1107.87 103.66 1127.64 104.116 1145.56 121.513L1145.79 121.643L1145.92 121.721C1146.03 121.805 1146.15 121.875 1146.28 121.93C1170.39 128.74 1180.68 145.616 1180.69 145.804C1181 146.34 1181.58 146.671 1182.2 146.671C1182.81 146.671 1183.38 146.344 1183.69 145.813L1211.4 97.8274C1211.88 96.9977 1211.59 95.9368 1210.76 95.4576ZM1110.58 100.395L1136.03 56.3161L1139.62 58.3891L1117.86 96.0682C1117.38 96.8925 1117.65 97.9566 1118.47 98.445C1118.55 98.4928 1118.64 98.534 1118.72 98.5681C1122.11 99.8879 1125.39 101.448 1128.55 103.238C1132.95 105.677 1136.91 108.836 1140.26 112.584C1131.57 106.058 1121.35 101.862 1110.58 100.395ZM1130.27 100.248C1127.54 98.6769 1124.71 97.2766 1121.8 96.0556L1144.62 56.5286C1147.92 57.5658 1151.1 58.9578 1154.1 60.6807C1159.72 63.9247 1166.73 69.6924 1168.6 78.8672L1147.04 116.317C1145.09 112.47 1140.58 106.199 1130.27 100.248ZM1171.65 80.628C1180.5 77.7238 1189.03 80.8474 1194.65 84.0914C1197.64 85.8303 1200.44 87.8873 1202.99 90.2266L1180.16 129.754C1177.67 127.85 1175.06 126.102 1172.35 124.52C1162.1 118.605 1154.4 117.824 1150.05 118.037L1171.65 80.628ZM1182.06 141.665C1175.39 133.051 1166.63 126.288 1156.61 122.021C1161.55 123.058 1166.29 124.918 1170.61 127.525C1173.77 129.369 1176.78 131.438 1179.64 133.717C1180.39 134.315 1181.48 134.193 1182.08 133.445C1182.14 133.372 1182.19 133.294 1182.23 133.212L1203.98 95.5479L1207.57 97.621L1182.06 141.665Z" fill="#696E87"/>
</g>
<g opacity="0.06">
<path d="M140.909 137.912C140.904 137.914 140.9 137.917 140.896 137.919L136.587 140.407L135.736 138.933C135.422 138.336 134.742 138.029 134.087 138.19C130.643 139.133 127.336 140.518 124.248 142.311C119.164 145.247 112.897 150.39 110.784 158.558C102.662 156.232 95.0526 159.167 89.9812 162.095C86.8844 163.873 84.031 166.044 81.4923 168.555C81.0256 169.042 80.9509 169.785 81.311 170.355L82.1549 171.816L77.8716 174.289C77.1696 174.695 76.9291 175.592 77.3344 176.294L100.773 216.89C101.178 217.592 102.076 217.833 102.777 217.428C102.995 217.301 103.177 217.12 103.305 216.903C103.395 216.766 112.091 202.475 132.418 196.705L132.608 196.595L132.723 196.529C132.831 196.483 132.934 196.424 133.028 196.353C148.217 181.567 164.934 181.169 165.076 181.239C165.6 181.239 166.085 180.959 166.347 180.505C166.608 180.054 166.609 179.498 166.352 179.045L142.913 138.449C142.508 137.747 141.611 137.507 140.909 137.912ZM102.148 213.402L80.6176 176.11L83.6553 174.356L102.06 206.234C102.457 206.94 103.352 207.191 104.058 206.793C104.127 206.755 104.193 206.71 104.255 206.661C106.653 204.741 109.185 202.996 111.832 201.439C115.479 199.248 119.468 197.684 123.633 196.812C115.174 200.42 107.779 206.131 102.148 213.402ZM110.372 198.909C108.063 200.249 105.839 201.731 103.714 203.346L84.4073 169.906C86.5637 167.926 88.9283 166.185 91.4601 164.715C96.2137 161.971 103.403 159.278 110.918 161.785L129.236 193.424C125.594 193.222 119.091 193.875 110.372 198.909ZM113.498 160.296C115.113 152.585 121.011 147.654 125.765 144.91C128.304 143.453 130.994 142.276 133.786 141.397L153.093 174.837C150.643 175.86 148.258 177.033 145.953 178.35C137.284 183.354 133.454 188.667 131.77 191.944L113.498 160.296ZM162.623 178.487C153.49 179.729 144.828 183.289 137.462 188.828C140.313 185.643 143.68 182.961 147.42 180.892C150.105 179.361 152.897 178.027 155.775 176.899C156.529 176.604 156.902 175.752 156.607 174.997C156.578 174.924 156.543 174.852 156.502 174.784L138.106 142.92L141.143 141.166L162.623 178.487Z" fill="#696E87"/>
</g>
<g opacity="0.06">
<path d="M248.555 91.0688L244.339 88.6348C243.526 88.1655 242.974 87.3631 242.827 86.4349C242.691 85.5909 241.9 85.0144 241.055 85.1477C240.209 85.2832 239.634 86.0755 239.768 86.9208C240.065 88.776 241.164 90.3776 242.791 91.3167L247.007 93.7507C247.749 94.179 248.693 93.9264 249.122 93.1837C249.55 92.4427 249.297 91.4971 248.555 91.0688Z" fill="#696E87"/>
<path d="M287.563 56.264C287.991 55.5229 287.737 54.5767 286.996 54.1488L279.196 49.6455C278.454 49.217 277.509 49.4713 277.081 50.2124C276.653 50.9543 276.906 51.8991 277.648 52.3274L285.448 56.8307C286.188 57.2579 287.135 57.0059 287.563 56.264Z" fill="#696E87"/>
<path d="M262.037 48.6931C262.779 49.1216 263.731 48.8564 264.159 48.1147C265.012 46.6367 266.912 46.1282 268.389 46.9812L269.844 47.8212C270.586 48.2496 271.531 47.9965 271.959 47.2546C272.387 46.5135 272.135 45.5677 271.393 45.1392L269.938 44.2993C266.98 42.5915 263.185 43.6082 261.477 46.5665L261.463 46.5907C261.036 47.3313 261.296 48.2651 262.037 48.6931Z" fill="#696E87"/>
<path d="M264.153 100.076L256.353 95.573C255.611 95.1449 254.665 95.3985 254.238 96.1397C253.809 96.8823 254.063 97.827 254.804 98.2549L262.604 102.758C263.346 103.187 264.291 102.934 264.719 102.191C265.147 101.45 264.894 100.505 264.153 100.076Z" fill="#696E87"/>
<path d="M253.024 64.3066C253.766 64.7351 254.71 64.4818 255.139 63.7399L259.642 55.9399C260.07 55.1985 259.817 54.2532 259.075 53.8249C258.334 53.3969 257.388 53.6505 256.96 54.3916L252.457 62.1919C252.029 62.9335 252.282 63.8786 253.024 64.3066Z" fill="#696E87"/>
<path d="M246.13 79.3422L250.634 71.5414C251.062 70.8003 250.809 69.8548 250.067 69.4265C249.326 68.9986 248.38 69.252 247.952 69.9932L243.449 77.794C243.021 78.5351 243.274 79.4809 244.015 79.9089C244.757 80.3372 245.702 80.0833 246.13 79.3422Z" fill="#696E87"/>
<path d="M314.595 74.9695C314.673 75.4457 314.961 75.8353 315.35 76.06C315.649 76.2324 316.006 76.3062 316.374 76.2455C317.217 76.1064 317.789 75.3088 317.651 74.4668C317.348 72.6263 316.249 71.0365 314.635 70.1043L310.396 67.6571C309.654 67.2289 308.708 67.4825 308.281 68.2236C307.852 68.9655 308.106 69.9106 308.848 70.3388L313.086 72.786C313.892 73.2533 314.443 74.0504 314.595 74.9695Z" fill="#696E87"/>
<path d="M304.419 97.0925C303.677 96.6643 302.732 96.9181 302.304 97.6592L297.8 105.46C297.371 106.203 297.625 107.147 298.367 107.575C299.108 108.003 300.053 107.751 300.482 107.008L304.985 99.2073C305.413 98.4674 305.16 97.5204 304.419 97.0925Z" fill="#696E87"/>
<path d="M313.423 81.4931C312.681 81.0649 311.736 81.3179 311.308 82.0598L306.805 89.8598C306.377 90.601 306.629 91.5469 307.371 91.9751C308.112 92.403 309.058 92.1491 309.486 91.408L313.989 83.6082C314.418 82.8663 314.164 81.921 313.423 81.4931Z" fill="#696E87"/>
<path d="M279.759 109.084L271.958 104.581C271.217 104.153 270.271 104.406 269.843 105.147C269.414 105.89 269.668 106.835 270.41 107.263L278.21 111.766C278.952 112.194 279.897 111.942 280.325 111.2C280.753 110.458 280.5 109.512 279.759 109.084Z" fill="#696E87"/>
<path d="M303.165 65.2701C303.593 64.5289 303.34 63.5828 302.599 63.1549L294.798 58.6511C294.056 58.2226 293.111 58.4769 292.683 59.218C292.254 59.9599 292.507 60.9045 293.249 61.333L301.05 65.8368C301.791 66.2647 302.737 66.012 303.165 65.2701Z" fill="#696E87"/>
<path d="M295.394 112.719C294.653 112.291 293.693 112.569 293.265 113.31C292.411 114.789 290.514 115.298 289.035 114.444L287.555 113.59C286.813 113.162 285.867 113.415 285.44 114.156C285.012 114.897 285.265 115.844 286.006 116.272L287.486 117.126C290.444 118.834 294.239 117.816 295.946 114.858L295.974 114.811C296.402 114.07 296.136 113.147 295.394 112.719Z" fill="#696E87"/>
</g>
<g opacity="0.06">
<path d="M724.968 184.705L726.352 182.308C726.619 181.846 727.075 181.532 727.603 181.448C728.083 181.371 728.411 180.921 728.335 180.44C728.258 179.96 727.808 179.632 727.327 179.709C726.272 179.878 725.361 180.503 724.827 181.428L723.443 183.825C723.199 184.247 723.343 184.784 723.765 185.028C724.187 185.271 724.724 185.127 724.968 184.705Z" fill="#696E87"/>
<path d="M744.757 206.889C745.178 207.133 745.716 206.989 745.96 206.567L748.521 202.132C748.764 201.71 748.62 201.172 748.198 200.929C747.776 200.685 747.239 200.829 746.996 201.251L744.435 205.687C744.192 206.107 744.335 206.646 744.757 206.889Z" fill="#696E87"/>
<path d="M749.065 192.374C748.821 192.796 748.972 193.337 749.394 193.58C750.234 194.066 750.523 195.146 750.038 195.986L749.56 196.813C749.317 197.235 749.461 197.773 749.883 198.016C750.304 198.259 750.842 198.116 751.086 197.694L751.563 196.867C752.534 195.184 751.956 193.027 750.274 192.055L750.26 192.047C749.839 191.804 749.308 191.952 749.065 192.374Z" fill="#696E87"/>
<path d="M719.843 193.579L722.404 189.143C722.647 188.722 722.503 188.184 722.081 187.94C721.659 187.697 721.122 187.841 720.878 188.263L718.317 192.698C718.074 193.12 718.218 193.657 718.64 193.901C719.061 194.144 719.599 194.001 719.843 193.579Z" fill="#696E87"/>
<path d="M740.185 187.247C739.941 187.669 740.085 188.206 740.507 188.45L744.943 191.011C745.365 191.254 745.902 191.11 746.146 190.689C746.389 190.267 746.245 189.729 745.823 189.486L741.388 186.925C740.966 186.681 740.429 186.826 740.185 187.247Z" fill="#696E87"/>
<path d="M731.636 183.328L736.072 185.889C736.493 186.133 737.031 185.989 737.275 185.567C737.518 185.146 737.374 184.608 736.952 184.364L732.516 181.803C732.095 181.56 731.557 181.704 731.314 182.126C731.07 182.547 731.214 183.085 731.636 183.328Z" fill="#696E87"/>
<path d="M734.12 222.264C733.849 222.308 733.628 222.472 733.5 222.693C733.402 222.863 733.36 223.066 733.394 223.275C733.474 223.755 733.927 224.08 734.406 224.001C735.453 223.829 736.357 223.204 736.887 222.286L738.278 219.876C738.522 219.454 738.378 218.916 737.956 218.673C737.534 218.429 736.997 218.573 736.753 218.995L735.362 221.406C735.096 221.864 734.643 222.177 734.12 222.264Z" fill="#696E87"/>
<path d="M721.54 216.474C721.784 216.052 721.639 215.515 721.218 215.271L716.782 212.71C716.36 212.466 715.823 212.611 715.579 213.032C715.336 213.454 715.479 213.991 715.902 214.235L720.338 216.796C720.758 217.039 721.297 216.896 721.54 216.474Z" fill="#696E87"/>
<path d="M730.411 221.596C730.655 221.175 730.511 220.637 730.089 220.394L725.653 217.833C725.232 217.59 724.694 217.733 724.451 218.155C724.207 218.576 724.352 219.114 724.773 219.358L729.209 221.919C729.63 222.162 730.168 222.018 730.411 221.596Z" fill="#696E87"/>
<path d="M714.721 202.45L717.282 198.014C717.526 197.593 717.382 197.055 716.96 196.812C716.538 196.568 716.001 196.712 715.757 197.134L713.196 201.57C712.953 201.991 713.096 202.529 713.519 202.773C713.94 203.016 714.478 202.872 714.721 202.45Z" fill="#696E87"/>
<path d="M739.636 215.761C740.057 216.004 740.595 215.86 740.838 215.439L743.4 211.003C743.643 210.581 743.499 210.043 743.077 209.8C742.655 209.556 742.118 209.7 741.874 210.122L739.313 214.558C739.07 214.98 739.214 215.517 739.636 215.761Z" fill="#696E87"/>
<path d="M712.655 211.345C712.899 210.923 712.74 210.377 712.319 210.134C711.478 209.649 711.188 208.57 711.674 207.728L712.16 206.887C712.404 206.465 712.259 205.927 711.838 205.684C711.416 205.441 710.878 205.585 710.635 206.006L710.149 206.848C709.178 208.53 709.757 210.688 711.439 211.659L711.465 211.674C711.887 211.918 712.412 211.766 712.655 211.345Z" fill="#696E87"/>
</g>
<g opacity="0.06">
<path d="M1155.95 251.227L1159.77 253.433C1160.51 253.859 1161.01 254.586 1161.14 255.427C1161.26 256.192 1161.98 256.714 1162.74 256.593C1163.51 256.471 1164.03 255.753 1163.91 254.987C1163.64 253.305 1162.65 251.854 1161.17 251.003L1157.35 248.797C1156.68 248.409 1155.82 248.638 1155.43 249.311C1155.05 249.982 1155.28 250.839 1155.95 251.227Z" fill="#696E87"/>
<path d="M1141.81 243.065L1148.88 247.146C1149.55 247.534 1150.41 247.304 1150.8 246.633C1151.18 245.96 1150.95 245.103 1150.28 244.716L1143.21 240.634C1142.54 240.246 1141.68 240.475 1141.3 241.148C1140.91 241.82 1141.14 242.677 1141.81 243.065Z" fill="#696E87"/>
<path d="M1105.32 245.769C1106 246.157 1106.85 245.927 1107.24 245.256L1111.32 238.186C1111.71 237.513 1111.48 236.657 1110.81 236.269C1110.14 235.881 1109.28 236.11 1108.89 236.783L1104.81 243.853C1104.42 244.523 1104.65 245.381 1105.32 245.769Z" fill="#696E87"/>
<path d="M1097.16 259.905C1097.83 260.293 1098.69 260.064 1099.08 259.392L1103.16 252.323C1103.55 251.651 1103.32 250.794 1102.64 250.406C1101.97 250.018 1101.12 250.248 1100.73 250.92L1096.65 257.988C1096.26 258.661 1096.49 259.517 1097.16 259.905Z" fill="#696E87"/>
<path d="M1127.67 234.901L1134.74 238.982C1135.41 239.37 1136.27 239.14 1136.65 238.468C1137.04 237.795 1136.81 236.939 1136.14 236.552L1129.07 232.47C1128.4 232.082 1127.54 232.311 1127.15 232.984C1126.77 233.655 1127 234.513 1127.67 234.901Z" fill="#696E87"/>
<path d="M1113.5 231.607C1114.17 231.995 1115.04 231.742 1115.43 231.07C1116.2 229.73 1117.92 229.269 1119.26 230.043L1120.6 230.817C1121.27 231.205 1122.13 230.975 1122.52 230.304C1122.91 229.632 1122.68 228.775 1122.01 228.387L1120.66 227.612C1117.98 226.065 1114.54 226.988 1113 229.667L1112.97 229.71C1112.58 230.382 1112.83 231.219 1113.5 231.607Z" fill="#696E87"/>
</g>
<circle opacity="0.06" cx="270" cy="194" r="11" fill="#696E87"/>
<circle opacity="0.06" cx="552" r="11" fill="#696E87"/>
<circle opacity="0.06" cx="1283" cy="190" r="11" fill="#696E87"/>
<path opacity="0.06" d="M1364.81 13.6399L1371.01 9.50757C1371.61 9.10549 1371.77 8.29062 1371.37 7.6875L1371.37 7.68749C1370.97 7.08437 1370.16 6.9214 1369.55 7.32347L1363.5 11.36L1356.94 6.98511V1.12497C1356.94 0.400112 1356.35 -0.1875 1355.62 -0.1875H1355.62C1354.9 -0.1875 1354.31 0.400112 1354.31 1.12497V6.98511L1347.02 11.8455C1346.65 12.0888 1346.44 12.4987 1346.44 12.9375V20.1101L1339.87 24.4851L1333.31 20.1101V12.9375C1333.31 12.4987 1333.09 12.0888 1332.73 11.8455L1325.44 6.98511V-0.1875C1325.44 -0.626335 1325.22 -1.03617 1324.85 -1.27954L1317.56 -6.13989V-6.75003C1317.56 -7.47489 1316.97 -8.0625 1316.25 -8.0625H1316.25C1315.52 -8.0625 1314.94 -7.47489 1314.94 -6.75003V-6.13989L1308.37 -1.765L1301.81 -6.13989V-6.75003C1301.81 -7.47489 1301.22 -8.0625 1300.5 -8.0625H1300.5C1299.77 -8.0625 1299.19 -7.47489 1299.19 -6.75003V-6.13989L1292.99 -2.00757C1292.38 -1.60549 1292.22 -0.790618 1292.62 -0.187501L1292.62 -0.187488C1293.02 0.415626 1293.84 0.578603 1294.44 0.176534L1300.5 -3.86L1307.06 0.514893V6.98511L1300.86 11.1174C1300.26 11.5195 1300.1 12.3344 1300.5 12.9375L1300.5 12.9375C1300.9 13.5406 1301.71 13.7036 1302.32 13.3015L1308.37 9.26488L1314.94 13.6399V20.1101L1307.64 24.9705C1307.28 25.2138 1307.06 25.6237 1307.06 26.0625V33.2351L1299.77 38.0955C1299.4 38.3388 1299.19 38.7487 1299.19 39.1875V46.3601L1292.99 50.4924C1292.38 50.8945 1292.22 51.7094 1292.62 52.3125L1292.62 52.3125C1293.02 52.9156 1293.84 53.0786 1294.44 52.6765L1300.5 48.64L1307.06 53.0149V58.875C1307.06 59.5999 1307.65 60.1875 1308.37 60.1875H1308.37C1309.1 60.1875 1309.69 59.5999 1309.69 58.875V53.0149L1316.98 48.1545C1317.34 47.9112 1317.56 47.5013 1317.56 47.0625V39.8899L1324.12 35.5149L1330.69 39.8899V47.0625C1330.69 47.5013 1330.9 47.9112 1331.27 48.1545L1338.56 53.0149V60.1875C1338.56 60.6263 1338.78 61.0362 1339.14 61.2795L1346.44 66.1399V66.75C1346.44 67.4749 1347.02 68.0625 1347.75 68.0625H1347.75C1348.47 68.0625 1349.06 67.4749 1349.06 66.75V66.1399L1356.35 61.2795C1356.72 61.0362 1356.94 60.6263 1356.94 60.1875V52.3125C1356.94 51.8737 1356.72 51.4638 1356.35 51.2205L1349.06 46.3601V39.8899L1355.62 35.5149L1361.68 39.5515C1362.28 39.9536 1363.1 39.7906 1363.5 39.1875V39.1875C1363.9 38.5844 1363.74 37.7695 1363.13 37.3674L1356.94 33.2351V26.7649L1363.5 22.39L1369.55 26.4265C1370.16 26.8286 1370.97 26.6656 1371.37 26.0625L1371.37 26.0625C1371.77 25.4594 1371.61 24.6445 1371.01 24.2424L1364.81 20.1101V13.6399ZM1349.06 13.6399L1355.62 9.265L1362.19 13.6399V20.1101L1355.62 24.485L1349.06 20.1101V13.6399ZM1354.31 33.2351L1347.75 37.61L1341.19 33.2351V26.7649L1347.75 22.39L1354.31 26.7649V33.2351ZM1330.69 20.1101L1324.12 24.485L1317.56 20.1101V13.6399L1324.12 9.265L1330.69 13.6399V20.1101ZM1309.69 0.514893L1316.25 -3.86L1322.81 0.514893V6.98511L1316.25 11.36L1309.69 6.98511V0.514893ZM1309.69 26.7649L1316.25 22.39L1322.81 26.7649V33.2351L1316.25 37.61L1309.69 33.2351V26.7649ZM1314.94 46.3601L1308.37 50.735L1301.81 46.3601V39.8899L1308.37 35.515L1314.94 39.8899V46.3601ZM1325.44 26.7649L1332 22.39L1338.56 26.7649V33.2351L1332 37.61L1325.44 33.2351V26.7649ZM1333.31 39.8899L1339.87 35.515L1346.44 39.8899V46.3601L1339.87 50.735L1333.31 46.3601V39.8899ZM1354.31 59.4851L1347.75 63.86L1341.19 59.4851V53.0149L1347.75 48.64L1354.31 53.0149V59.4851Z" fill="#696E87"/>
<path opacity="0.06" d="M41.3756 -0.13916L47.8693 -4.46826C48.5011 -4.88949 48.6718 -5.74316 48.2506 -6.375L48.2506 -6.37501C47.8294 -7.00685 46.9757 -7.17758 46.3439 -6.75637L40.0006 -2.52762L33.1256 -7.11084V-13.25C33.1256 -14.0094 32.51 -14.625 31.7506 -14.625H31.7506C30.9912 -14.625 30.3756 -14.0094 30.3756 -13.25V-7.11084L22.7379 -2.01904C22.3554 -1.76408 22.1256 -1.33473 22.1256 -0.875V6.63916L15.2506 11.2225L8.3756 6.63916V-0.875C8.3756 -1.33473 8.14582 -1.76408 7.7633 -2.01904L0.125603 -7.11084V-14.625C0.125603 -15.0847 -0.104179 -15.5141 -0.486702 -15.769L-8.1244 -20.8608V-21.5C-8.1244 -22.2594 -8.73999 -22.875 -9.49936 -22.875H-9.49943C-10.2588 -22.875 -10.8744 -22.2594 -10.8744 -21.5V-20.8608L-17.7494 -16.2776L-24.6244 -20.8608V-21.5C-24.6244 -22.2594 -25.24 -22.875 -25.9994 -22.875H-25.9994C-26.7588 -22.875 -27.3744 -22.2594 -27.3744 -21.5V-20.8608L-33.8681 -16.5317C-34.4999 -16.1105 -34.6706 -15.2568 -34.2494 -14.625L-34.2494 -14.625C-33.8282 -13.9932 -32.9745 -13.8224 -32.3427 -14.2436L-25.9994 -18.4724L-19.1244 -13.8892V-7.11084L-25.618 -2.78174C-26.2499 -2.36051 -26.4206 -1.50684 -25.9994 -0.875002L-25.9994 -0.875C-25.5782 -0.243162 -24.7245 -0.0724277 -24.0927 -0.493652L-17.7494 -4.72251L-10.8744 -0.13916V6.63916L-18.5121 11.731C-18.8946 11.9859 -19.1244 12.4153 -19.1244 12.875V20.3892L-26.7621 25.481C-27.1446 25.7359 -27.3744 26.1653 -27.3744 26.625V34.1392L-33.8681 38.4683C-34.4999 38.8895 -34.6706 39.7432 -34.2494 40.375L-34.2494 40.375C-33.8282 41.0068 -32.9745 41.1776 -32.3427 40.7564L-25.9994 36.5276L-19.1244 41.1108V47.25C-19.1244 48.0094 -18.5088 48.625 -17.7494 48.625H-17.7494C-16.99 48.625 -16.3744 48.0094 -16.3744 47.25V41.1108L-8.7367 36.019C-8.35418 35.7641 -8.1244 35.3347 -8.1244 34.875V27.3608L-1.2494 22.7775L5.6256 27.3608V34.875C5.6256 35.3347 5.85538 35.7641 6.23791 36.019L13.8756 41.1108V48.625C13.8756 49.0847 14.1054 49.5141 14.4879 49.769L22.1256 54.8608V55.5C22.1256 56.2594 22.7412 56.875 23.5006 56.875H23.5006C24.26 56.875 24.8756 56.2594 24.8756 55.5V54.8608L32.5133 49.769C32.8958 49.5141 33.1256 49.0847 33.1256 48.625V40.375C33.1256 39.9153 32.8958 39.4859 32.5133 39.231L24.8756 34.1392V27.3608L31.7506 22.7775L38.0939 27.0064C38.7257 27.4276 39.5794 27.2568 40.0006 26.625L40.0006 26.625C40.4218 25.9932 40.2511 25.1395 39.6193 24.7183L33.1256 20.3892V13.6108L40.0006 9.02762L46.3439 13.2564C46.9757 13.6776 47.8294 13.5068 48.2506 12.875L48.2506 12.875C48.6718 12.2432 48.5011 11.3895 47.8693 10.9683L41.3756 6.63916V-0.13916ZM24.8756 -0.13916L31.7506 -4.72238L38.6256 -0.13916V6.63916L31.7506 11.2224L24.8756 6.63916V-0.13916ZM30.3756 20.3892L23.5006 24.9724L16.6256 20.3892V13.6108L23.5006 9.02762L30.3756 13.6108V20.3892ZM5.6256 6.63916L-1.2494 11.2224L-8.1244 6.63916V-0.13916L-1.2494 -4.72238L5.6256 -0.13916V6.63916ZM-16.3744 -13.8892L-9.4994 -18.4724L-2.6244 -13.8892V-7.11084L-9.4994 -2.52762L-16.3744 -7.11084V-13.8892ZM-16.3744 13.6108L-9.4994 9.02762L-2.6244 13.6108V20.3892L-9.4994 24.9724L-16.3744 20.3892V13.6108ZM-10.8744 34.1392L-17.7494 38.7224L-24.6244 34.1392V27.3608L-17.7494 22.7776L-10.8744 27.3608V34.1392ZM0.125603 13.6108L7.0006 9.02762L13.8756 13.6108V20.3892L7.0006 24.9724L0.125603 20.3892V13.6108ZM8.3756 27.3608L15.2506 22.7776L22.1256 27.3608V34.1392L15.2506 38.7224L8.3756 34.1392V27.3608ZM30.3756 47.8892L23.5006 52.4724L16.6256 47.8892V41.1108L23.5006 36.5276L30.3756 41.1108V47.8892Z" fill="#696E87"/>
<path opacity="0.06" fill-rule="evenodd" clip-rule="evenodd" d="M511.581 143.404C513.271 143.927 514.83 143.938 516.268 143.494C517.686 143.057 518.877 142.212 519.902 141.199C521.598 139.52 523.043 137.154 524.411 134.916L524.411 134.916L524.411 134.915C524.646 134.531 524.879 134.149 525.11 133.776C526.762 131.112 528.392 128.748 530.438 127.292C532.367 125.919 534.754 125.295 538.179 126.354L539.065 123.488C534.774 122.161 531.412 122.917 528.698 124.848C526.102 126.696 524.196 129.558 522.561 132.196C522.304 132.609 522.056 133.015 521.812 133.413L521.812 133.413C520.426 135.674 519.205 137.668 517.792 139.066C516.992 139.857 516.204 140.375 515.384 140.628C514.584 140.874 513.645 140.902 512.468 140.538C510.767 140.012 509.196 140.018 507.74 140.481C506.31 140.937 505.093 141.8 504.025 142.823C502.959 143.843 501.985 145.077 501.054 146.344C500.627 146.926 500.2 147.528 499.774 148.128L499.653 148.299C499.184 148.959 498.715 149.618 498.232 150.269C496.283 152.895 494.218 155.235 491.562 156.602C488.978 157.931 485.668 158.419 481.042 156.988L480.155 159.854C485.427 161.485 489.561 161.005 492.935 159.269C496.236 157.571 498.641 154.752 500.641 152.056C501.145 151.377 501.631 150.695 502.099 150.035L502.219 149.867L502.219 149.867C502.647 149.263 503.061 148.681 503.472 148.12C504.377 146.888 505.227 145.824 506.099 144.99C506.967 144.159 507.799 143.611 508.65 143.34C509.475 143.078 510.417 143.044 511.581 143.404ZM515.386 149.87C518.762 150.701 521.378 149.472 523.491 147.495C525.209 145.886 526.72 143.659 528.159 141.54C528.406 141.175 528.651 140.814 528.895 140.459C530.626 137.943 532.335 135.677 534.422 134.225C536.418 132.836 538.806 132.16 542.065 132.961L542.781 130.048C538.653 129.033 535.385 129.9 532.708 131.762C530.123 133.562 528.144 136.257 526.423 138.759C526.155 139.149 525.894 139.533 525.638 139.909C524.184 142.047 522.893 143.945 521.44 145.305C519.83 146.812 518.214 147.476 516.103 146.957C512.705 146.121 510.065 147.42 507.873 149.413C506.332 150.814 504.864 152.705 503.42 154.565C502.91 155.222 502.403 155.876 501.897 156.502C499.877 159.002 497.74 161.27 495.056 162.669C492.431 164.037 489.166 164.632 484.758 163.548L484.041 166.462C489.109 167.708 493.128 167.057 496.443 165.329C499.698 163.632 502.155 160.956 504.23 158.388C504.839 157.634 505.407 156.902 505.951 156.202C507.333 154.422 508.557 152.845 509.891 151.633C511.643 150.039 513.296 149.356 515.386 149.87Z" fill="#696E87"/>
<path opacity="0.06" fill-rule="evenodd" clip-rule="evenodd" d="M917.144 90.4099C917.077 92.1769 917.47 93.6859 918.27 94.9602C919.059 96.2171 920.184 97.1481 921.428 97.8758C923.488 99.0804 926.148 99.8639 928.664 100.605L928.664 100.605C929.097 100.733 929.525 100.859 929.946 100.986C932.947 101.892 935.652 102.854 937.588 104.453C939.413 105.962 940.634 108.106 940.497 111.688L943.495 111.803C943.667 107.314 942.066 104.262 939.498 102.141C937.042 100.111 933.784 99.0108 930.812 98.1139C930.347 97.9736 929.89 97.8383 929.443 97.7058L929.443 97.7057C926.9 96.953 924.658 96.2894 922.942 95.2861C921.971 94.718 921.267 94.0911 920.81 93.3646C920.365 92.6554 920.095 91.7554 920.142 90.5246C920.21 88.7448 919.797 87.2292 918.973 85.943C918.163 84.6792 917.015 83.7276 915.75 82.9601C914.489 82.1951 913.045 81.5731 911.579 81.0022C910.907 80.7404 910.215 80.4835 909.526 80.2276L909.329 80.1546C908.57 79.8727 907.812 79.59 907.058 79.2919C904.017 78.0891 901.222 76.7006 899.215 74.4887C897.262 72.3369 895.934 69.2658 896.119 64.4265L893.121 64.3119C892.91 69.8264 894.444 73.6955 896.993 76.5047C899.488 79.2539 902.834 80.8473 905.955 82.0816C906.742 82.3927 907.526 82.6853 908.285 82.967L908.478 83.0389L908.479 83.039C909.173 83.2965 909.842 83.5451 910.49 83.7976C911.914 84.3523 913.162 84.8988 914.194 85.5249C915.221 86.1484 915.966 86.8102 916.447 87.5615C916.914 88.2905 917.191 89.1917 917.144 90.4099ZM911.884 95.7598C911.955 99.2361 913.819 101.445 916.276 102.973C918.275 104.217 920.817 105.1 923.236 105.941L923.237 105.941C923.653 106.086 924.065 106.229 924.471 106.373C927.349 107.393 929.98 108.458 931.923 110.098C933.782 111.667 935.052 113.798 935.121 117.153L938.121 117.091C938.033 112.841 936.35 109.908 933.858 107.805C931.451 105.773 928.336 104.56 925.473 103.545C925.027 103.387 924.589 103.234 924.159 103.085L924.159 103.085C921.717 102.233 919.55 101.477 917.861 100.426C915.988 99.2609 914.928 97.8717 914.883 95.698C914.811 92.2003 912.873 89.9857 910.381 88.3841C908.629 87.258 906.422 86.3298 904.252 85.4168C903.485 85.0942 902.723 84.7735 901.987 84.4466C899.049 83.1424 896.305 81.6652 894.259 79.4351C892.258 77.2539 890.838 74.2537 890.745 69.7152L887.745 69.7771C887.853 74.9953 889.522 78.7087 892.048 81.463C894.53 84.1685 897.752 85.8487 900.769 87.1885C901.655 87.5816 902.509 87.941 903.326 88.285L903.326 88.285C905.403 89.159 907.243 89.9333 908.759 90.9079C910.752 92.1885 911.839 93.6076 911.884 95.7598Z" fill="#696E87"/>
<g opacity="0.06">
<path d="M1026.47 73.3951C1027.88 75.8259 1026.8 77.786 1026.09 79.0771C1025.77 79.6635 1025.44 80.2553 1025.57 80.4837L1025.94 81.1325C1026.18 81.5346 1026.04 82.0535 1025.64 82.2856C1025.23 82.5178 1024.71 82.3787 1024.48 81.9767L1024.11 81.3279C1023.5 80.2678 1024.09 79.2064 1024.61 78.2578C1025.3 77.0114 1025.95 75.8423 1025.02 74.234C1024.06 72.5709 1021.92 71.9901 1020.25 72.9556C1018.59 73.9158 1018.01 76.0544 1018.97 77.7267C1019.2 78.1287 1019.06 78.6476 1018.66 78.8798C1018.26 79.1119 1017.74 78.9729 1017.51 78.5708C1016.08 76.0944 1016.93 72.9233 1019.4 71.4935C1021.86 70.0743 1025.04 70.9187 1026.47 73.3951Z" fill="#696E87"/>
<path d="M1027.46 83.6709C1027.71 84.1003 1027.56 84.6481 1027.13 84.896C1026.7 85.144 1026.15 84.9972 1025.91 84.5678C1025.66 84.1383 1025.8 83.5905 1026.23 83.3426C1026.66 83.0946 1027.22 83.2505 1027.46 83.6709Z" fill="#696E87"/>
<path d="M1056.24 85.356C1056.47 85.7581 1056.33 86.277 1055.93 86.5092L1042.77 94.1064C1042.37 94.3386 1041.85 94.1995 1041.62 93.7975C1041.39 93.3954 1041.52 92.8765 1041.93 92.6443L1055.09 85.0471C1055.49 84.8149 1056 84.9448 1056.24 85.356Z" fill="#696E87"/>
<path d="M1052.88 79.5357C1053.11 79.9378 1052.97 80.4567 1052.57 80.6888L1039.41 88.2861C1039.01 88.5183 1038.49 88.3792 1038.25 87.9771C1038.02 87.5751 1038.16 87.0562 1038.56 86.824L1051.72 79.2267C1052.12 78.9946 1052.64 79.1336 1052.88 79.5357Z" fill="#696E87"/>
<path d="M1062.21 82.7617C1062.06 80.1945 1061.3 77.6588 1060.01 75.42C1057.8 71.6003 1054.24 68.8454 1049.98 67.6825C1045.99 66.5891 1041.82 67.0003 1038.13 68.8333C1033.32 61.549 1023.57 59.1751 1015.9 63.6016C1007.94 68.1969 1005.2 78.4164 1009.8 86.3757C1011.09 88.6146 1012.91 90.5383 1015.05 91.9553L1017.64 99.9261C1017.73 100.205 1017.96 100.404 1018.23 100.477C1018.45 100.535 1018.68 100.497 1018.87 100.387C1018.92 100.36 1018.97 100.319 1019.02 100.279L1025.25 94.6715C1027.48 94.5424 1029.68 93.9424 1031.69 92.9518C1033.95 96.3852 1037.37 98.8227 1041.37 99.8728C1045.65 100.987 1050.1 100.389 1053.92 98.1836C1056.16 96.891 1058.08 95.0736 1059.5 92.9274L1067.47 90.3359C1067.52 90.3186 1067.58 90.2961 1067.64 90.2644C1067.83 90.1537 1067.97 89.975 1068.04 89.7535C1068.11 89.4797 1068.04 89.1816 1067.85 88.9704L1062.21 82.7617ZM1024.86 93.0071C1024.72 93.0156 1024.59 93.0515 1024.47 93.1201C1024.43 93.1464 1024.38 93.1872 1024.33 93.228L1018.84 98.1618L1016.56 91.1463C1016.5 90.9607 1016.37 90.8029 1016.21 90.6898C1014.18 89.4122 1012.47 87.6242 1011.26 85.5316C1007.13 78.3764 1009.59 69.1947 1016.74 65.0637C1023.9 60.9327 1033.08 63.3929 1037.21 70.548C1041.34 77.7032 1038.88 86.8849 1031.73 91.0159C1029.63 92.2241 1027.26 92.9153 1024.86 93.0071ZM1058.7 91.4154C1058.5 91.47 1058.33 91.6029 1058.23 91.7748C1056.94 93.8092 1055.15 95.5238 1053.06 96.732C1046.24 100.668 1037.49 98.5787 1033.14 92.1365C1037.61 89.3105 1040.3 84.6628 1040.82 79.725L1049.21 74.8765C1049.62 74.6443 1049.75 74.1254 1049.52 73.7233C1049.29 73.3213 1048.77 73.1822 1048.37 73.4144L1040.9 77.7248C1040.86 75.2029 1040.25 72.6587 1039 70.294C1046 66.877 1054.61 69.4471 1058.54 76.2641C1059.75 78.3568 1060.44 80.7357 1060.54 83.1317C1060.55 83.3437 1060.64 83.537 1060.77 83.6804L1065.69 89.1476L1058.7 91.4154Z" fill="#696E87"/>
</g>
<g opacity="0.06">
<path d="M119.473 60.3951C120.876 62.8259 119.803 64.786 119.086 66.0771C118.767 66.6635 118.438 67.2553 118.57 67.4837L118.945 68.1325C119.177 68.5346 119.038 69.0535 118.636 69.2856C118.234 69.5178 117.715 69.3787 117.482 68.9767L117.108 68.3279C116.496 67.2678 117.089 66.2064 117.614 65.2578C118.295 64.0114 118.949 62.8423 118.02 61.234C117.06 59.5709 114.921 58.9901 113.249 59.9556C111.586 60.9158 111.005 63.0544 111.971 64.7267C112.203 65.1287 112.064 65.6476 111.662 65.8798C111.259 66.1119 110.741 65.9729 110.508 65.5708C109.079 63.0944 109.928 59.9233 112.405 58.4935C114.863 57.0743 118.043 57.9187 119.473 60.3951Z" fill="#696E87"/>
<path d="M120.459 70.6709C120.707 71.1003 120.56 71.6481 120.131 71.896C119.701 72.144 119.153 71.9972 118.905 71.5678C118.658 71.1383 118.804 70.5905 119.234 70.3426C119.663 70.0946 120.216 70.2505 120.459 70.6709Z" fill="#696E87"/>
<path d="M149.238 72.356C149.471 72.7581 149.331 73.277 148.929 73.5092L135.771 81.1064C135.368 81.3386 134.85 81.1995 134.617 80.7975C134.385 80.3954 134.524 79.8765 134.926 79.6443L148.085 72.0471C148.487 71.8149 149.001 71.9448 149.238 72.356Z" fill="#696E87"/>
<path d="M145.875 66.5357C146.107 66.9378 145.968 67.4567 145.566 67.6888L132.407 75.2861C132.005 75.5183 131.486 75.3792 131.254 74.9771C131.022 74.5751 131.161 74.0562 131.563 73.824L144.722 66.2267C145.124 65.9946 145.643 66.1336 145.875 66.5357Z" fill="#696E87"/>
<path d="M155.21 69.7617C155.056 67.1945 154.299 64.6588 153.006 62.42C150.801 58.6003 147.236 55.8454 142.983 54.6825C138.989 53.5891 134.815 54.0003 131.134 55.8333C126.319 48.549 116.566 46.1751 108.899 50.6016C100.94 55.1969 98.2015 65.4164 102.797 73.3757C104.089 75.6146 105.907 77.5383 108.053 78.9553L110.645 86.9261C110.732 87.2045 110.957 87.4038 111.231 87.4771C111.447 87.5351 111.681 87.4974 111.873 87.3866C111.919 87.3602 111.968 87.3194 112.018 87.2786L118.248 81.6715C120.476 81.5424 122.676 80.9424 124.687 79.9518C126.95 83.3852 130.367 85.8227 134.373 86.8728C138.647 87.9872 143.102 87.3889 146.922 85.1836C149.161 83.891 151.085 82.0736 152.502 79.9274L160.472 77.3359C160.523 77.3186 160.583 77.2961 160.638 77.2644C160.83 77.1537 160.971 76.975 161.038 76.7535C161.111 76.4797 161.037 76.1816 160.854 75.9704L155.21 69.7617ZM117.859 80.0071C117.718 80.0156 117.592 80.0515 117.474 80.1201C117.428 80.1464 117.378 80.1872 117.329 80.228L111.843 85.1618L109.56 78.1463C109.501 77.9607 109.374 77.8029 109.211 77.6898C107.182 76.4122 105.467 74.6242 104.259 72.5316C100.128 65.3764 102.588 56.1947 109.743 52.0637C116.898 47.9327 126.08 50.3929 130.211 57.548C134.342 64.7032 131.882 73.8849 124.727 78.0159C122.634 79.2241 120.255 79.9153 117.859 80.0071ZM151.702 78.4154C151.502 78.47 151.335 78.6029 151.227 78.7748C149.94 80.8092 148.152 82.5238 146.06 83.732C139.243 87.6678 130.494 85.5787 126.141 79.1365C130.614 76.3105 133.304 71.6628 133.816 66.725L142.214 61.8765C142.616 61.6443 142.755 61.1254 142.523 60.7233C142.291 60.3213 141.772 60.1822 141.37 60.4144L133.904 64.7248C133.861 62.2029 133.245 59.6587 132.002 57.294C138.997 53.877 147.608 56.4471 151.544 63.2641C152.752 65.3568 153.443 67.7357 153.535 70.1317C153.548 70.3437 153.635 70.537 153.767 70.6804L158.69 76.1476L151.702 78.4154Z" fill="#696E87"/>
</g>
<g opacity="0.06">
<path d="M634.473 253.395C635.876 255.826 634.803 257.786 634.086 259.077C633.767 259.664 633.438 260.255 633.57 260.484L633.945 261.133C634.177 261.535 634.038 262.053 633.636 262.286C633.234 262.518 632.715 262.379 632.482 261.977L632.108 261.328C631.496 260.268 632.089 259.206 632.614 258.258C633.295 257.011 633.949 255.842 633.02 254.234C632.06 252.571 629.921 251.99 628.249 252.956C626.586 253.916 626.005 256.054 626.971 257.727C627.203 258.129 627.064 258.648 626.662 258.88C626.259 259.112 625.741 258.973 625.508 258.571C624.079 256.094 624.928 252.923 627.405 251.494C629.863 250.074 633.043 250.919 634.473 253.395Z" fill="#696E87"/>
<path d="M660.875 259.536C661.107 259.938 660.968 260.457 660.566 260.689L647.407 268.286C647.005 268.518 646.486 268.379 646.254 267.977C646.022 267.575 646.161 267.056 646.563 266.824L659.722 259.227C660.124 258.995 660.643 259.134 660.875 259.536Z" fill="#696E87"/>
<path d="M670.21 262.762C670.056 260.195 669.299 257.659 668.006 255.42C665.801 251.6 662.236 248.845 657.983 247.682C653.989 246.589 649.815 247 646.134 248.833C641.319 241.549 631.566 239.175 623.899 243.602C615.94 248.197 613.202 258.416 617.797 266.376C619.089 268.615 620.907 270.538 623.053 271.955L625.645 279.926C625.732 280.205 625.957 280.404 626.231 280.477C626.447 280.535 626.681 280.497 626.873 280.387C626.919 280.36 626.968 280.319 627.018 280.279L633.248 274.671C635.476 274.542 637.676 273.942 639.687 272.952C641.95 276.385 645.367 278.823 649.373 279.873C653.647 280.987 658.102 280.389 661.922 278.184C664.161 276.891 666.085 275.074 667.502 272.927L675.472 270.336C675.523 270.319 675.583 270.296 675.638 270.264C675.83 270.154 675.971 269.975 676.038 269.754C676.111 269.48 676.037 269.182 675.854 268.97L670.21 262.762ZM632.859 273.007C632.718 273.016 632.592 273.051 632.474 273.12C632.428 273.146 632.378 273.187 632.329 273.228L626.843 278.162L624.56 271.146C624.501 270.961 624.374 270.803 624.211 270.69C622.182 269.412 620.467 267.624 619.259 265.532C615.128 258.376 617.588 249.195 624.743 245.064C631.898 240.933 641.08 243.393 645.211 250.548C649.342 257.703 646.882 266.885 639.727 271.016C637.634 272.224 635.255 272.915 632.859 273.007ZM666.702 271.415C666.502 271.47 666.335 271.603 666.227 271.775C664.94 273.809 663.152 275.524 661.06 276.732C654.243 280.668 645.494 278.579 641.141 272.137C645.614 269.311 648.304 264.663 648.816 259.725L657.214 254.876C657.616 254.644 657.755 254.125 657.523 253.723C657.291 253.321 656.772 253.182 656.37 253.414L648.904 257.725C648.861 255.203 648.245 252.659 647.002 250.294C653.997 246.877 662.608 249.447 666.544 256.264C667.752 258.357 668.443 260.736 668.535 263.132C668.548 263.344 668.635 263.537 668.767 263.68L673.69 269.148L666.702 271.415Z" fill="#696E87"/>
</g>
<g opacity="0.06">
<path d="M437.092 51.908C431.992 46.8085 425.212 44 418 44C410.788 44 404.008 46.8085 398.908 51.908C393.809 57.0078 391 63.788 391 71C391 78.212 393.809 84.9922 398.908 90.092C404.008 95.1915 410.788 98 418 98C425.212 98 431.992 95.1915 437.092 90.092C442.191 84.9922 445 78.212 445 71C445 63.788 442.191 57.0078 437.092 51.908ZM418 47.1641C424.003 47.1641 429.495 49.3959 433.69 53.0723L426.327 60.4354C424.035 58.6246 421.141 57.5424 418 57.5424C414.859 57.5424 411.965 58.6246 409.673 60.4354L402.31 53.0723C406.505 49.3959 411.997 47.1641 418 47.1641ZM428.294 71C428.294 76.6759 423.676 81.2935 418 81.2935C412.324 81.2935 407.706 76.6759 407.706 71C407.706 65.3241 412.324 60.7065 418 60.7065C423.676 60.7065 428.294 65.3241 428.294 71ZM394.164 71C394.164 64.9965 396.396 59.5051 400.073 55.3096L407.436 62.6727C405.625 64.9652 404.542 67.8585 404.542 71.0001C404.542 74.1415 405.625 77.0348 407.435 79.3273L400.072 86.6904C396.396 82.4948 394.164 77.0034 394.164 71ZM418 94.8359C411.997 94.8359 406.505 92.604 402.31 88.9275L409.673 81.5644C411.965 83.3753 414.858 84.4575 418 84.4575C421.141 84.4575 424.035 83.3753 426.327 81.5643L433.69 88.9274C429.495 92.604 424.003 94.8359 418 94.8359ZM435.928 86.6902L428.565 79.3271C430.375 77.0346 431.458 74.1414 431.458 71C431.458 67.8585 430.375 64.9652 428.564 62.6727L435.928 55.3096C439.604 59.5051 441.836 64.9965 441.836 71C441.836 77.0034 439.604 82.4948 435.928 86.6902Z" fill="#696E87"/>
</g>
<g opacity="0.06">
<path d="M969.092 240.908C963.992 235.809 957.212 233 950 233C942.788 233 936.008 235.809 930.908 240.908C925.809 246.008 923 252.788 923 260C923 267.212 925.809 273.992 930.908 279.092C936.008 284.191 942.788 287 950 287C957.212 287 963.992 284.191 969.092 279.092C974.191 273.992 977 267.212 977 260C977 252.788 974.191 246.008 969.092 240.908ZM950 236.164C956.003 236.164 961.495 238.396 965.69 242.072L958.327 249.435C956.035 247.625 953.141 246.542 950 246.542C946.859 246.542 943.965 247.625 941.673 249.435L934.31 242.072C938.505 238.396 943.997 236.164 950 236.164ZM960.294 260C960.294 265.676 955.676 270.294 950 270.294C944.324 270.294 939.706 265.676 939.706 260C939.706 254.324 944.324 249.706 950 249.706C955.676 249.706 960.294 254.324 960.294 260ZM926.164 260C926.164 253.997 928.396 248.505 932.073 244.31L939.436 251.673C937.625 253.965 936.542 256.859 936.542 260C936.542 263.141 937.625 266.035 939.435 268.327L932.072 275.69C928.396 271.495 926.164 266.003 926.164 260ZM950 283.836C943.997 283.836 938.505 281.604 934.31 277.927L941.673 270.564C943.965 272.375 946.858 273.457 950 273.457C953.141 273.457 956.035 272.375 958.327 270.564L965.69 277.927C961.495 281.604 956.003 283.836 950 283.836ZM967.928 275.69L960.565 268.327C962.375 266.035 963.458 263.141 963.458 260C963.458 256.859 962.375 253.965 960.564 251.673L967.928 244.31C971.604 248.505 973.836 253.997 973.836 260C973.836 266.003 971.604 271.495 967.928 275.69Z" fill="#696E87"/>
</g>







</g>
</svg>